<?xml version="1.0" standalone="no"?>
<!DOCTYPE svg PUBLIC "-//W3C//DTD SVG 1.1//EN" "http://www.w3.org/Graphics/SVG/1.1/DTD/svg11.dtd" >
<svg xmlns="http://www.w3.org/2000/svg" xmlns:xlink="http://www.w3.org/1999/xlink" version="1.1">
<metadata>
Created by FontForge 20150318 at Fri Mar 20 00:12:22 2015
 By uniteet7
2012 by (URW)++ Design &#38; Development
</metadata>
<defs>
<font id="blizzardregularitalic_1jLGm" horiz-adv-x="1180" vert-adv-y="2048" >
  <font-face 
    font-family="blizzardregularitalic_1jLGm"
    font-weight="500"
    font-style="italic"
    font-stretch="normal"
    units-per-em="2048"
    panose-1="2 11 4 4 4 2 2 9 2 4"
    ascent="1638"
    descent="-410"
    x-height="1024"
    cap-height="1434"
    bbox="-413 -537 2480 1955"
    underline-thickness="146"
    underline-position="-264"
    slope="10"
    unicode-range="U+0020-25CA"
  />
<missing-glyph horiz-adv-x="590" vert-adv-y="2457" 
d="M59 0v1434h472v-1434h-472zM472 59v1316h-354v-1316h354z" />
    <glyph glyph-name=".notdef" horiz-adv-x="590" vert-adv-y="2457" 
d="M59 0v1434h472v-1434h-472zM472 59v1316h-354v-1316h354z" />
    <glyph glyph-name="glyph1" horiz-adv-x="0" vert-adv-y="0" 
 />
    <glyph glyph-name="glyph2" horiz-adv-x="590" vert-adv-y="2457" 
 />
    <glyph glyph-name="space" unicode=" " horiz-adv-x="590" vert-adv-y="2457" 
 />
    <glyph glyph-name="exclam" unicode="!" horiz-adv-x="720" vert-adv-y="2457" 
d="M262 412l153 1022h213l-207 -1022h-159zM292 244q58 0 100 -44q36 -37 36 -89q0 -61 -46 -100q-40 -34 -93 -34q-61 0 -103 44q-36 37 -36 91q0 58 47 98q40 34 95 34z" />
    <glyph glyph-name="quotedbl" unicode="&#x22;" horiz-adv-x="674" vert-adv-y="2457" 
d="M159 818l88 647h190l-141 -647h-137zM487 818l88 647h189l-140 -647h-137z" />
    <glyph glyph-name="numbersign" unicode="#" vert-adv-y="2457" 
d="M339 606l39 225h-213l24 135h213l57 321h156l-56 -321h222l57 321h156l-57 -321h212l-24 -135h-212l-40 -225h212l-24 -135h-212l-58 -330h-156l58 330h-223l-58 -330h-156l58 330h-213l24 135h214zM495 606h222l40 225h-223z" />
    <glyph glyph-name="dollar" unicode="$" vert-adv-y="2457" 
d="M563 656q-146 63 -205 103q-146 98 -146 261q0 122 69 218q122 169 417 179l36 207h118l-37 -210q173 -18 326 -109l-64 -168q-122 105 -289 122l-80 -457q164 -71 223 -109q152 -99 152 -265q0 -132 -71 -239q-123 -184 -449 -208l-32 -177h-118l31 173q-137 2 -265 37
q-101 29 -172 75l64 176q92 -73 193 -103q91 -27 208 -28zM597 846l73 414q-95 -9 -159 -41q-59 -29 -87 -87q-22 -43 -22 -92q0 -91 94 -146q30 -17 101 -48zM674 612l-82 -469q123 17 195 63q61 39 90 106q18 41 18 85q0 99 -100 159q-23 14 -121 56z" />
    <glyph glyph-name="percent" unicode="%" horiz-adv-x="1775" vert-adv-y="2457" 
d="M577 1457q135 0 208 -79q72 -79 72 -208q0 -94 -30 -197q-84 -286 -359 -286q-140 0 -214 72q-75 74 -75 214q0 95 30 196q85 288 368 288zM563 1334q-119 0 -174 -130q-46 -109 -46 -237q0 -157 133 -157q116 0 171 129q46 109 46 238q0 157 -130 157zM434 0l821 1434
h159l-821 -1434h-159zM1388 747q135 0 209 -79q72 -79 72 -205q0 -97 -30 -200q-85 -286 -361 -286q-140 0 -213 72q-76 74 -76 214q0 95 30 196q86 288 369 288zM1374 624q-120 0 -174 -130q-47 -110 -47 -237q0 -157 133 -157q117 0 172 130q47 109 47 237q0 157 -131 157
z" />
    <glyph glyph-name="ampersand" unicode="&#x26;" horiz-adv-x="1558" vert-adv-y="2457" 
d="M543 808q-69 145 -69 263q0 165 92 267q107 119 310 119q171 0 256 -83q71 -70 71 -189q0 -104 -56 -193q-65 -104 -221 -179q-58 -28 -129 -53l261 -386q173 194 280 513l163 -36q-79 -209 -152 -335q-88 -154 -200 -265l192 -251h-249l-97 136q-80 -62 -137 -92
q-142 -74 -317 -74q-206 0 -317 106q-94 91 -94 244q0 139 71 251q72 114 221 186q50 24 121 51zM721 873q120 43 196 97q63 46 95 122q19 45 19 89q0 66 -44 103q-43 36 -123 36q-113 0 -171 -75q-47 -60 -47 -154q0 -66 33 -137q14 -31 33 -64zM609 690q-119 -53 -167 -93
q-62 -51 -94 -128q-24 -59 -24 -122q0 -111 72 -170q71 -60 195 -60q119 0 237 72q37 22 82 56z" />
    <glyph glyph-name="quotesingle" unicode="'" horiz-adv-x="346" vert-adv-y="2457" 
d="M159 818l88 647h190l-141 -647h-137z" />
    <glyph glyph-name="parenleft" unicode="(" horiz-adv-x="850" vert-adv-y="2457" 
d="M558 -305l-126 -69q-177 303 -177 676q0 456 218 869q117 220 296 415l114 -77q-155 -199 -255 -426q-179 -408 -179 -811q0 -318 109 -577z" />
    <glyph glyph-name="parenright" unicode=")" horiz-adv-x="850" vert-adv-y="2457" 
d="M328 1516l127 70q176 -303 176 -676q0 -455 -219 -870q-115 -220 -294 -414l-115 77q154 195 255 426q178 407 178 810q0 316 -108 577z" />
    <glyph glyph-name="asterisk" unicode="*" vert-adv-y="2457" 
d="M688 1038l-237 -265l-129 119l275 245l-329 132l80 154l306 -171l41 340l177 -31l-77 -333l346 56l22 -173l-355 -11l175 -324l-162 -69z" />
    <glyph glyph-name="plus" unicode="+" vert-adv-y="2457" 
d="M142 652l27 151h388l71 401h168l-71 -401h389l-27 -151h-389l-70 -400h-168l70 400h-388z" />
    <glyph glyph-name="comma" unicode="," horiz-adv-x="590" vert-adv-y="2457" 
d="M11 -279l156 504h206l-227 -504h-135z" />
    <glyph glyph-name="hyphen" unicode="-" horiz-adv-x="753" vert-adv-y="2457" 
d="M91 540l30 166h581l-30 -166h-581z" />
    <glyph glyph-name="period" unicode="." horiz-adv-x="590" vert-adv-y="2457" 
d="M227 244q58 0 100 -44q36 -37 36 -89q0 -61 -46 -100q-40 -34 -93 -34q-61 0 -103 44q-36 37 -36 91q0 58 47 98q40 34 95 34z" />
    <glyph glyph-name="slash" unicode="/" horiz-adv-x="994" vert-adv-y="2457" 
d="M-51 0l982 1434h186l-982 -1434h-186z" />
    <glyph glyph-name="zero" unicode="0" vert-adv-y="2457" 
d="M740 1457q141 0 243 -59q170 -99 170 -389q0 -178 -55 -419q-77 -334 -204 -468q-137 -145 -376 -145q-223 0 -327 122q-93 109 -93 327q0 153 50 398q70 338 203 482q140 151 389 151zM729 1299q-179 0 -274 -152q-72 -115 -125 -402q-38 -212 -38 -335q0 -275 234 -275
q174 0 270 152q71 113 122 389q41 219 41 348q0 275 -230 275z" />
    <glyph glyph-name="one" unicode="1" vert-adv-y="2457" 
d="M470 0l220 1254l-345 -112l28 159l396 141h142l-254 -1442h-187z" />
    <glyph glyph-name="two" unicode="2" vert-adv-y="2457" 
d="M32 0l26 152l490 465q211 200 274 292q76 112 76 212q0 178 -233 178q-167 0 -349 -122l-4 179q74 35 127 54q130 47 263 47q188 0 292 -83q98 -78 98 -230q0 -168 -118 -328q-74 -101 -300 -306l-391 -354h660l-27 -156h-884z" />
    <glyph glyph-name="three" unicode="3" vert-adv-y="2457" 
d="M23 77l64 169q140 -115 342 -115q217 0 318 128q74 95 74 230q0 158 -118 208q-81 35 -236 35h-97l495 544h-565l28 158h881l-520 -570q328 -40 328 -350q0 -231 -137 -378q-149 -159 -444 -159q-240 0 -413 100z" />
    <glyph glyph-name="four" unicode="4" vert-adv-y="2457" 
d="M691 360h-666l25 139l818 935h193l-160 -911h224l-29 -163h-224l-63 -360h-181zM720 523l119 678l-576 -678h457z" />
    <glyph glyph-name="five" unicode="5" vert-adv-y="2457" 
d="M67 77l64 169q145 -114 335 -114q228 0 316 153q63 109 63 235q0 232 -225 232q-128 0 -286 -102l-109 25l162 759h739l-28 -156h-565l-96 -436q33 17 42 21q95 43 210 43q172 0 261 -95q91 -98 91 -276q0 -129 -45 -243q-123 -314 -517 -314q-238 0 -412 99z" />
    <glyph glyph-name="six" unicode="6" vert-adv-y="2457" 
d="M485 876q103 55 216 55q181 0 275 -91q95 -93 95 -274q0 -208 -109 -376q-138 -213 -433 -213q-421 0 -421 371q0 323 295 686l325 400h226zM651 780q-197 0 -284 -156q-65 -115 -65 -265q0 -228 239 -228q182 0 270 161q66 120 66 264q0 224 -226 224z" />
    <glyph glyph-name="seven" unicode="7" vert-adv-y="2457" 
d="M919 1276h-623l28 158h869l-807 -1434h-215z" />
    <glyph glyph-name="eight" unicode="8" vert-adv-y="2457" 
d="M382 761q-65 43 -96 90q-47 71 -47 171q0 103 47 199q115 236 444 236q195 0 299 -77q111 -82 111 -241q0 -264 -257 -389q198 -90 198 -304q0 -216 -146 -345q-140 -124 -413 -124q-469 0 -469 336q0 192 124 322q75 79 205 126zM730 1303q-167 0 -245 -101
q-60 -77 -60 -186q0 -184 221 -184q171 0 250 114q55 81 55 181q0 88 -59 132t-162 44zM624 674q-209 0 -301 -113q-76 -94 -76 -229q0 -201 283 -201q197 0 287 106q75 89 75 228q0 209 -268 209z" />
    <glyph glyph-name="nine" unicode="9" vert-adv-y="2457" 
d="M768 558q-103 -55 -218 -55q-180 0 -274 91q-95 93 -95 274q0 209 109 376q139 213 435 213q421 0 421 -371q0 -322 -296 -686l-325 -400h-226zM715 1303q-186 0 -274 -161q-66 -121 -66 -264q0 -224 232 -224q192 0 280 156q65 116 65 265q0 228 -237 228z" />
    <glyph glyph-name="colon" unicode=":" horiz-adv-x="590" vert-adv-y="2457" 
d="M272 244q58 0 100 -44q36 -37 36 -89q0 -61 -46 -100q-40 -34 -93 -34q-61 0 -103 44q-36 37 -36 91q0 58 47 98q40 34 95 34zM412 1046q58 0 100 -44q36 -38 36 -90q0 -60 -46 -99q-40 -34 -92 -34q-61 0 -103 44q-36 37 -36 91q0 58 46 98q41 34 95 34z" />
    <glyph glyph-name="semicolon" unicode=";" horiz-adv-x="590" vert-adv-y="2457" 
d="M53 -279l156 504h206l-227 -504h-135zM413 1046q58 0 100 -44q36 -37 36 -90q0 -60 -46 -99q-40 -34 -93 -34q-61 0 -103 44q-36 37 -36 91q0 58 47 98q40 34 95 34z" />
    <glyph glyph-name="less" unicode="&#x3c;" vert-adv-y="2457" 
d="M397 718l642 -333l-32 -179l-861 470l17 97l1028 474l-35 -191z" />
    <glyph glyph-name="equal" unicode="=" vert-adv-y="2457" 
d="M171 816l27 151h945l-28 -151h-944zM113 489l27 151h945l-27 -151h-945z" />
    <glyph glyph-name="greater" unicode="&#x3e;" vert-adv-y="2457" 
d="M859 735l-642 333l32 179l861 -469l-18 -98l-1027 -473l33 191z" />
    <glyph glyph-name="question" unicode="?" horiz-adv-x="954" vert-adv-y="2457" 
d="M473 410h-174l7 41q22 127 65 186q40 57 182 182q94 83 119 112q85 98 85 201q0 169 -184 169q-171 0 -371 -125l-2 172q198 109 399 109q184 0 276 -89q78 -75 78 -212q0 -133 -76 -242q-48 -69 -210 -210q-123 -108 -149 -148q-27 -40 -41 -120zM348 244q58 0 100 -44
q36 -37 36 -89q0 -61 -46 -100q-40 -34 -93 -34q-61 0 -103 44q-36 37 -36 91q0 58 47 98q40 34 95 34z" />
    <glyph glyph-name="at" unicode="@" horiz-adv-x="1774" vert-adv-y="2457" 
d="M1200 1010h127l-127 -501q-16 -62 -16 -101q0 -64 69 -64q77 0 146 67q133 130 133 355q0 228 -124 365q-70 77 -177 119q-131 51 -276 51q-274 0 -451 -176q-101 -102 -150 -233q-61 -166 -61 -350q0 -295 166 -432q163 -135 462 -135q250 0 468 96l37 -120
q-233 -102 -515 -102q-367 0 -565 169q-202 172 -202 519q0 299 130 516q113 187 306 283q172 85 383 85q246 0 431 -111q155 -93 226 -259q55 -128 55 -279q0 -217 -104 -365q-131 -187 -338 -187q-69 0 -110 25q-45 28 -62 129q-54 -59 -92 -89q-84 -66 -196 -66
q-106 0 -164 62q-66 70 -66 193q0 152 69 300q120 257 344 257q100 0 161 -54q22 -19 46 -56zM972 906q-115 0 -196 -135q-81 -136 -81 -280q0 -137 117 -137q119 0 206 137q32 51 58 121q33 87 33 158q0 55 -32 91q-41 45 -105 45z" />
    <glyph glyph-name="A" unicode="A" horiz-adv-x="1372" vert-adv-y="2457" 
d="M1002 387h-678l-223 -387h-214l854 1434h196l355 -1434h-203zM966 543l-153 696l-398 -696h551z" />
    <glyph glyph-name="B" unicode="B" horiz-adv-x="1339" vert-adv-y="2457" 
d="M105 0l253 1434h474q245 0 352 -62q120 -69 120 -239q0 -179 -122 -293q-56 -53 -162 -85q98 -30 141 -75q69 -71 69 -207q0 -142 -70 -266q-68 -120 -203 -166q-120 -41 -314 -41h-538zM444 832h251q143 0 213 16q118 27 171 138q29 62 29 125q0 95 -80 132
q-59 27 -214 27h-293zM327 164h278q231 0 318 65q108 82 108 246q0 126 -102 168q-71 29 -269 29h-244z" />
    <glyph glyph-name="C" unicode="C" horiz-adv-x="1238" vert-adv-y="2457" 
d="M1106 261v-183q-195 -101 -414 -101q-260 0 -404 120q-79 66 -118 168q-47 122 -47 261q0 193 66 388q101 298 315 435q169 108 400 108q227 0 408 -111l-64 -171q-56 45 -100 68q-102 52 -241 52q-310 0 -463 -270q-62 -109 -95 -254q-27 -118 -27 -231q0 -401 394 -401
q145 0 266 53q53 23 124 69z" />
    <glyph glyph-name="D" unicode="D" horiz-adv-x="1435" vert-adv-y="2457" 
d="M105 0l253 1434h409q193 0 316 -40q300 -98 300 -500q0 -257 -112 -490q-116 -240 -329 -337q-147 -67 -383 -67h-454zM327 164h224q301 0 456 179q89 103 140 283q37 133 37 258q0 236 -129 321q-75 49 -201 61q-49 4 -141 4h-192z" />
    <glyph glyph-name="E" unicode="E" horiz-adv-x="1233" vert-adv-y="2457" 
d="M105 0l253 1434h929l-29 -164h-737l-77 -441h660l-29 -164h-661l-87 -501h749l-29 -164h-942z" />
    <glyph glyph-name="F" unicode="F" horiz-adv-x="1169" vert-adv-y="2457" 
d="M105 0l253 1434h905l-29 -164h-713l-77 -441h658l-30 -164h-658l-116 -665h-193z" />
    <glyph glyph-name="G" unicode="G" horiz-adv-x="1405" vert-adv-y="2457" 
d="M773 575l27 150h492l-113 -638q-211 -110 -463 -110q-286 0 -430 126q-88 76 -128 200q-35 107 -35 224q0 209 77 417q101 270 310 402q176 111 420 111q238 0 441 -113l-64 -172q-64 47 -110 69q-113 54 -265 54q-323 0 -482 -265q-62 -104 -97 -241q-31 -123 -31 -244
q0 -211 101 -311q95 -95 291 -95q149 0 293 64l65 372h-299z" />
    <glyph glyph-name="H" unicode="H" horiz-adv-x="1488" vert-adv-y="2457" 
d="M105 0l253 1434h192l-106 -605h714l106 605h193l-253 -1434h-193l117 665h-714l-116 -665h-193z" />
    <glyph glyph-name="I" unicode="I" horiz-adv-x="597" vert-adv-y="2457" 
d="M112 0l253 1434h192l-252 -1434h-193z" />
    <glyph glyph-name="J" unicode="J" horiz-adv-x="970" vert-adv-y="2457" 
d="M750 1434h192l-162 -920q-29 -165 -60 -249q-109 -288 -451 -288q-232 0 -362 108l66 177q64 -54 92 -73q77 -49 190 -49q169 0 243 103q56 77 91 277z" />
    <glyph glyph-name="K" unicode="K" horiz-adv-x="1274" vert-adv-y="2457" 
d="M104 0l253 1434h192l-111 -632l712 632h246l-768 -661l560 -773h-226l-532 758l-133 -758h-193z" />
    <glyph glyph-name="L" unicode="L" horiz-adv-x="1065" vert-adv-y="2457" 
d="M105 0l253 1434h192l-223 -1270h642l-29 -164h-835z" />
    <glyph glyph-name="M" unicode="M" horiz-adv-x="1765" vert-adv-y="2457" 
d="M105 0l253 1434h175l356 -854l655 854h190l-253 -1434h-190l194 1103l-633 -810h-15l-349 810l-193 -1103h-190z" />
    <glyph glyph-name="N" unicode="N" horiz-adv-x="1500" vert-adv-y="2457" 
d="M105 0l253 1434h178l555 -1105l194 1105h183l-252 -1434h-158l-570 1133l-199 -1133h-184z" />
    <glyph glyph-name="O" unicode="O" horiz-adv-x="1512" vert-adv-y="2457" 
d="M897 1457q178 0 316 -71q247 -129 247 -487q0 -177 -54 -358q-87 -287 -277 -432q-173 -132 -432 -132q-264 0 -408 121q-85 72 -126 190q-40 115 -40 244q0 173 55 355q171 570 719 570zM883 1295q-314 0 -454 -286q-51 -103 -81 -254q-26 -126 -26 -240
q0 -376 386 -376q307 0 446 281q52 104 83 262q24 123 24 233q0 184 -93 278q-51 52 -126 76q-81 26 -159 26z" />
    <glyph glyph-name="P" unicode="P" horiz-adv-x="1272" vert-adv-y="2457" 
d="M105 0l253 1434h405q287 0 404 -82q130 -91 130 -292q0 -154 -70 -283q-84 -156 -250 -214q-129 -44 -321 -44h-267l-91 -519h-193zM418 683h239q163 0 250 34q98 38 146 137q45 91 45 193q0 128 -88 180q-72 43 -250 43h-239z" />
    <glyph glyph-name="Q" unicode="Q" horiz-adv-x="1512" vert-adv-y="2457" 
d="M1272 -74l-196 154q-156 -103 -382 -103q-261 0 -405 121q-85 72 -126 190q-40 115 -40 243q0 175 54 356q87 290 278 435q179 135 433 135q188 0 325 -71q247 -128 247 -487q0 -258 -106 -488q-57 -123 -149 -224l177 -136zM759 335l107 118l193 -154q92 109 134 228
q68 198 68 384t-93 282q-99 102 -291 102q-308 0 -448 -286q-51 -103 -81 -254q-26 -126 -26 -241q0 -194 104 -289q95 -86 280 -86q116 0 230 58z" />
    <glyph glyph-name="R" unicode="R" horiz-adv-x="1348" vert-adv-y="2457" 
d="M398 568l-100 -568h-193l253 1434h418q288 0 403 -72q134 -85 134 -276q0 -130 -55 -239q-72 -146 -212 -199q-51 -19 -141 -39l282 -609h-210l-252 568h-327zM427 732h278q228 0 316 90q49 50 75 131q18 59 18 117q0 117 -91 164q-68 36 -224 36h-278z" />
    <glyph glyph-name="S" unicode="S" horiz-adv-x="1178" vert-adv-y="2457" 
d="M4 85l65 180q169 -126 402 -126q230 0 331 106q72 75 72 167q0 84 -62 132q-39 30 -87 51q-32 15 -115 50q-205 88 -290 157q-106 85 -106 239q0 187 142 305q133 111 367 111q170 0 308 -58q35 -15 103 -50l-66 -172q-60 44 -104 66q-110 53 -249 53q-151 0 -231 -66
q-76 -63 -76 -164q0 -84 71 -133q43 -29 234 -112q135 -59 184 -89q171 -106 171 -287q0 -104 -47 -202q-128 -266 -553 -266q-292 0 -464 108z" />
    <glyph glyph-name="T" unicode="T" horiz-adv-x="1140" vert-adv-y="2457" 
d="M384 0l224 1270h-455l29 164h1102l-29 -164h-455l-223 -1270h-193z" />
    <glyph glyph-name="U" unicode="U" horiz-adv-x="1441" vert-adv-y="2457" 
d="M345 1434h193l-150 -847q-24 -138 -24 -225q0 -223 290 -223q241 0 335 147q51 81 90 301l149 847h193l-160 -905q-24 -137 -44 -198q-65 -195 -212 -277q-137 -77 -357 -77q-480 0 -480 362q0 88 27 240z" />
    <glyph glyph-name="V" unicode="V" horiz-adv-x="1231" vert-adv-y="2457" 
d="M436 0l-282 1434h201l212 -1174l625 1174h210l-784 -1434h-182z" />
    <glyph glyph-name="W" unicode="W" horiz-adv-x="1911" vert-adv-y="2457" 
d="M353 0l-177 1434h203l119 -1175l539 1175h155l132 -1180l526 1180h208l-682 -1434h-178l-127 1160l-533 -1160h-185z" />
    <glyph glyph-name="X" unicode="X" horiz-adv-x="1295" vert-adv-y="2457" 
d="M571 763l-323 671h218l255 -540l446 540h228l-591 -686l357 -748h-218l-287 608l-528 -608h-228z" />
    <glyph glyph-name="Y" unicode="Y" horiz-adv-x="1156" vert-adv-y="2457" 
d="M393 0l90 512l-339 922h211l254 -733l509 733h220l-662 -922l-91 -512h-192z" />
    <glyph glyph-name="Z" unicode="Z" horiz-adv-x="1173" vert-adv-y="2457" 
d="M-81 0l1027 1270h-711l29 164h1029l-1025 -1270h773l-29 -164h-1093z" />
    <glyph glyph-name="bracketleft" unicode="[" horiz-adv-x="850" vert-adv-y="2457" 
d="M880 1575l-25 -138h-194l-291 -1656h194l-25 -137h-382l340 1931h383z" />
    <glyph glyph-name="backslash" unicode="\" horiz-adv-x="583" vert-adv-y="2457" 
d="M354 0l-226 1434h175l226 -1434h-175z" />
    <glyph glyph-name="bracketright" unicode="]" horiz-adv-x="850" vert-adv-y="2457" 
d="M5 -356l24 137h195l291 1656h-194l24 138h383l-340 -1931h-383z" />
    <glyph glyph-name="asciicircum" unicode="^" vert-adv-y="2457" 
d="M719 1211l-407 -517h-217l620 765h83l350 -765h-201z" />
    <glyph glyph-name="underscore" unicode="_" horiz-adv-x="1024" vert-adv-y="2457" 
d="M-254 -410l23 130h1208l-23 -130h-1208z" />
    <glyph glyph-name="grave" unicode="`" horiz-adv-x="1024" vert-adv-y="2457" 
d="M758 1166h-142l-221 280h237z" />
    <glyph glyph-name="a" unicode="a" horiz-adv-x="1162" vert-adv-y="2457" 
d="M743 112q-49 -48 -77 -68q-99 -67 -248 -67q-356 0 -356 386q0 151 46 291q67 202 210 305q123 88 287 88q124 0 211 -38q29 -13 82 -48l24 63h149l-180 -1024h-151zM847 818q-94 73 -217 73q-200 0 -301 -194q-73 -141 -73 -320q0 -126 47 -184q50 -60 154 -60
q130 0 226 82q68 59 88 170z" />
    <glyph glyph-name="b" unicode="b" horiz-adv-x="1216" vert-adv-y="2457" 
d="M92 0l253 1434h188l-88 -496q61 40 109 62q103 47 219 47q364 0 364 -391q0 -135 -41 -271q-61 -206 -178 -305q-121 -103 -310 -103q-168 0 -269 67q-34 22 -73 75l-38 -119h-136zM416 774l-67 -383q-9 -52 -9 -81q0 -74 71 -126q70 -51 177 -51q124 0 203 72
q75 69 121 232q31 109 31 206q0 129 -50 187q-52 61 -167 61q-154 0 -310 -117z" />
    <glyph glyph-name="c" unicode="c" horiz-adv-x="995" vert-adv-y="2457" 
d="M837 220l2 -172q-158 -71 -333 -71q-210 0 -317 109q-105 106 -105 295q0 139 49 280q73 212 236 312q121 74 285 74q172 0 331 -90l-63 -162q-114 96 -260 96q-200 0 -305 -179q-79 -134 -79 -304q0 -275 269 -275q100 0 192 38q38 15 98 49z" />
    <glyph glyph-name="d" unicode="d" horiz-adv-x="1217" vert-adv-y="2457" 
d="M929 979l80 455h188l-252 -1434h-151l3 112q-51 -48 -82 -68q-104 -67 -261 -67q-375 0 -375 388q0 151 52 297q71 197 220 298q129 87 298 87q119 0 205 -32q28 -10 75 -36zM902 824q-48 30 -70 40q-63 27 -152 27q-220 0 -328 -196q-79 -142 -79 -317q0 -127 52 -185
q55 -60 167 -60q137 0 239 82q74 60 94 170z" />
    <glyph glyph-name="e" unicode="e" horiz-adv-x="1097" vert-adv-y="2457" 
d="M276 431q-4 -44 -4 -70q0 -234 301 -234q106 0 211 36q48 17 124 53l4 -163q-166 -76 -369 -76q-461 0 -461 396q0 135 44 271q64 195 204 302q135 102 344 102q179 0 281 -69q98 -66 98 -200q0 -112 -56 -192q-54 -77 -198 -112q-121 -29 -480 -42zM300 578q48 0 201 10
q249 16 320 63q55 37 55 115q0 132 -208 132q-207 0 -303 -158q-40 -67 -65 -162z" />
    <glyph glyph-name="f" unicode="f" horiz-adv-x="745" vert-adv-y="2457" 
d="M298 868h-196l28 156h196l15 82q31 175 112 259q94 98 271 98q114 0 243 -50l-62 -151q-87 48 -162 48q-105 0 -157 -60q-41 -47 -60 -158l-12 -68h287l-28 -156h-287l-116 -664q-37 -213 -76 -309q-114 -289 -456 -305l27 153q68 7 104 22q109 44 163 218q27 88 50 222z
" />
    <glyph glyph-name="g" unicode="g" horiz-adv-x="1218" vert-adv-y="2457" 
d="M18 -368l62 155q147 -75 318 -75q210 0 293 120q48 69 68 180l16 90q-135 -125 -330 -125q-181 0 -275 95q-92 93 -92 274q0 141 46 287q131 414 518 414q176 0 311 -86l24 63h149l-163 -930q-27 -153 -54 -229q-57 -159 -198 -232q-126 -66 -297 -66q-125 0 -281 33
q-62 13 -115 32zM902 818q-111 73 -249 73q-131 0 -213 -73q-89 -80 -136 -245q-32 -110 -32 -210q0 -232 221 -232q134 0 242 94q75 66 93 173z" />
    <glyph glyph-name="h" unicode="h" horiz-adv-x="1265" vert-adv-y="2457" 
d="M92 0l253 1434h188l-93 -527q208 140 408 140q147 0 223 -69q63 -58 63 -159q0 -65 -21 -184l-112 -635h-188l112 636q13 73 13 124q0 129 -152 129q-113 0 -250 -70q-66 -34 -126 -82l-130 -737h-188z" />
    <glyph glyph-name="i" unicode="i" horiz-adv-x="558" vert-adv-y="2457" 
d="M95 0l180 1024h188l-180 -1024h-188zM419 1418q58 0 93 -35q31 -31 31 -82q0 -60 -41 -91q-33 -27 -86 -27q-61 0 -96 35q-31 31 -31 85q0 57 41 89q33 26 89 26z" />
    <glyph glyph-name="j" unicode="j" horiz-adv-x="577" vert-adv-y="2457" 
d="M294 1024h188l-147 -837q-37 -207 -74 -300q-113 -280 -455 -296l27 153q68 7 104 21q109 45 163 219q26 87 50 222zM437 1418q59 0 94 -35q31 -31 31 -82q0 -60 -41 -91q-33 -27 -86 -27q-61 0 -96 35q-31 31 -31 85q0 57 41 89q33 26 88 26z" />
    <glyph glyph-name="k" unicode="k" horiz-adv-x="1164" vert-adv-y="2457" 
d="M92 0l253 1434h188l-143 -807l530 397h262l-596 -431l460 -593h-226l-437 584l-103 -584h-188z" />
    <glyph glyph-name="l" unicode="l" horiz-adv-x="556" vert-adv-y="2457" 
d="M94 0l253 1434h188l-253 -1434h-188z" />
    <glyph glyph-name="m" unicode="m" horiz-adv-x="1866" vert-adv-y="2457" 
d="M92 0l180 1024h153l-8 -135q61 49 142 91q131 67 260 67q151 0 214 -80q22 -27 37 -82q202 162 407 162q136 0 202 -69q55 -58 55 -153q0 -71 -21 -190l-112 -635h-188l112 636q13 74 13 132q0 121 -123 121q-105 0 -231 -72q-65 -37 -114 -81l-130 -736h-188l112 633
q15 87 15 136q0 120 -125 120q-103 0 -229 -70q-64 -36 -116 -82l-129 -737h-188z" />
    <glyph glyph-name="n" unicode="n" horiz-adv-x="1265" vert-adv-y="2457" 
d="M92 0l180 1024h153l-8 -135q65 50 151 90q143 68 280 68q148 0 223 -69q63 -58 63 -158q0 -65 -21 -185l-112 -635h-188l112 636q13 75 13 124q0 129 -152 129q-113 0 -250 -70q-72 -37 -127 -82l-129 -737h-188z" />
    <glyph glyph-name="o" unicode="o" horiz-adv-x="1208" vert-adv-y="2457" 
d="M670 1047q213 0 333 -105q120 -104 120 -309q0 -161 -60 -317q-130 -339 -516 -339q-204 0 -324 89q-139 102 -139 326q0 161 60 316q131 339 526 339zM658 891q-202 0 -289 -143q-91 -151 -91 -352q0 -136 67 -198q69 -65 209 -65q197 0 284 143q91 150 91 353
q0 262 -271 262z" />
    <glyph glyph-name="p" unicode="p" horiz-adv-x="1216" vert-adv-y="2457" 
d="M299 108l-91 -518h-188l253 1434h146l-3 -111q69 50 123 77q113 57 237 57q361 0 361 -388q0 -126 -40 -264q-63 -215 -185 -313q-132 -105 -311 -105q-136 0 -223 55q-38 24 -79 76zM414 762l-56 -318q-13 -77 -13 -113q0 -80 65 -138q66 -60 172 -60q124 0 205 74
q77 70 123 233q33 113 33 216q0 114 -42 169q-51 66 -166 66q-104 0 -212 -58q-45 -25 -109 -71z" />
    <glyph glyph-name="q" unicode="q" horiz-adv-x="1217" vert-adv-y="2457" 
d="M686 -410l90 512q-136 -125 -330 -125q-181 0 -276 95q-92 93 -92 274q0 141 46 287q131 414 518 414q175 0 311 -86l24 63h150l-253 -1434h-188zM902 818q-111 73 -249 73q-131 0 -213 -73q-89 -80 -136 -245q-32 -110 -32 -210q0 -232 221 -232q135 0 242 94
q75 66 94 173z" />
    <glyph glyph-name="r" unicode="r" horiz-adv-x="858" vert-adv-y="2457" 
d="M92 0l180 1024h157l-12 -160q56 58 90 87q113 96 246 96q102 0 188 -53l-68 -176q-74 63 -160 63q-171 0 -317 -220l-116 -661h-188z" />
    <glyph glyph-name="s" unicode="s" horiz-adv-x="958" vert-adv-y="2457" 
d="M5 54l60 165q126 -97 314 -97q124 0 195 48q64 43 64 121q0 55 -46 88q-30 21 -158 81q-141 65 -203 124q-70 66 -70 169q0 132 101 215q96 79 269 79q188 0 340 -78l-59 -159q-118 92 -277 92q-90 0 -140 -37q-48 -35 -48 -93q0 -50 45 -86q40 -31 159 -85
q143 -66 201 -117q72 -63 72 -169q0 -154 -112 -247q-110 -91 -328 -91q-229 0 -379 77z" />
    <glyph glyph-name="t" unicode="t" horiz-adv-x="803" vert-adv-y="2457" 
d="M300 868h-182l28 156h187l68 284h165l-50 -284h322l-28 -156h-322l-87 -498q-20 -114 -20 -158t24 -62q26 -20 85 -20q80 0 161 37l5 -155q-116 -35 -236 -35q-121 0 -178 42q-55 40 -55 130q0 72 22 195z" />
    <glyph glyph-name="u" unicode="u" horiz-adv-x="1219" vert-adv-y="2457" 
d="M797 119q-170 -142 -368 -142q-148 0 -228 68q-66 56 -66 170q0 74 25 216l105 593h188l-110 -621q-15 -87 -15 -140q0 -128 159 -128q180 0 318 126l134 763h188l-180 -1024h-156z" />
    <glyph glyph-name="v" unicode="v" horiz-adv-x="1077" vert-adv-y="2457" 
d="M357 0l-251 1024h197l175 -813l465 813h207l-615 -1024h-178z" />
    <glyph glyph-name="w" unicode="w" horiz-adv-x="1700" vert-adv-y="2457" 
d="M322 0l-200 1024h191l134 -808l413 808h157l125 -809l416 809h200l-566 -1024h-170l-122 808l-410 -808h-168z" />
    <glyph glyph-name="x" unicode="x" horiz-adv-x="1119" vert-adv-y="2457" 
d="M450 537l-299 487h223l217 -371l335 371h231l-479 -488l328 -536h-223l-246 422l-384 -422h-233z" />
    <glyph glyph-name="y" unicode="y" horiz-adv-x="1075" vert-adv-y="2457" 
d="M358 -4l-253 1028h195l180 -828l462 828h205l-845 -1434h-207z" />
    <glyph glyph-name="z" unicode="z" horiz-adv-x="1015" vert-adv-y="2457" 
d="M-51 0l764 868h-525l27 156h835l-758 -868h580l-28 -156h-895z" />
    <glyph glyph-name="braceleft" unicode="{" horiz-adv-x="850" vert-adv-y="2457" 
d="M406 665q101 -41 101 -148q0 -37 -24 -171l-52 -298q-17 -96 -17 -156q0 -72 50 -99q41 -23 133 -23h45l-22 -124h-103q-157 0 -219 45q-73 54 -73 172q0 57 31 232l47 265q21 138 21 163q0 52 -52 79q-35 18 -91 18h-26l18 101h26q91 0 143 45q26 23 36 53t34 162
l37 205q26 151 50 210q45 116 160 154q74 25 199 25h102l-22 -124h-45q-135 0 -187 -55q-34 -37 -55 -120q-11 -44 -22 -103l-33 -189q-26 -148 -41 -183q-40 -97 -149 -136z" />
    <glyph glyph-name="bar" unicode="|" horiz-adv-x="1024" vert-adv-y="2457" 
d="M422 -417v1851h180v-1851h-180z" />
    <glyph glyph-name="braceright" unicode="}" horiz-adv-x="850" vert-adv-y="2457" 
d="M500 676q-102 44 -102 147q0 30 25 172l32 178q15 88 15 157q0 71 -49 98q-41 23 -132 23h-46l22 124h103q156 0 218 -45q73 -54 73 -167q0 -70 -30 -237l-25 -145q-23 -138 -23 -162q0 -53 55 -81q34 -17 90 -17h25l-17 -101h-26q-91 0 -143 -45q-32 -28 -49 -98
q-3 -15 -22 -117l-57 -325q-27 -152 -50 -210q-47 -116 -161 -154q-74 -25 -198 -25h-103l22 124h45q136 0 187 55q35 37 55 120q12 48 22 103l55 309q26 148 40 184q41 96 149 135z" />
    <glyph glyph-name="asciitilde" unicode="~" vert-adv-y="2457" 
d="M289 574l-131 25q41 116 89 181q85 117 216 117q78 0 139 -41q22 -14 77 -65q75 -68 133 -68q66 0 115 72q18 29 43 87l127 -31q-45 -113 -87 -168q-90 -120 -217 -120q-72 0 -134 40q-29 19 -80 65q-47 42 -72 55q-30 14 -62 14q-64 0 -111 -70q-18 -26 -45 -93z" />
    <glyph glyph-name="uni00A0" unicode="&#xa0;" horiz-adv-x="590" vert-adv-y="2457" 
 />
    <glyph glyph-name="exclamdown" unicode="&#xa1;" horiz-adv-x="720" vert-adv-y="2457" 
d="M458 612l-153 -1022h-213l207 1022h159zM434 1049q59 0 101 -44q36 -38 36 -90q0 -60 -47 -99q-40 -34 -92 -34q-61 0 -104 44q-35 37 -35 91q0 58 46 98q40 34 95 34z" />
    <glyph glyph-name="cent" unicode="&#xa2;" vert-adv-y="2457" 
d="M576 218q-369 40 -369 400q0 184 81 355q140 293 476 312l33 191h118l-34 -194q112 -11 242 -84l-63 -165q-95 81 -207 94l-132 -754q69 5 126 24q50 17 127 61l3 -168q-136 -64 -284 -74l-50 -285h-118zM604 378l131 747q-118 -17 -191 -93q-81 -84 -118 -212
q-25 -87 -25 -171q0 -237 203 -271z" />
    <glyph glyph-name="sterling" unicode="&#xa3;" vert-adv-y="2457" 
d="M31 0l28 156h183l87 498h-183l27 153h185l39 223q20 114 49 177q116 250 430 250q211 0 371 -109l-62 -168q-122 119 -298 119q-157 0 -237 -109q-34 -47 -53 -107q-11 -37 -25 -117l-28 -159h284l-28 -153h-283l-88 -498h625l-28 -156h-995z" />
    <glyph glyph-name="currency" unicode="&#xa4;" horiz-adv-x="1185" vert-adv-y="2457" 
d="M180 129l-99 100l183 187q-87 124 -87 265q0 140 87 265l-183 187l99 99l180 -187q126 83 264 83q104 0 192 -43q28 -14 69 -40l180 187l99 -99l-182 -187q86 -123 86 -265q0 -140 -86 -265l182 -187l-99 -100l-180 187q-127 -80 -263 -80q-133 0 -262 80zM626 989
q-135 0 -214 -94q-69 -83 -69 -214q0 -130 69 -212q79 -94 210 -94t209 94q70 83 70 213q0 131 -70 213q-79 94 -205 94z" />
    <glyph glyph-name="yen" unicode="&#xa5;" vert-adv-y="2457" 
d="M397 0l50 285h-373l21 119h373l20 110l-16 44h-350l21 119h283l-278 757h211l254 -731l509 731h220l-542 -757h281l-21 -119h-349l-31 -44l-19 -110h371l-21 -119h-371l-51 -285h-192z" />
    <glyph glyph-name="brokenbar" unicode="&#xa6;" horiz-adv-x="1024" vert-adv-y="2457" 
d="M485 870l100 564h178l-100 -564h-178zM332 0l93 529h179l-94 -529h-178z" />
    <glyph glyph-name="section" unicode="&#xa7;" vert-adv-y="2457" 
d="M77 -143l64 162q127 -89 303 -89q141 0 214 62q66 56 66 146q0 70 -56 105q-34 21 -74 34l-120 37q-136 42 -201 96q-77 64 -77 186q0 129 90 224q45 46 132 91q-79 77 -79 188q0 157 104 256q107 103 313 103q160 0 317 -74l-60 -158q-108 81 -258 81q-106 0 -165 -51
q-61 -52 -61 -137q0 -68 51 -102q33 -22 76 -36l96 -33q154 -51 214 -103q76 -66 76 -184q0 -121 -75 -213q-43 -53 -133 -101q75 -75 75 -188q0 -137 -90 -243q-118 -137 -376 -137q-215 0 -366 78zM729 415q64 35 93 74q43 57 43 142q0 63 -53 96q-34 21 -149 62l-148 53
q-71 -43 -94 -74q-48 -62 -48 -139q0 -64 49 -97q36 -25 156 -66z" />
    <glyph glyph-name="dieresis" unicode="&#xa8;" horiz-adv-x="1024" vert-adv-y="2457" 
d="M461 1419q56 0 89 -35q29 -30 29 -80q0 -58 -38 -89q-33 -26 -82 -26q-59 0 -92 35q-29 30 -29 81q0 57 38 88q32 26 85 26zM848 1419q56 0 89 -35q29 -30 29 -80q0 -58 -38 -89q-33 -26 -82 -26q-59 0 -92 35q-29 30 -29 81q0 57 38 88q32 26 85 26z" />
    <glyph glyph-name="copyright" unicode="&#xa9;" horiz-adv-x="1762" vert-adv-y="2457" 
d="M1151 519l42 -116q-96 -64 -235 -64q-188 0 -281 107q-83 95 -83 265q0 216 122 321q94 81 245 81q125 0 223 -52l-35 -121q-95 57 -178 57q-103 0 -157 -75q-56 -77 -56 -201q0 -119 49 -190q53 -76 167 -76q97 0 177 64zM929 1491q326 0 547 -219q221 -220 221 -550
q0 -329 -221 -550q-220 -219 -557 -219q-338 0 -558 219q-221 221 -221 548q0 232 115 419q107 173 293 268q164 84 381 84zM928 1389q-306 0 -495 -202q-175 -186 -175 -467q0 -276 175 -463q188 -202 486 -202q297 0 485 202q175 188 175 465q0 283 -175 465
q-193 202 -476 202z" />
    <glyph glyph-name="ordfeminine" unicode="&#xaa;" horiz-adv-x="807" vert-adv-y="2457" 
d="M641 1213l3 17q1 7 1 34q0 82 -105 82q-96 0 -210 -61l-21 99q126 65 257 65q219 0 219 -148q0 -30 -15 -113l-63 -359h-107v71q-93 -87 -217 -87q-187 0 -187 163q0 96 66 155q68 62 245 76q39 3 134 6zM626 1130q-129 -6 -186 -26q-96 -33 -96 -121q0 -67 90 -67
q66 0 122 40q46 33 54 79z" />
    <glyph glyph-name="guillemotleft" unicode="&#xab;" horiz-adv-x="964" vert-adv-y="2457" 
d="M711 609l165 -308l-93 -59l-300 360l6 39l428 360l69 -80zM306 609l165 -308l-93 -59l-301 360l7 39l428 360l69 -80z" />
    <glyph glyph-name="logicalnot" unicode="&#xac;" vert-adv-y="2457" 
d="M153 654l27 150h889l-103 -586h-183l77 436h-707z" />
    <glyph glyph-name="uni00AD" unicode="&#xad;" horiz-adv-x="753" vert-adv-y="2457" 
d="M91 540l30 166h581l-30 -166h-581z" />
    <glyph glyph-name="registered" unicode="&#xae;" horiz-adv-x="1316" vert-adv-y="2457" 
d="M568 717v567h187q115 0 164 -34q62 -43 62 -131q0 -126 -115 -159q19 -19 45 -66l101 -177h-122l-74 141q-36 66 -45 73q-13 12 -38 12h-54v-226h-111zM679 1021h73q117 0 117 91q0 48 -31 70q-27 18 -92 18h-67v-179zM752 1568q232 0 395 -152q174 -162 174 -416
q0 -252 -174 -415q-163 -152 -402 -152q-240 0 -403 152q-174 163 -174 414q0 258 174 417q167 152 410 152zM751 1475q-212 0 -344 -134q-64 -65 -100 -160q-32 -87 -32 -182q0 -133 64 -248q66 -117 186 -176q99 -49 220 -49q206 0 337 133q64 67 100 161q32 87 32 181
q0 134 -64 249t-186 176q-99 49 -213 49z" />
    <glyph glyph-name="macron" unicode="&#xaf;" horiz-adv-x="1024" vert-adv-y="2457" 
d="M342 1231l26 144h593l-25 -144h-594z" />
    <glyph glyph-name="degree" unicode="&#xb0;" horiz-adv-x="607" vert-adv-y="2457" 
d="M437 1479q103 0 169 -63q67 -63 67 -170t-67 -171q-65 -63 -173 -63q-107 0 -172 63q-67 64 -67 170q0 109 67 171q67 63 176 63zM436 1379q-63 0 -99 -35q-36 -36 -36 -99q0 -62 36 -99q36 -35 97 -35q60 0 95 35q37 37 37 99q0 63 -37 99q-36 35 -93 35z" />
    <glyph glyph-name="plusminus" unicode="&#xb1;" vert-adv-y="2457" 
d="M30 0l26 147h940l-26 -147h-940zM150 682l27 147h388l69 391h163l-69 -391h389l-27 -147h-388l-69 -390h-163l69 390h-389z" />
    <glyph glyph-name="twosuperior" unicode="&#xb2;" horiz-adv-x="807" vert-adv-y="2457" 
d="M133 758l20 113l329 293q189 170 189 264q0 101 -136 101q-97 0 -226 -79l-5 131q126 68 254 68q132 0 206 -53q71 -50 71 -152q0 -100 -70 -194q-45 -61 -178 -175l-234 -200h397l-21 -117h-596z" />
    <glyph glyph-name="threesuperior" unicode="&#xb3;" horiz-adv-x="807" vert-adv-y="2457" 
d="M125 808l51 127q105 -74 222 -74q132 0 194 81q40 52 40 118q0 73 -51 105q-47 30 -159 30h-92l307 324h-343l21 118h594l-321 -341q93 -17 134 -51q69 -57 69 -168q0 -155 -98 -244t-285 -89q-161 0 -283 64z" />
    <glyph glyph-name="acute" unicode="&#xb4;" horiz-adv-x="1024" vert-adv-y="2457" 
d="M528 1166l210 280h252l-313 -280h-149z" />
    <glyph glyph-name="mu" unicode="&#xb5;" vert-adv-y="2457" 
d="M7 -410l253 1434h183l-116 -659q-14 -81 -14 -119q0 -115 137 -115q174 0 332 140l133 753h183l-180 -1024h-167l12 122q-152 -142 -338 -142q-100 0 -159 42l-76 -432h-183z" />
    <glyph glyph-name="paragraph" unicode="&#xb6;" horiz-adv-x="1403" vert-adv-y="2457" 
d="M414 -410l192 1091h-67q-91 0 -132 8q-215 40 -215 302q0 145 69 259q81 134 220 165q86 19 293 19h489l-325 -1844h-168l299 1694h-190l-298 -1694h-167z" />
    <glyph glyph-name="periodcentered" unicode="&#xb7;" horiz-adv-x="590" vert-adv-y="2457" 
d="M317 752q58 0 100 -44q36 -37 36 -89q0 -61 -46 -100q-40 -34 -93 -34q-61 0 -103 44q-36 37 -36 91q0 58 47 98q40 34 95 34z" />
    <glyph glyph-name="cedilla" unicode="&#xb8;" horiz-adv-x="1024" vert-adv-y="2457" 
d="M366 0h131l-75 -94q78 -5 126 -20q86 -26 86 -103q0 -92 -82 -144q-71 -45 -196 -45q-127 0 -213 40l53 94q74 -28 149 -28q63 0 96 24q27 20 27 50q0 33 -52 44q-49 10 -147 11l-10 40z" />
    <glyph glyph-name="onesuperior" unicode="&#xb9;" horiz-adv-x="807" vert-adv-y="2457" 
d="M412 759l130 741l-219 -67l22 124l259 87h115l-156 -885h-151z" />
    <glyph glyph-name="ordmasculine" unicode="&#xba;" horiz-adv-x="807" vert-adv-y="2457" 
d="M558 1449q122 0 189 -63q69 -64 69 -188q0 -162 -86 -270q-91 -115 -259 -115q-122 0 -188 61q-73 67 -73 189q0 84 29 167q77 219 319 219zM552 1343q-108 0 -158 -110q-36 -80 -36 -176q0 -138 119 -138q104 0 155 110q36 79 36 178q0 136 -116 136z" />
    <glyph glyph-name="guillemotright" unicode="&#xbb;" horiz-adv-x="964" vert-adv-y="2457" 
d="M292 634l-165 308l93 59l301 -360l-8 -39l-427 -360l-69 80zM697 634l-165 308l93 59l301 -360l-7 -39l-428 -360l-68 80z" />
    <glyph glyph-name="onequarter" unicode="&#xbc;" horiz-adv-x="1872" vert-adv-y="2457" 
d="M387 554l131 741l-219 -67l22 124l259 87h115l-157 -885h-151zM296 0l998 1434h157l-998 -1434h-157zM1337 220h-425l18 97l518 561h153l-96 -542h143l-21 -116h-143l-38 -220h-148zM1357 336l62 352l-319 -352h257z" />
    <glyph glyph-name="onehalf" unicode="&#xbd;" horiz-adv-x="1872" vert-adv-y="2457" 
d="M344 554l131 741l-219 -67l22 124l259 87h114l-156 -885h-151zM242 0l998 1434h157l-998 -1434h-157zM931 0l20 113l329 294q190 170 190 263q0 43 -28 68q-37 33 -109 33q-96 0 -226 -79l-5 131q126 68 254 68q132 0 207 -53q71 -50 71 -152q0 -100 -70 -194
q-45 -60 -178 -174l-235 -201h398l-21 -117h-597z" />
    <glyph glyph-name="threequarters" unicode="&#xbe;" horiz-adv-x="1872" vert-adv-y="2457" 
d="M147 604l51 127q105 -74 222 -74q133 0 194 81q40 53 40 118q0 73 -51 105q-47 30 -159 30h-92l306 323h-342l21 118h594l-321 -340q94 -18 134 -51q69 -57 69 -168q0 -155 -98 -244t-286 -89q-162 0 -282 64zM413 0l999 1434h157l-998 -1434h-158zM1400 220h-424l17 97
l519 561h152l-95 -542h143l-21 -116h-143l-38 -220h-148zM1421 336l62 352l-319 -352h257z" />
    <glyph glyph-name="questiondown" unicode="&#xbf;" horiz-adv-x="954" vert-adv-y="2457" 
d="M451 614h174l-7 -41q-23 -126 -65 -186q-41 -58 -183 -182q-92 -82 -119 -112q-84 -98 -84 -201q0 -169 185 -169q173 0 370 125l2 -172q-196 -109 -397 -109q-186 0 -278 89q-78 75 -78 211q0 134 76 243q48 68 209 210q124 108 150 148t40 120zM581 1049q59 0 101 -44
q36 -37 36 -90q0 -60 -46 -99q-41 -34 -93 -34q-61 0 -103 44q-35 37 -35 91q0 59 46 98q40 34 94 34z" />
    <glyph glyph-name="Agrave" unicode="&#xc0;" horiz-adv-x="1372" vert-adv-y="2457" 
d="M1002 387h-678l-223 -387h-214l854 1434h196l355 -1434h-203zM966 543l-153 696l-398 -696h551zM958 1563h-142l-221 282h237z" />
    <glyph glyph-name="Aacute" unicode="&#xc1;" horiz-adv-x="1372" vert-adv-y="2457" 
d="M1002 387h-678l-223 -387h-214l854 1434h196l355 -1434h-203zM966 543l-153 696l-398 -696h551zM772 1563l210 282h253l-314 -282h-149z" />
    <glyph glyph-name="Acircumflex" unicode="&#xc2;" horiz-adv-x="1372" vert-adv-y="2457" 
d="M1002 387h-678l-223 -387h-214l854 1434h196l355 -1434h-203zM966 543l-153 696l-398 -696h551zM883 1727l-216 -164h-193l312 282h218l212 -282h-176z" />
    <glyph glyph-name="Atilde" unicode="&#xc3;" horiz-adv-x="1372" vert-adv-y="2457" 
d="M1002 387h-678l-223 -387h-214l854 1434h196l355 -1434h-203zM966 543l-153 696l-398 -696h551zM1131 1838h128q-33 -109 -68 -167q-74 -122 -192 -122q-73 0 -125 48q-21 19 -68 79q-25 31 -59 31q-75 0 -123 -141h-128q37 114 80 178q74 110 188 110q87 0 159 -91
q37 -46 48 -55q19 -14 43 -14q71 0 117 144z" />
    <glyph glyph-name="Adieresis" unicode="&#xc4;" horiz-adv-x="1372" vert-adv-y="2457" 
d="M1002 387h-678l-223 -387h-214l854 1434h196l355 -1434h-203zM966 543l-153 696l-398 -696h551zM663 1818q56 0 90 -35q29 -31 29 -81q0 -59 -39 -90q-33 -27 -83 -27q-59 0 -93 35q-29 31 -29 82q0 58 39 90q32 26 86 26zM1092 1818q57 0 91 -35q29 -31 29 -81
q0 -59 -39 -90q-33 -27 -83 -27q-59 0 -93 35q-29 31 -29 82q0 58 39 90q32 26 85 26z" />
    <glyph glyph-name="Aring" unicode="&#xc5;" horiz-adv-x="1372" vert-adv-y="2457" 
d="M1002 387h-678l-223 -387h-214l854 1434h196l355 -1434h-203zM966 543l-153 696l-398 -696h551zM873 1955q99 0 160 -61q56 -56 56 -148q0 -90 -56 -146q-61 -61 -163 -61t-162 61q-57 56 -57 146q0 93 57 148q62 61 165 61zM872 1860q-57 0 -85 -35q-24 -30 -24 -78
t24 -78q28 -35 83 -35q54 0 83 35q24 30 24 78q0 49 -24 78q-30 35 -81 35z" />
    <glyph glyph-name="AE" unicode="&#xc6;" horiz-adv-x="1906" vert-adv-y="2457" 
d="M867 417h-521l-301 -417h-220l1075 1434h1061l-30 -164h-721l-77 -441h646l-29 -164h-646l-88 -501h734l-30 -164h-926zM897 581l121 689h-44l-503 -689h426z" />
    <glyph glyph-name="Ccedilla" unicode="&#xc7;" horiz-adv-x="1238" vert-adv-y="2457" 
d="M1106 261v-183q-195 -101 -433 -101l-58 -71q79 -5 126 -20q87 -27 87 -103q0 -93 -82 -144q-72 -45 -196 -45q-127 0 -213 40l53 94q74 -28 149 -28q63 0 96 24q27 20 27 50q0 33 -52 44q-48 10 -148 11l-10 40l98 119q-125 20 -209 71q-100 60 -154 168
q-64 127 -64 299q0 193 66 388q101 298 315 435q169 108 400 108q227 0 408 -111l-64 -171q-56 45 -100 68q-102 52 -241 52q-310 0 -463 -270q-62 -109 -95 -254q-27 -118 -27 -231q0 -401 394 -401q145 0 266 53q53 23 124 69z" />
    <glyph glyph-name="Egrave" unicode="&#xc8;" horiz-adv-x="1233" vert-adv-y="2457" 
d="M105 0l253 1434h929l-29 -164h-737l-77 -441h660l-29 -164h-661l-87 -501h749l-29 -164h-942zM958 1563h-142l-221 282h237z" />
    <glyph glyph-name="Eacute" unicode="&#xc9;" horiz-adv-x="1233" vert-adv-y="2457" 
d="M105 0l253 1434h929l-29 -164h-737l-77 -441h660l-29 -164h-661l-87 -501h749l-29 -164h-942zM715 1563l210 282h253l-314 -282h-149z" />
    <glyph glyph-name="Ecircumflex" unicode="&#xca;" horiz-adv-x="1233" vert-adv-y="2457" 
d="M105 0l253 1434h929l-29 -164h-737l-77 -441h660l-29 -164h-661l-87 -501h749l-29 -164h-942zM848 1727l-216 -164h-193l312 282h218l212 -282h-176z" />
    <glyph glyph-name="Edieresis" unicode="&#xcb;" horiz-adv-x="1233" vert-adv-y="2457" 
d="M105 0l253 1434h929l-29 -164h-737l-77 -441h660l-29 -164h-661l-87 -501h749l-29 -164h-942zM639 1818q56 0 90 -35q29 -31 29 -81q0 -59 -39 -90q-33 -27 -83 -27q-59 0 -93 35q-29 31 -29 82q0 58 39 90q32 26 86 26zM1068 1818q57 0 91 -35q29 -31 29 -81
q0 -59 -39 -90q-33 -27 -83 -27q-59 0 -93 35q-29 31 -29 82q0 58 39 90q32 26 85 26z" />
    <glyph glyph-name="Igrave" unicode="&#xcc;" horiz-adv-x="597" vert-adv-y="2457" 
d="M112 0l253 1434h192l-252 -1434h-193zM577 1563h-142l-221 282h237z" />
    <glyph glyph-name="Iacute" unicode="&#xcd;" horiz-adv-x="597" vert-adv-y="2457" 
d="M112 0l253 1434h192l-252 -1434h-193zM392 1563l210 282h253l-314 -282h-149z" />
    <glyph glyph-name="Icircumflex" unicode="&#xce;" horiz-adv-x="597" vert-adv-y="2457" 
d="M104 0l253 1434h192l-252 -1434h-193zM496 1727l-216 -164h-193l312 282h218l212 -282h-176z" />
    <glyph glyph-name="Idieresis" unicode="&#xcf;" horiz-adv-x="597" vert-adv-y="2457" 
d="M104 0l253 1434h192l-252 -1434h-193zM275 1818q56 0 90 -35q29 -31 29 -81q0 -59 -39 -90q-33 -27 -83 -27q-59 0 -93 35q-29 31 -29 82q0 58 39 90q32 26 86 26zM704 1818q57 0 91 -35q29 -31 29 -81q0 -59 -39 -90q-33 -27 -83 -27q-59 0 -93 35q-29 31 -29 82
q0 58 39 90q32 26 85 26z" />
    <glyph glyph-name="Eth" unicode="&#xd0;" horiz-adv-x="1434" vert-adv-y="2457" 
d="M223 673h-160l28 156h160l107 605h409q193 0 316 -40q300 -98 300 -501q0 -255 -112 -489q-116 -240 -329 -337q-147 -67 -383 -67h-454zM416 673l-89 -509h224q301 0 456 179q90 103 140 283q37 132 37 258q0 236 -129 321q-75 49 -201 61q-49 4 -141 4h-192l-77 -441
h401l-28 -156h-401z" />
    <glyph glyph-name="Ntilde" unicode="&#xd1;" horiz-adv-x="1500" vert-adv-y="2457" 
d="M105 0l253 1434h178l555 -1105l194 1105h183l-252 -1434h-158l-570 1133l-199 -1133h-184zM1211 1838h128q-33 -109 -68 -167q-74 -122 -192 -122q-73 0 -125 48q-21 19 -68 79q-25 31 -59 31q-75 0 -123 -141h-128q37 114 80 178q74 110 188 110q87 0 159 -91
q37 -46 48 -55q19 -14 43 -14q71 0 117 144z" />
    <glyph glyph-name="Ograve" unicode="&#xd2;" horiz-adv-x="1512" vert-adv-y="2457" 
d="M897 1457q178 0 316 -71q247 -129 247 -487q0 -177 -54 -358q-87 -287 -277 -432q-173 -132 -432 -132q-264 0 -408 121q-85 72 -126 190q-40 115 -40 244q0 173 55 355q171 570 719 570zM883 1295q-314 0 -454 -286q-51 -103 -81 -254q-26 -126 -26 -240
q0 -376 386 -376q307 0 446 281q52 104 83 262q24 123 24 233q0 184 -93 278q-51 52 -126 76q-81 26 -159 26zM1073 1563h-142l-221 282h237z" />
    <glyph glyph-name="Oacute" unicode="&#xd3;" horiz-adv-x="1512" vert-adv-y="2457" 
d="M897 1457q178 0 316 -71q247 -129 247 -487q0 -177 -54 -358q-87 -287 -277 -432q-173 -132 -432 -132q-264 0 -408 121q-85 72 -126 190q-40 115 -40 244q0 173 55 355q171 570 719 570zM883 1295q-314 0 -454 -286q-51 -103 -81 -254q-26 -126 -26 -240
q0 -376 386 -376q307 0 446 281q52 104 83 262q24 123 24 233q0 184 -93 278q-51 52 -126 76q-81 26 -159 26zM842 1563l210 282h253l-314 -282h-149z" />
    <glyph glyph-name="Ocircumflex" unicode="&#xd4;" horiz-adv-x="1512" vert-adv-y="2457" 
d="M897 1457q178 0 316 -71q247 -129 247 -487q0 -177 -54 -358q-87 -287 -277 -432q-173 -132 -432 -132q-264 0 -408 121q-85 72 -126 190q-40 115 -40 244q0 173 55 355q171 570 719 570zM883 1295q-314 0 -454 -286q-51 -103 -81 -254q-26 -126 -26 -240
q0 -376 386 -376q307 0 446 281q52 104 83 262q24 123 24 233q0 184 -93 278q-51 52 -126 76q-81 26 -159 26zM970 1727l-216 -164h-193l312 282h218l212 -282h-176z" />
    <glyph glyph-name="Otilde" unicode="&#xd5;" horiz-adv-x="1512" vert-adv-y="2457" 
d="M897 1457q178 0 316 -71q247 -129 247 -487q0 -177 -54 -358q-87 -287 -277 -432q-173 -132 -432 -132q-264 0 -408 121q-85 72 -126 190q-40 115 -40 244q0 173 55 355q171 570 719 570zM883 1295q-314 0 -454 -286q-51 -103 -81 -254q-26 -126 -26 -240
q0 -376 386 -376q307 0 446 281q52 104 83 262q24 123 24 233q0 184 -93 278q-51 52 -126 76q-81 26 -159 26zM1214 1838h128q-33 -109 -68 -167q-74 -122 -192 -122q-73 0 -125 48q-21 19 -68 79q-25 31 -59 31q-75 0 -123 -141h-128q37 114 80 178q74 110 188 110
q87 0 159 -91q37 -46 48 -55q19 -14 43 -14q71 0 117 144z" />
    <glyph glyph-name="Odieresis" unicode="&#xd6;" horiz-adv-x="1512" vert-adv-y="2457" 
d="M897 1457q178 0 316 -71q247 -129 247 -487q0 -177 -54 -358q-87 -287 -277 -432q-173 -132 -432 -132q-264 0 -408 121q-85 72 -126 190q-40 115 -40 244q0 173 55 355q171 570 719 570zM883 1295q-314 0 -454 -286q-51 -103 -81 -254q-26 -126 -26 -240
q0 -376 386 -376q307 0 446 281q52 104 83 262q24 123 24 233q0 184 -93 278q-51 52 -126 76q-81 26 -159 26zM754 1818q56 0 90 -35q29 -31 29 -81q0 -59 -39 -90q-33 -27 -83 -27q-59 0 -93 35q-29 31 -29 82q0 58 39 90q32 26 86 26zM1183 1818q57 0 91 -35
q29 -31 29 -81q0 -59 -39 -90q-33 -27 -83 -27q-59 0 -93 35q-29 31 -29 82q0 58 39 90q32 26 85 26z" />
    <glyph glyph-name="multiply" unicode="&#xd7;" vert-adv-y="2457" 
d="M512 728l-275 273l118 113l275 -273l274 273l116 -111l-275 -273l275 -273l-118 -113l-274 273l-275 -273l-116 111z" />
    <glyph glyph-name="Oslash" unicode="&#xd8;" horiz-adv-x="1512" vert-adv-y="2457" 
d="M200 206q-77 135 -77 335q0 164 54 346q87 290 279 435q178 135 430 135q268 0 422 -137l138 140l86 -85l-148 -150q76 -138 76 -333q0 -169 -54 -351q-87 -287 -277 -432q-174 -132 -431 -132q-271 0 -421 132l-135 -137l-90 85zM347 353l828 833q-107 109 -298 109
q-308 0 -448 -286q-50 -101 -81 -254q-26 -128 -26 -241q0 -79 25 -161zM1237 1077l-827 -835q99 -103 299 -103q306 0 445 281q52 105 83 262q24 123 24 233q0 81 -24 162z" />
    <glyph glyph-name="Ugrave" unicode="&#xd9;" horiz-adv-x="1441" vert-adv-y="2457" 
d="M345 1434h193l-150 -847q-24 -138 -24 -225q0 -223 290 -223q241 0 335 147q51 81 90 301l149 847h193l-160 -905q-24 -137 -44 -198q-65 -195 -212 -277q-137 -77 -357 -77q-480 0 -480 362q0 88 27 240zM1038 1563h-142l-221 282h237z" />
    <glyph glyph-name="Uacute" unicode="&#xda;" horiz-adv-x="1441" vert-adv-y="2457" 
d="M345 1434h193l-150 -847q-24 -138 -24 -225q0 -223 290 -223q241 0 335 147q51 81 90 301l149 847h193l-160 -905q-24 -137 -44 -198q-65 -195 -212 -277q-137 -77 -357 -77q-480 0 -480 362q0 88 27 240zM787 1563l210 282h253l-314 -282h-149z" />
    <glyph glyph-name="Ucircumflex" unicode="&#xdb;" horiz-adv-x="1441" vert-adv-y="2457" 
d="M345 1434h193l-150 -847q-24 -138 -24 -225q0 -223 290 -223q241 0 335 147q51 81 90 301l149 847h193l-160 -905q-24 -137 -44 -198q-65 -195 -212 -277q-137 -77 -357 -77q-480 0 -480 362q0 88 27 240zM936 1727l-216 -164h-193l312 282h218l212 -282h-176z" />
    <glyph glyph-name="Udieresis" unicode="&#xdc;" horiz-adv-x="1441" vert-adv-y="2457" 
d="M345 1434h193l-150 -847q-24 -138 -24 -225q0 -223 290 -223q241 0 335 147q51 81 90 301l149 847h193l-160 -905q-24 -137 -44 -198q-65 -195 -212 -277q-137 -77 -357 -77q-480 0 -480 362q0 88 27 240zM754 1818q56 0 90 -35q29 -31 29 -81q0 -59 -39 -90
q-33 -27 -83 -27q-59 0 -93 35q-29 31 -29 82q0 58 39 90q32 26 86 26zM1183 1818q57 0 91 -35q29 -31 29 -81q0 -59 -39 -90q-33 -27 -83 -27q-59 0 -93 35q-29 31 -29 82q0 58 39 90q32 26 85 26z" />
    <glyph glyph-name="Yacute" unicode="&#xdd;" horiz-adv-x="1156" vert-adv-y="2457" 
d="M393 0l90 512l-339 922h211l254 -733l509 733h220l-662 -922l-91 -512h-192zM647 1563l210 282h253l-314 -282h-149z" />
    <glyph glyph-name="Thorn" unicode="&#xde;" horiz-adv-x="1267" vert-adv-y="2457" 
d="M350 299l-52 -299h-193l253 1434h192l-39 -225h212q289 0 405 -82q130 -91 130 -292q0 -153 -69 -281q-85 -155 -250 -211q-130 -44 -322 -44h-267zM379 463h239q163 0 250 33q97 38 146 135q45 89 45 190q0 129 -88 182q-72 42 -251 42h-238z" />
    <glyph glyph-name="germandbls" unicode="&#xdf;" horiz-adv-x="1276" vert-adv-y="2457" 
d="M-216 -409l27 153q68 7 104 21q109 45 163 219q27 87 50 222l125 712q23 128 35 177t33 94q125 268 467 268q197 0 301 -82q93 -72 93 -203q0 -100 -53 -168q-39 -49 -162 -120q-69 -40 -91 -65q-31 -32 -31 -68t33 -70q22 -23 111 -78q99 -62 140 -120q44 -63 44 -151
q0 -154 -96 -251q-102 -104 -325 -104q-143 0 -274 46l60 165q106 -59 244 -59q111 0 162 61q43 52 43 121q0 44 -27 76q-21 24 -92 68q-110 69 -151 115q-47 54 -47 133q0 72 35 126q32 48 142 117q92 59 119 100q28 43 28 102q0 156 -211 156q-202 0 -277 -154
q-37 -78 -72 -273l-118 -673q-38 -213 -76 -309q-114 -289 -456 -304z" />
    <glyph glyph-name="agrave" unicode="&#xe0;" horiz-adv-x="1162" vert-adv-y="2457" 
d="M743 112q-49 -48 -77 -68q-99 -67 -248 -67q-356 0 -356 386q0 151 46 291q67 202 210 305q123 88 287 88q124 0 211 -38q29 -13 82 -48l24 63h149l-180 -1024h-151zM847 818q-94 73 -217 73q-200 0 -301 -194q-73 -141 -73 -320q0 -126 47 -184q50 -60 154 -60
q130 0 226 82q68 59 88 170zM836 1166h-142l-221 280h237z" />
    <glyph glyph-name="aacute" unicode="&#xe1;" horiz-adv-x="1162" vert-adv-y="2457" 
d="M743 112q-49 -48 -77 -68q-99 -67 -248 -67q-356 0 -356 386q0 151 46 291q67 202 210 305q123 88 287 88q124 0 211 -38q29 -13 82 -48l24 63h149l-180 -1024h-151zM847 818q-94 73 -217 73q-200 0 -301 -194q-73 -141 -73 -320q0 -126 47 -184q50 -60 154 -60
q130 0 226 82q68 59 88 170zM569 1166l210 280h252l-313 -280h-149z" />
    <glyph glyph-name="acircumflex" unicode="&#xe2;" horiz-adv-x="1162" vert-adv-y="2457" 
d="M743 112q-49 -48 -77 -68q-99 -67 -248 -67q-356 0 -356 386q0 151 46 291q67 202 210 305q123 88 287 88q124 0 211 -38q29 -13 82 -48l24 63h149l-180 -1024h-151zM847 818q-94 73 -217 73q-200 0 -301 -194q-73 -141 -73 -320q0 -126 47 -184q50 -60 154 -60
q130 0 226 82q68 59 88 170zM727 1328l-216 -164h-193l312 282h217l213 -282h-176z" />
    <glyph glyph-name="atilde" unicode="&#xe3;" horiz-adv-x="1163" vert-adv-y="2457" 
d="M743 112q-49 -48 -77 -68q-99 -67 -248 -67q-356 0 -356 386q0 151 46 291q67 202 210 305q123 88 287 88q124 0 211 -38q29 -13 82 -48l24 63h149l-180 -1024h-151zM847 818q-94 73 -217 73q-200 0 -301 -194q-73 -141 -73 -320q0 -126 47 -184q50 -60 154 -60
q130 0 226 82q68 59 88 170zM975 1441h128q-33 -109 -68 -168q-73 -123 -192 -123q-93 0 -165 92q-35 45 -45 53q-17 15 -42 15q-75 0 -123 -143h-128q36 114 80 180q73 110 188 110q55 0 96 -28q30 -21 64 -64q36 -46 47 -55q19 -15 43 -15q47 0 80 57q18 30 37 89z" />
    <glyph glyph-name="adieresis" unicode="&#xe4;" horiz-adv-x="1162" vert-adv-y="2457" 
d="M743 112q-49 -48 -77 -68q-99 -67 -248 -67q-356 0 -356 386q0 151 46 291q67 202 210 305q123 88 287 88q124 0 211 -38q29 -13 82 -48l24 63h149l-180 -1024h-151zM847 818q-94 73 -217 73q-200 0 -301 -194q-73 -141 -73 -320q0 -126 47 -184q50 -60 154 -60
q130 0 226 82q68 59 88 170zM530 1419q56 0 89 -35q29 -30 29 -80q0 -58 -38 -89q-33 -26 -82 -26q-59 0 -92 35q-29 30 -29 81q0 57 38 88q32 26 85 26zM917 1419q56 0 89 -35q29 -30 29 -80q0 -58 -38 -89q-33 -26 -82 -26q-59 0 -92 35q-29 30 -29 81q0 57 38 88
q32 26 85 26z" />
    <glyph glyph-name="aring" unicode="&#xe5;" horiz-adv-x="1162" vert-adv-y="2457" 
d="M743 112q-49 -48 -77 -68q-99 -67 -248 -67q-356 0 -356 386q0 151 46 291q67 202 210 305q123 88 287 88q124 0 211 -38q29 -13 82 -48l24 63h149l-180 -1024h-151zM847 818q-94 73 -217 73q-200 0 -301 -194q-73 -141 -73 -320q0 -126 47 -184q50 -60 154 -60
q130 0 226 82q68 59 88 170zM732 1558q99 0 160 -61q56 -56 56 -149q0 -91 -56 -147q-61 -61 -163 -61t-162 61q-57 57 -57 147q0 94 57 149q62 61 165 61zM731 1463q-57 0 -85 -35q-24 -31 -24 -79t24 -78q28 -36 83 -36q54 0 83 36q24 29 24 78q0 50 -24 79q-30 35 -81 35
z" />
    <glyph glyph-name="ae" unicode="&#xe6;" horiz-adv-x="1776" vert-adv-y="2457" 
d="M727 0l3 112q-49 -48 -77 -68q-99 -67 -247 -67q-344 0 -344 387q0 149 46 290q65 201 207 305q122 88 283 88q121 0 206 -38q30 -14 80 -48l21 63h114l-18 -121q128 145 360 145q170 0 274 -69q98 -66 98 -201q0 -112 -56 -191q-54 -77 -198 -112q-131 -31 -480 -42
l-43 -2q-4 -37 -4 -68q0 -236 301 -236q156 0 335 89l4 -163q-177 -76 -364 -76q-272 0 -362 164l-25 -141h-114zM833 818q-90 73 -209 73q-197 0 -296 -194q-72 -140 -72 -321q0 -125 44 -183q46 -60 145 -60q128 0 224 82q69 58 89 170zM980 578q47 0 200 10
q250 16 321 63q55 36 55 115q0 132 -208 132t-303 -158q-40 -67 -65 -162z" />
    <glyph glyph-name="ccedilla" unicode="&#xe7;" horiz-adv-x="995" vert-adv-y="2457" 
d="M837 220l2 -172q-152 -68 -323 -71l-57 -71q79 -5 126 -20q87 -27 87 -103q0 -92 -82 -144q-71 -45 -196 -45q-127 0 -214 40l54 94q74 -28 149 -28q63 0 96 24q27 20 27 50q0 33 -52 44q-49 10 -148 11l-10 40l96 118q-103 19 -167 67q-141 106 -141 327q0 139 49 280
q73 212 236 312q121 74 285 74q172 0 331 -90l-63 -162q-114 96 -260 96q-200 0 -305 -180q-79 -134 -79 -304q0 -275 269 -275q100 0 192 38q38 16 98 50z" />
    <glyph glyph-name="egrave" unicode="&#xe8;" horiz-adv-x="1138" vert-adv-y="2457" 
d="M276 431q-4 -44 -4 -70q0 -234 301 -234q106 0 211 36q48 17 124 53l4 -163q-166 -76 -369 -76q-461 0 -461 396q0 135 44 271q64 195 204 302q135 102 344 102q179 0 281 -69q98 -66 98 -200q0 -112 -56 -192q-54 -77 -198 -112q-121 -29 -480 -42zM300 578q48 0 201 10
q249 16 320 63q55 37 55 115q0 132 -208 132q-207 0 -303 -158q-40 -67 -65 -162zM839 1166h-142l-221 280h237z" />
    <glyph glyph-name="eacute" unicode="&#xe9;" horiz-adv-x="1138" vert-adv-y="2457" 
d="M276 431q-4 -44 -4 -70q0 -234 301 -234q106 0 211 36q48 17 124 53l4 -163q-166 -76 -369 -76q-461 0 -461 396q0 135 44 271q64 195 204 302q135 102 344 102q179 0 281 -69q98 -66 98 -200q0 -112 -56 -192q-54 -77 -198 -112q-121 -29 -480 -42zM300 578q48 0 201 10
q249 16 320 63q55 37 55 115q0 132 -208 132q-207 0 -303 -158q-40 -67 -65 -162zM584 1166l210 280h252l-313 -280h-149z" />
    <glyph glyph-name="ecircumflex" unicode="&#xea;" horiz-adv-x="1138" vert-adv-y="2457" 
d="M276 431q-4 -44 -4 -70q0 -234 301 -234q106 0 211 36q48 17 124 53l4 -163q-166 -76 -369 -76q-461 0 -461 396q0 135 44 271q64 195 204 302q135 102 344 102q179 0 281 -69q98 -66 98 -200q0 -112 -56 -192q-54 -77 -198 -112q-121 -29 -480 -42zM300 578q48 0 201 10
q249 16 320 63q55 37 55 115q0 132 -208 132q-207 0 -303 -158q-40 -67 -65 -162zM706 1328l-216 -164h-193l312 282h217l213 -282h-176z" />
    <glyph glyph-name="edieresis" unicode="&#xeb;" horiz-adv-x="1138" vert-adv-y="2457" 
d="M276 431q-4 -44 -4 -70q0 -234 301 -234q106 0 211 36q48 17 124 53l4 -163q-166 -76 -369 -76q-461 0 -461 396q0 135 44 271q64 195 204 302q135 102 344 102q179 0 281 -69q98 -66 98 -200q0 -112 -56 -192q-54 -77 -198 -112q-121 -29 -480 -42zM300 578q48 0 201 10
q249 16 320 63q55 37 55 115q0 132 -208 132q-207 0 -303 -158q-40 -67 -65 -162zM518 1419q56 0 89 -35q29 -30 29 -80q0 -58 -38 -89q-33 -26 -82 -26q-59 0 -92 35q-29 30 -29 81q0 57 38 88q32 26 85 26zM905 1419q56 0 89 -35q29 -30 29 -80q0 -58 -38 -89
q-33 -26 -82 -26q-59 0 -92 35q-29 30 -29 81q0 57 38 88q32 26 85 26z" />
    <glyph glyph-name="igrave" unicode="&#xec;" horiz-adv-x="556" vert-adv-y="2457" 
d="M89 0l180 1024h189l-181 -1024h-188zM487 1166h-142l-221 280h237z" />
    <glyph glyph-name="iacute" unicode="&#xed;" horiz-adv-x="556" vert-adv-y="2457" 
d="M94 0l180 1024h189l-181 -1024h-188zM316 1166l210 280h252l-313 -280h-149z" />
    <glyph glyph-name="icircumflex" unicode="&#xee;" horiz-adv-x="556" vert-adv-y="2457" 
d="M94 0l180 1024h189l-181 -1024h-188zM420 1328l-216 -164h-193l312 282h217l213 -282h-176z" />
    <glyph glyph-name="idieresis" unicode="&#xef;" horiz-adv-x="556" vert-adv-y="2457" 
d="M79 0l180 1024h189l-181 -1024h-188zM204 1419q56 0 89 -35q29 -30 29 -80q0 -58 -38 -89q-33 -26 -82 -26q-58 0 -92 35q-29 30 -29 81q0 57 38 88q32 26 85 26zM590 1419q56 0 89 -35q29 -30 29 -80q0 -58 -38 -89q-33 -26 -82 -26q-59 0 -92 35q-29 30 -29 81
q0 57 38 88q32 26 85 26z" />
    <glyph glyph-name="eth" unicode="&#xf0;" horiz-adv-x="1208" vert-adv-y="2457" 
d="M905 964q-61 177 -180 258l-252 -120l-45 90l182 86q-99 34 -215 45l37 118q217 -21 352 -81l206 97l44 -90l-148 -69q87 -69 143 -176q98 -187 98 -438q0 -166 -48 -314q-66 -205 -226 -308q-131 -85 -321 -85q-217 0 -334 107q-115 105 -115 293q0 142 48 280
q68 199 221 299q124 80 291 80q154 0 262 -72zM674 880q-234 0 -328 -194q-69 -140 -69 -298q0 -134 64 -193q67 -62 197 -62q228 0 322 189q68 137 68 302q0 128 -56 188q-64 68 -198 68z" />
    <glyph glyph-name="ntilde" unicode="&#xf1;" horiz-adv-x="1266" vert-adv-y="2457" 
d="M92 0l180 1024h153l-8 -135q65 50 151 90q143 68 280 68q148 0 223 -69q63 -58 63 -158q0 -65 -21 -185l-112 -635h-188l112 636q13 75 13 124q0 129 -152 129q-113 0 -250 -70q-72 -37 -127 -82l-129 -737h-188zM1002 1441h128q-33 -109 -68 -168q-73 -123 -192 -123
q-93 0 -165 92q-35 45 -45 53q-17 15 -42 15q-75 0 -123 -143h-128q36 114 80 180q73 110 188 110q55 0 96 -28q30 -21 64 -64q36 -46 47 -55q19 -15 43 -15q47 0 80 57q18 30 37 89z" />
    <glyph glyph-name="ograve" unicode="&#xf2;" horiz-adv-x="1208" vert-adv-y="2457" 
d="M670 1047q213 0 333 -105q120 -104 120 -309q0 -161 -60 -317q-130 -339 -516 -339q-204 0 -324 89q-139 102 -139 326q0 161 60 316q131 339 526 339zM658 891q-202 0 -289 -143q-91 -151 -91 -352q0 -136 67 -198q69 -65 209 -65q197 0 284 143q91 150 91 353
q0 262 -271 262zM841 1166h-142l-221 280h237z" />
    <glyph glyph-name="oacute" unicode="&#xf3;" horiz-adv-x="1208" vert-adv-y="2457" 
d="M670 1047q213 0 333 -105q120 -104 120 -309q0 -161 -60 -317q-130 -339 -516 -339q-204 0 -324 89q-139 102 -139 326q0 161 60 316q131 339 526 339zM658 891q-202 0 -289 -143q-91 -151 -91 -352q0 -136 67 -198q69 -65 209 -65q197 0 284 143q91 150 91 353
q0 262 -271 262zM611 1166l210 280h252l-313 -280h-149z" />
    <glyph glyph-name="ocircumflex" unicode="&#xf4;" horiz-adv-x="1208" vert-adv-y="2457" 
d="M670 1047q213 0 333 -105q120 -104 120 -309q0 -161 -60 -317q-130 -339 -516 -339q-204 0 -324 89q-139 102 -139 326q0 161 60 316q131 339 526 339zM658 891q-202 0 -289 -143q-91 -151 -91 -352q0 -136 67 -198q69 -65 209 -65q197 0 284 143q91 150 91 353
q0 262 -271 262zM731 1328l-216 -164h-193l312 282h217l213 -282h-176z" />
    <glyph glyph-name="otilde" unicode="&#xf5;" horiz-adv-x="1208" vert-adv-y="2457" 
d="M670 1047q213 0 333 -105q120 -104 120 -309q0 -161 -60 -317q-130 -339 -516 -339q-204 0 -324 89q-139 102 -139 326q0 161 60 316q131 339 526 339zM658 891q-202 0 -289 -143q-91 -151 -91 -352q0 -136 67 -198q69 -65 209 -65q197 0 284 143q91 150 91 353
q0 262 -271 262zM978 1441h128q-33 -109 -68 -168q-73 -123 -192 -123q-93 0 -165 92q-35 45 -45 53q-17 15 -42 15q-75 0 -123 -143h-128q36 114 80 180q73 110 188 110q55 0 96 -28q30 -21 64 -64q36 -46 47 -55q19 -15 43 -15q47 0 80 57q18 30 37 89z" />
    <glyph glyph-name="odieresis" unicode="&#xf6;" horiz-adv-x="1208" vert-adv-y="2457" 
d="M670 1047q213 0 333 -105q120 -104 120 -309q0 -161 -60 -317q-130 -339 -516 -339q-204 0 -324 89q-139 102 -139 326q0 161 60 316q131 339 526 339zM658 891q-202 0 -289 -143q-91 -151 -91 -352q0 -136 67 -198q69 -65 209 -65q197 0 284 143q91 150 91 353
q0 262 -271 262zM545 1419q56 0 89 -35q29 -30 29 -80q0 -58 -38 -89q-33 -26 -82 -26q-59 0 -92 35q-29 30 -29 81q0 57 38 88q32 26 85 26zM932 1419q56 0 89 -35q29 -30 29 -80q0 -58 -38 -89q-33 -26 -82 -26q-59 0 -92 35q-29 30 -29 81q0 57 38 88q32 26 85 26z" />
    <glyph glyph-name="divide" unicode="&#xf7;" vert-adv-y="2457" 
d="M688 1180q50 0 88 -40q32 -34 32 -81q0 -54 -41 -90q-35 -31 -81 -31q-53 0 -90 40q-32 34 -32 82q0 53 41 89q36 31 83 31zM571 521q51 0 88 -40q32 -34 32 -81q0 -54 -41 -90q-35 -31 -81 -31q-53 0 -90 40q-32 34 -32 82q0 52 41 89q35 31 83 31zM142 652l27 151h945
l-27 -151h-945z" />
    <glyph glyph-name="oslash" unicode="&#xf8;" horiz-adv-x="1208" vert-adv-y="2457" 
d="M138 164q-54 99 -54 235q0 152 60 309q130 339 520 339q210 0 338 -103l143 129l74 -80l-148 -134q53 -96 53 -234q0 -152 -60 -309q-68 -179 -215 -265q-126 -74 -301 -74q-216 0 -342 102l-142 -128l-75 79zM289 301l578 521q-75 69 -213 69q-197 0 -284 -143
q-46 -75 -71 -179q-21 -88 -21 -173q0 -48 11 -95zM919 723l-578 -522q76 -68 213 -68q197 0 285 143q45 75 70 179q21 87 21 172q0 49 -11 96z" />
    <glyph glyph-name="ugrave" unicode="&#xf9;" horiz-adv-x="1219" vert-adv-y="2457" 
d="M797 119q-170 -142 -368 -142q-148 0 -228 68q-66 56 -66 170q0 74 25 216l105 593h188l-110 -621q-15 -87 -15 -140q0 -128 159 -128q180 0 318 126l134 763h188l-180 -1024h-156zM856 1166h-142l-221 280h237z" />
    <glyph glyph-name="uacute" unicode="&#xfa;" horiz-adv-x="1219" vert-adv-y="2457" 
d="M797 119q-170 -142 -368 -142q-148 0 -228 68q-66 56 -66 170q0 74 25 216l105 593h188l-110 -621q-15 -87 -15 -140q0 -128 159 -128q180 0 318 126l134 763h188l-180 -1024h-156zM625 1166l210 280h252l-313 -280h-149z" />
    <glyph glyph-name="ucircumflex" unicode="&#xfb;" horiz-adv-x="1219" vert-adv-y="2457" 
d="M797 119q-170 -142 -368 -142q-148 0 -228 68q-66 56 -66 170q0 74 25 216l105 593h188l-110 -621q-15 -87 -15 -140q0 -128 159 -128q180 0 318 126l134 763h188l-180 -1024h-156zM746 1328l-216 -164h-193l312 282h217l213 -282h-176z" />
    <glyph glyph-name="udieresis" unicode="&#xfc;" horiz-adv-x="1219" vert-adv-y="2457" 
d="M797 119q-170 -142 -368 -142q-148 0 -228 68q-66 56 -66 170q0 74 25 216l105 593h188l-110 -621q-15 -87 -15 -140q0 -128 159 -128q180 0 318 126l134 763h188l-180 -1024h-156zM538 1419q56 0 89 -35q29 -30 29 -80q0 -58 -38 -89q-33 -26 -82 -26q-59 0 -92 35
q-29 30 -29 81q0 57 38 88q32 26 85 26zM925 1419q56 0 89 -35q29 -30 29 -80q0 -58 -38 -89q-33 -26 -82 -26q-59 0 -92 35q-29 30 -29 81q0 57 38 88q32 26 85 26z" />
    <glyph glyph-name="yacute" unicode="&#xfd;" horiz-adv-x="1075" vert-adv-y="2457" 
d="M358 -4l-253 1028h195l180 -828l462 828h205l-845 -1434h-207zM560 1168l210 280h252l-313 -280h-149z" />
    <glyph glyph-name="thorn" unicode="&#xfe;" horiz-adv-x="1226" vert-adv-y="2457" 
d="M309 108l-91 -518h-188l325 1844h188l-88 -501q61 41 105 62q106 52 226 52q361 0 361 -388q0 -126 -40 -264q-63 -215 -185 -313q-132 -105 -311 -105q-137 0 -223 55q-39 25 -79 76zM424 762l-58 -332q-11 -63 -11 -95q0 -83 65 -142q66 -60 172 -60q124 0 205 74
q77 70 123 233q33 113 33 216q0 114 -42 169q-51 66 -166 66q-104 0 -212 -58q-45 -25 -109 -71z" />
    <glyph glyph-name="ydieresis" unicode="&#xff;" horiz-adv-x="1075" vert-adv-y="2457" 
d="M358 -4l-253 1028h195l180 -828l462 828h205l-845 -1434h-207zM456 1419q56 0 89 -35q29 -30 29 -80q0 -58 -38 -89q-33 -26 -82 -26q-59 0 -92 35q-29 30 -29 81q0 57 38 88q32 26 85 26zM843 1419q56 0 89 -35q29 -30 29 -80q0 -58 -38 -89q-33 -26 -82 -26
q-59 0 -92 35q-29 30 -29 81q0 57 38 88q32 26 85 26z" />
    <glyph glyph-name="Amacron" unicode="&#x100;" horiz-adv-x="1372" vert-adv-y="2457" 
d="M1002 387h-678l-223 -387h-214l854 1434h196l355 -1434h-203zM966 543l-153 696l-398 -696h551zM557 1629l26 144h593l-25 -144h-594z" />
    <glyph glyph-name="amacron" unicode="&#x101;" horiz-adv-x="1162" vert-adv-y="2457" 
d="M743 112q-49 -48 -77 -68q-99 -67 -248 -67q-356 0 -356 386q0 151 46 291q67 202 210 305q123 88 287 88q124 0 211 -38q29 -13 82 -48l24 63h149l-180 -1024h-151zM847 818q-94 73 -217 73q-200 0 -301 -194q-73 -141 -73 -320q0 -126 47 -184q50 -60 154 -60
q130 0 226 82q68 59 88 170zM405 1231l26 144h593l-25 -144h-594z" />
    <glyph glyph-name="Abreve" unicode="&#x102;" horiz-adv-x="1372" vert-adv-y="2457" 
d="M1002 387h-678l-223 -387h-214l854 1434h196l355 -1434h-203zM966 543l-153 696l-398 -696h551zM551 1845h131q-1 -27 -1 -37q0 -61 35 -87q43 -31 134 -31q125 0 176 58q28 32 45 97h137q-18 -121 -68 -185q-87 -112 -295 -112q-302 0 -302 212q0 35 8 85z" />
    <glyph glyph-name="abreve" unicode="&#x103;" horiz-adv-x="1162" vert-adv-y="2457" 
d="M743 112q-49 -48 -77 -68q-99 -67 -248 -67q-356 0 -356 386q0 151 46 291q67 202 210 305q123 88 287 88q124 0 211 -38q29 -13 82 -48l24 63h149l-180 -1024h-151zM847 818q-94 73 -217 73q-200 0 -301 -194q-73 -141 -73 -320q0 -126 47 -184q50 -60 154 -60
q130 0 226 82q68 59 88 170zM418 1446h131q-1 -29 -1 -36q0 -61 35 -86q43 -32 133 -32q126 0 177 58q27 31 45 96h137q-18 -120 -68 -185q-87 -111 -295 -111q-302 0 -302 212q0 34 8 84z" />
    <glyph glyph-name="Aogonek" unicode="&#x104;" horiz-adv-x="1372" vert-adv-y="2457" 
d="M1002 387h-678l-223 -387h-214l854 1434h196l355 -1434q-102 -58 -158 -107q-69 -59 -69 -124t108 -65q66 0 137 21l5 -100q-97 -31 -198 -31q-224 0 -224 148q0 114 129 190q48 29 147 68h-80zM966 543l-153 696l-398 -696h551z" />
    <glyph glyph-name="aogonek" unicode="&#x105;" horiz-adv-x="1162" vert-adv-y="2457" 
d="M743 112q-49 -48 -77 -68q-99 -67 -248 -67q-356 0 -356 386q0 151 46 291q67 202 210 305q123 88 287 88q124 0 211 -38q29 -13 82 -48l24 63h149l-180 -1024q-95 -54 -149 -98q-78 -64 -78 -133q0 -65 108 -65q66 0 137 21l5 -100q-97 -31 -198 -31q-224 0 -224 149
q0 114 129 189q57 33 147 68h-28zM847 818q-94 73 -217 73q-200 0 -301 -194q-73 -141 -73 -320q0 -126 47 -184q50 -60 154 -60q130 0 226 82q68 59 88 170z" />
    <glyph glyph-name="Cacute" unicode="&#x106;" horiz-adv-x="1238" vert-adv-y="2457" 
d="M1106 261v-183q-195 -101 -414 -101q-260 0 -404 120q-79 66 -118 168q-47 122 -47 261q0 193 66 388q101 298 315 435q169 108 400 108q227 0 408 -111l-64 -171q-56 45 -100 68q-102 52 -241 52q-310 0 -463 -270q-62 -109 -95 -254q-27 -118 -27 -231q0 -401 394 -401
q145 0 266 53q53 23 124 69zM812 1563l210 282h253l-314 -282h-149z" />
    <glyph glyph-name="cacute" unicode="&#x107;" horiz-adv-x="995" vert-adv-y="2457" 
d="M837 220l2 -172q-158 -71 -333 -71q-210 0 -317 109q-105 106 -105 295q0 139 49 280q73 212 236 312q121 74 285 74q172 0 331 -90l-63 -162q-114 96 -260 96q-200 0 -305 -179q-79 -134 -79 -304q0 -275 269 -275q100 0 192 38q38 15 98 49zM550 1166l210 280h252
l-313 -280h-149z" />
    <glyph glyph-name="Ccircumflex" unicode="&#x108;" horiz-adv-x="1238" vert-adv-y="2457" 
d="M1106 261v-183q-195 -101 -414 -101q-260 0 -404 120q-79 66 -118 168q-47 122 -47 261q0 193 66 388q101 298 315 435q169 108 400 108q227 0 408 -111l-64 -171q-56 45 -100 68q-102 52 -241 52q-310 0 -463 -270q-62 -109 -95 -254q-27 -118 -27 -231q0 -401 394 -401
q145 0 266 53q53 23 124 69zM920 1727l-216 -164h-193l312 282h218l212 -282h-176z" />
    <glyph glyph-name="ccircumflex" unicode="&#x109;" horiz-adv-x="995" vert-adv-y="2457" 
d="M837 220l2 -172q-158 -71 -333 -71q-210 0 -317 109q-105 106 -105 295q0 139 49 280q73 212 236 312q121 74 285 74q172 0 331 -90l-63 -162q-114 96 -260 96q-200 0 -305 -179q-79 -134 -79 -304q0 -275 269 -275q100 0 192 38q38 15 98 49zM673 1328l-216 -164h-193
l312 282h217l213 -282h-176z" />
    <glyph glyph-name="Cdotaccent" unicode="&#x10a;" horiz-adv-x="1238" vert-adv-y="2457" 
d="M1106 261v-183q-195 -101 -414 -101q-260 0 -404 120q-79 66 -118 168q-47 122 -47 261q0 193 66 388q101 298 315 435q169 108 400 108q227 0 408 -111l-64 -171q-56 45 -100 68q-102 52 -241 52q-310 0 -463 -270q-62 -109 -95 -254q-27 -118 -27 -231q0 -401 394 -401
q145 0 266 53q53 23 124 69zM889 1819q60 0 96 -36q31 -32 31 -83q0 -60 -41 -92q-35 -27 -88 -27q-62 0 -98 36q-31 31 -31 85q0 57 41 90q34 27 90 27z" />
    <glyph glyph-name="cdotaccent" unicode="&#x10b;" horiz-adv-x="995" vert-adv-y="2457" 
d="M837 220l2 -172q-158 -71 -333 -71q-210 0 -317 109q-105 106 -105 295q0 139 49 280q73 212 236 312q121 74 285 74q172 0 331 -90l-63 -162q-114 96 -260 96q-200 0 -305 -179q-79 -134 -79 -304q0 -275 269 -275q100 0 192 38q38 15 98 49zM663 1418q59 0 94 -35
q31 -31 31 -82q0 -60 -41 -91q-33 -27 -86 -27q-61 0 -96 35q-31 32 -31 84q0 57 41 90q33 26 88 26z" />
    <glyph glyph-name="Ccaron" unicode="&#x10c;" horiz-adv-x="1238" vert-adv-y="2457" 
d="M1106 261v-183q-195 -101 -414 -101q-260 0 -404 120q-79 66 -118 168q-47 122 -47 261q0 193 66 388q101 298 315 435q169 108 400 108q227 0 408 -111l-64 -171q-56 45 -100 68q-102 52 -241 52q-310 0 -463 -270q-62 -109 -95 -254q-27 -118 -27 -231q0 -401 394 -401
q145 0 266 53q53 23 124 69zM905 1681l197 164h188l-284 -282h-218l-240 282h180z" />
    <glyph glyph-name="ccaron" unicode="&#x10d;" horiz-adv-x="995" vert-adv-y="2457" 
d="M837 220l2 -172q-158 -71 -333 -71q-210 0 -317 109q-105 106 -105 295q0 139 49 280q73 212 236 312q121 74 285 74q172 0 331 -90l-63 -162q-114 96 -260 96q-200 0 -305 -179q-79 -134 -79 -304q0 -275 269 -275q100 0 192 38q38 15 98 49zM658 1282l198 164h188
l-284 -282h-218l-240 282h180z" />
    <glyph glyph-name="Dcaron" unicode="&#x10e;" horiz-adv-x="1435" vert-adv-y="2457" 
d="M105 0l253 1434h409q193 0 316 -40q300 -98 300 -500q0 -257 -112 -490q-116 -240 -329 -337q-147 -67 -383 -67h-454zM327 164h224q301 0 456 179q89 103 140 283q37 133 37 258q0 236 -129 321q-75 49 -201 61q-49 4 -141 4h-192zM831 1681l197 164h188l-284 -282h-218
l-240 282h180z" />
    <glyph glyph-name="dcaron" unicode="&#x10f;" horiz-adv-x="1486" vert-adv-y="2457" 
d="M929 979l80 455h188l-252 -1434h-151l3 112q-51 -48 -82 -68q-104 -67 -261 -67q-375 0 -375 388q0 151 52 297q71 197 220 298q129 87 298 87q119 0 205 -32q28 -10 75 -36zM902 824q-48 30 -70 40q-63 27 -152 27q-220 0 -328 -196q-79 -142 -79 -317q0 -127 52 -185
q55 -60 167 -60q137 0 239 82q74 60 94 170zM1301 945l148 489h206l-218 -489h-136z" />
    <glyph glyph-name="Dcroat" unicode="&#x110;" horiz-adv-x="1434" vert-adv-y="2457" 
d="M223 673h-160l28 156h160l107 605h409q193 0 316 -40q300 -98 300 -501q0 -255 -112 -489q-116 -240 -329 -337q-147 -67 -383 -67h-454zM416 673l-89 -509h224q301 0 456 179q90 103 140 283q37 132 37 258q0 236 -129 321q-75 49 -201 61q-49 4 -141 4h-192l-77 -441
h401l-28 -156h-401z" />
    <glyph glyph-name="dcroat" unicode="&#x111;" horiz-adv-x="1217" vert-adv-y="2457" 
d="M929 979l34 195h-295l22 128h296l23 132h188l-23 -132h177l-23 -128h-177l-206 -1174h-151l3 112q-52 -48 -82 -68q-104 -67 -261 -67q-375 0 -375 388q0 151 52 297q71 197 220 298q129 87 298 87q119 0 205 -32q28 -10 75 -36zM902 824q-48 30 -70 40q-63 27 -152 27
q-220 0 -328 -196q-79 -142 -79 -317q0 -127 52 -185q55 -60 167 -60q137 0 239 82q74 60 94 170z" />
    <glyph glyph-name="Emacron" unicode="&#x112;" horiz-adv-x="1233" vert-adv-y="2457" 
d="M105 0l253 1434h929l-29 -164h-737l-77 -441h660l-29 -164h-661l-87 -501h749l-29 -164h-942zM523 1629l26 144h593l-25 -144h-594z" />
    <glyph glyph-name="emacron" unicode="&#x113;" horiz-adv-x="1138" vert-adv-y="2457" 
d="M276 431q-4 -44 -4 -70q0 -234 301 -234q106 0 211 36q48 17 124 53l4 -163q-166 -76 -369 -76q-461 0 -461 396q0 135 44 271q64 195 204 302q135 102 344 102q179 0 281 -69q98 -66 98 -200q0 -112 -56 -192q-54 -77 -198 -112q-121 -29 -480 -42zM300 578q48 0 201 10
q249 16 320 63q55 37 55 115q0 132 -208 132q-207 0 -303 -158q-40 -67 -65 -162zM386 1231l26 144h593l-25 -144h-594z" />
    <glyph glyph-name="Ebreve" unicode="&#x114;" horiz-adv-x="1233" vert-adv-y="2457" 
d="M105 0l253 1434h929l-29 -164h-737l-77 -441h660l-29 -164h-661l-87 -501h749l-29 -164h-942zM535 1845h131q-1 -27 -1 -37q0 -61 35 -87q43 -31 134 -31q125 0 176 58q28 32 45 97h137q-18 -121 -68 -185q-87 -112 -295 -112q-302 0 -302 212q0 35 8 85z" />
    <glyph glyph-name="ebreve" unicode="&#x115;" horiz-adv-x="1138" vert-adv-y="2457" 
d="M276 431q-4 -44 -4 -70q0 -234 301 -234q106 0 211 36q48 17 124 53l4 -163q-166 -76 -369 -76q-461 0 -461 396q0 135 44 271q64 195 204 302q135 102 344 102q179 0 281 -69q98 -66 98 -200q0 -112 -56 -192q-54 -77 -198 -112q-121 -29 -480 -42zM300 578q48 0 201 10
q249 16 320 63q55 37 55 115q0 132 -208 132q-207 0 -303 -158q-40 -67 -65 -162zM396 1446h131q-1 -29 -1 -36q0 -61 35 -86q43 -32 133 -32q126 0 177 58q27 31 45 96h137q-18 -120 -68 -185q-87 -111 -295 -111q-302 0 -302 212q0 34 8 84z" />
    <glyph glyph-name="Edotaccent" unicode="&#x116;" horiz-adv-x="1233" vert-adv-y="2457" 
d="M105 0l253 1434h929l-29 -164h-737l-77 -441h660l-29 -164h-661l-87 -501h749l-29 -164h-942zM853 1819q60 0 96 -36q31 -32 31 -83q0 -60 -41 -92q-35 -27 -88 -27q-62 0 -98 36q-31 31 -31 85q0 57 41 90q34 27 90 27z" />
    <glyph glyph-name="edotaccent" unicode="&#x117;" horiz-adv-x="1138" vert-adv-y="2457" 
d="M276 431q-4 -44 -4 -70q0 -234 301 -234q106 0 211 36q48 17 124 53l4 -163q-166 -76 -369 -76q-461 0 -461 396q0 135 44 271q64 195 204 302q135 102 344 102q179 0 281 -69q98 -66 98 -200q0 -112 -56 -192q-54 -77 -198 -112q-121 -29 -480 -42zM300 578q48 0 201 10
q249 16 320 63q55 37 55 115q0 132 -208 132q-207 0 -303 -158q-40 -67 -65 -162zM710 1418q59 0 94 -35q31 -31 31 -82q0 -60 -41 -91q-33 -27 -86 -27q-61 0 -96 35q-31 32 -31 84q0 57 41 90q33 26 88 26z" />
    <glyph glyph-name="Eogonek" unicode="&#x118;" horiz-adv-x="1233" vert-adv-y="2457" 
d="M105 0l253 1434h929l-29 -164h-737l-77 -441h660l-29 -164h-661l-87 -501h749l-29 -164q-101 -57 -154 -103q-73 -63 -73 -129q0 -64 108 -64q66 0 137 21l5 -100q-97 -31 -198 -31q-224 0 -224 149q0 91 91 161q57 44 185 96h-819z" />
    <glyph glyph-name="eogonek" unicode="&#x119;" horiz-adv-x="1097" vert-adv-y="2457" 
d="M276 431q-4 -43 -4 -70q0 -235 301 -235q107 0 211 37q48 17 124 53l4 -163q-129 -59 -288 -73q-193 -113 -193 -212q0 -64 108 -64q66 0 137 21l5 -100q-97 -31 -198 -31q-224 0 -224 149q0 86 82 155q43 37 141 81q-400 25 -400 394q0 135 44 271q64 195 204 302
q135 102 344 102q179 0 281 -69q98 -66 98 -200q0 -112 -56 -192q-54 -77 -198 -112q-121 -29 -480 -42zM300 578q48 0 201 10q249 16 320 63q55 37 55 115q0 132 -208 132q-207 0 -303 -158q-40 -67 -65 -162z" />
    <glyph glyph-name="Ecaron" unicode="&#x11a;" horiz-adv-x="1233" vert-adv-y="2457" 
d="M105 0l253 1434h929l-29 -164h-737l-77 -441h660l-29 -164h-661l-87 -501h749l-29 -164h-942zM862 1681l197 164h188l-284 -282h-218l-240 282h180z" />
    <glyph glyph-name="ecaron" unicode="&#x11b;" horiz-adv-x="1138" vert-adv-y="2457" 
d="M276 431q-4 -44 -4 -70q0 -234 301 -234q106 0 211 36q48 17 124 53l4 -163q-166 -76 -369 -76q-461 0 -461 396q0 135 44 271q64 195 204 302q135 102 344 102q179 0 281 -69q98 -66 98 -200q0 -112 -56 -192q-54 -77 -198 -112q-121 -29 -480 -42zM300 578q48 0 201 10
q249 16 320 63q55 37 55 115q0 132 -208 132q-207 0 -303 -158q-40 -67 -65 -162zM677 1282l198 164h188l-284 -282h-218l-240 282h180z" />
    <glyph glyph-name="Gcircumflex" unicode="&#x11c;" horiz-adv-x="1405" vert-adv-y="2457" 
d="M773 575l27 150h492l-113 -638q-211 -110 -463 -110q-286 0 -430 126q-88 76 -128 200q-35 107 -35 224q0 209 77 417q101 270 310 402q176 111 420 111q238 0 441 -113l-64 -172q-64 47 -110 69q-113 54 -265 54q-323 0 -482 -265q-62 -104 -97 -241q-31 -123 -31 -244
q0 -211 101 -311q95 -95 291 -95q149 0 293 64l65 372h-299zM929 1727l-216 -164h-193l312 282h218l212 -282h-176z" />
    <glyph glyph-name="gcircumflex" unicode="&#x11d;" horiz-adv-x="1218" vert-adv-y="2457" 
d="M18 -368l62 155q147 -75 318 -75q210 0 293 120q48 69 68 180l16 90q-135 -125 -330 -125q-181 0 -275 95q-92 93 -92 274q0 141 46 287q131 414 518 414q176 0 311 -86l24 63h149l-163 -930q-27 -153 -54 -229q-57 -159 -198 -232q-126 -66 -297 -66q-125 0 -281 33
q-62 13 -115 32zM902 818q-111 73 -249 73q-131 0 -213 -73q-89 -80 -136 -245q-32 -110 -32 -210q0 -232 221 -232q134 0 242 94q75 66 93 173zM744 1328l-216 -164h-193l312 282h217l213 -282h-176z" />
    <glyph glyph-name="Gbreve" unicode="&#x11e;" horiz-adv-x="1405" vert-adv-y="2457" 
d="M773 575l27 150h492l-113 -638q-211 -110 -463 -110q-286 0 -430 126q-88 76 -128 200q-35 107 -35 224q0 209 77 417q101 270 310 402q176 111 420 111q238 0 441 -113l-64 -172q-64 47 -110 69q-113 54 -265 54q-323 0 -482 -265q-62 -104 -97 -241q-31 -123 -31 -244
q0 -211 101 -311q95 -95 291 -95q149 0 293 64l65 372h-299zM609 1845h131q-1 -27 -1 -37q0 -61 35 -87q43 -31 134 -31q125 0 176 58q28 32 45 97h137q-18 -121 -68 -185q-87 -112 -295 -112q-302 0 -302 212q0 35 8 85z" />
    <glyph glyph-name="gbreve" unicode="&#x11f;" horiz-adv-x="1218" vert-adv-y="2457" 
d="M18 -368l62 155q147 -75 318 -75q210 0 293 120q48 69 68 180l16 90q-135 -125 -330 -125q-181 0 -275 95q-92 93 -92 274q0 141 46 287q131 414 518 414q176 0 311 -86l24 63h149l-163 -930q-27 -153 -54 -229q-57 -159 -198 -232q-126 -66 -297 -66q-125 0 -281 33
q-62 13 -115 32zM902 818q-111 73 -249 73q-131 0 -213 -73q-89 -80 -136 -245q-32 -110 -32 -210q0 -232 221 -232q134 0 242 94q75 66 93 173zM427 1446h131q-1 -29 -1 -36q0 -61 35 -86q43 -32 133 -32q126 0 177 58q27 31 45 96h137q-18 -120 -68 -185
q-87 -111 -295 -111q-302 0 -302 212q0 34 8 84z" />
    <glyph glyph-name="Gdotaccent" unicode="&#x120;" horiz-adv-x="1405" vert-adv-y="2457" 
d="M773 575l27 150h492l-113 -638q-211 -110 -463 -110q-286 0 -430 126q-88 76 -128 200q-35 107 -35 224q0 209 77 417q101 270 310 402q176 111 420 111q238 0 441 -113l-64 -172q-64 47 -110 69q-113 54 -265 54q-323 0 -482 -265q-62 -104 -97 -241q-31 -123 -31 -244
q0 -211 101 -311q95 -95 291 -95q149 0 293 64l65 372h-299zM914 1819q60 0 96 -36q31 -32 31 -83q0 -60 -41 -92q-35 -27 -88 -27q-62 0 -98 36q-31 31 -31 85q0 57 41 90q34 27 90 27z" />
    <glyph glyph-name="gdotaccent" unicode="&#x121;" horiz-adv-x="1218" vert-adv-y="2457" 
d="M18 -368l62 155q147 -75 318 -75q210 0 293 120q48 69 68 180l16 90q-135 -125 -330 -125q-181 0 -275 95q-92 93 -92 274q0 141 46 287q131 414 518 414q176 0 311 -86l24 63h149l-163 -930q-27 -153 -54 -229q-57 -159 -198 -232q-126 -66 -297 -66q-125 0 -281 33
q-62 13 -115 32zM902 818q-111 73 -249 73q-131 0 -213 -73q-89 -80 -136 -245q-32 -110 -32 -210q0 -232 221 -232q134 0 242 94q75 66 93 173zM740 1418q59 0 94 -35q31 -31 31 -82q0 -60 -41 -91q-33 -27 -86 -27q-61 0 -96 35q-31 32 -31 84q0 57 41 90q33 26 88 26z
" />
    <glyph glyph-name="Gcommaaccent" unicode="&#x122;" horiz-adv-x="1405" vert-adv-y="2457" 
d="M773 575l27 150h492l-113 -638q-211 -110 -463 -110q-286 0 -430 126q-88 76 -128 200q-35 107 -35 224q0 209 77 417q101 270 310 402q176 111 420 111q238 0 441 -113l-64 -172q-64 47 -110 69q-113 54 -265 54q-323 0 -482 -265q-62 -104 -97 -241q-31 -123 -31 -244
q0 -211 101 -311q95 -95 291 -95q149 0 293 64l65 372h-299zM423 -404l115 279h197l-173 -279h-139z" />
    <glyph glyph-name="gcommaaccent" unicode="&#x123;" horiz-adv-x="1218" vert-adv-y="2457" 
d="M18 -368l62 155q147 -75 318 -75q210 0 293 120q48 69 68 180l16 90q-135 -125 -330 -125q-181 0 -275 95q-92 93 -92 274q0 141 46 287q131 414 518 414q176 0 311 -86l24 63h149l-163 -930q-27 -153 -54 -229q-57 -159 -198 -232q-126 -66 -297 -66q-125 0 -281 33
q-62 13 -115 32zM902 818q-111 73 -249 73q-131 0 -213 -73q-89 -80 -136 -245q-32 -110 -32 -210q0 -232 221 -232q134 0 242 94q75 66 93 173zM1080 1446l-216 -280h-242l309 280h149z" />
    <glyph glyph-name="Hcircumflex" unicode="&#x124;" horiz-adv-x="1488" vert-adv-y="2457" 
d="M105 0l253 1434h192l-106 -605h714l106 605h193l-253 -1434h-193l117 665h-714l-116 -665h-193zM958 1727l-216 -164h-193l312 282h218l212 -282h-176z" />
    <glyph glyph-name="hcircumflex" unicode="&#x125;" horiz-adv-x="1266" vert-adv-y="2457" 
d="M76 0l253 1434h188l-93 -527q208 140 408 140q147 0 223 -69q63 -58 63 -159q0 -65 -21 -184l-112 -635h-188l112 636q13 73 13 124q0 129 -152 129q-113 0 -250 -70q-66 -34 -126 -82l-130 -737h-188zM491 1727l-216 -164h-193l312 282h218l212 -282h-176z" />
    <glyph glyph-name="Hbar" unicode="&#x126;" horiz-adv-x="1488" vert-adv-y="2457" 
d="M105 0l180 1017h-149l24 140h149l49 277h192l-48 -277h714l48 277h193l-49 -277h149l-25 -140h-148l-180 -1017h-193l116 658h-714l-115 -658h-193zM441 812h714l36 205h-714z" />
    <glyph glyph-name="hbar" unicode="&#x127;" horiz-adv-x="1265" vert-adv-y="2457" 
d="M92 0l207 1174h-160l22 128h161l23 132h188l-23 -132h325l-22 -128h-326l-47 -267q208 140 408 140q147 0 223 -69q63 -58 63 -158q0 -66 -21 -185l-112 -635h-188l112 636q13 73 13 124q0 129 -152 129q-113 0 -250 -70q-66 -34 -126 -82l-130 -737h-188z" />
    <glyph glyph-name="Itilde" unicode="&#x128;" horiz-adv-x="597" vert-adv-y="2457" 
d="M112 0l253 1434h192l-252 -1434h-193zM755 1838h128q-33 -109 -68 -167q-74 -122 -192 -122q-73 0 -125 48q-21 19 -68 79q-25 31 -59 31q-75 0 -123 -141h-128q37 114 80 178q74 110 188 110q87 0 159 -91q37 -46 48 -55q19 -14 43 -14q71 0 117 144z" />
    <glyph glyph-name="itilde" unicode="&#x129;" horiz-adv-x="556" vert-adv-y="2457" 
d="M94 0l180 1024h189l-181 -1024h-188zM655 1441h128q-33 -109 -68 -168q-73 -123 -192 -123q-93 0 -165 92q-35 45 -45 53q-17 15 -42 15q-75 0 -123 -143h-128q36 114 80 180q73 110 188 110q55 0 96 -28q30 -21 64 -64q36 -46 47 -55q19 -15 43 -15q47 0 80 57
q18 30 37 89z" />
    <glyph glyph-name="Imacron" unicode="&#x12a;" horiz-adv-x="597" vert-adv-y="2457" 
d="M112 0l253 1434h192l-252 -1434h-193zM194 1629l26 144h593l-25 -144h-594z" />
    <glyph glyph-name="imacron" unicode="&#x12b;" horiz-adv-x="556" vert-adv-y="2457" 
d="M86 0l180 1024h189l-181 -1024h-188zM86 1231l26 144h593l-25 -144h-594z" />
    <glyph glyph-name="Ibreve" unicode="&#x12c;" horiz-adv-x="597" vert-adv-y="2457" 
d="M112 0l253 1434h192l-252 -1434h-193zM199 1845h131q-1 -27 -1 -37q0 -61 35 -87q43 -31 134 -31q125 0 176 58q28 32 45 97h137q-18 -121 -68 -185q-87 -112 -295 -112q-302 0 -302 212q0 35 8 85z" />
    <glyph glyph-name="ibreve" unicode="&#x12d;" horiz-adv-x="556" vert-adv-y="2457" 
d="M86 0l180 1024h189l-181 -1024h-188zM94 1446h131q-1 -29 -1 -36q0 -61 35 -86q43 -32 133 -32q126 0 177 58q27 31 45 96h137q-18 -120 -68 -185q-87 -111 -295 -111q-302 0 -302 212q0 34 8 84z" />
    <glyph glyph-name="Iogonek" unicode="&#x12e;" horiz-adv-x="597" vert-adv-y="2457" 
d="M112 0l253 1434h192l-252 -1434q-97 -55 -153 -103q-74 -62 -74 -129q0 -64 108 -64q66 0 137 21l5 -100q-97 -31 -198 -31q-103 0 -163 36q-61 37 -61 112q0 114 129 190q51 31 147 68h-70z" />
    <glyph glyph-name="iogonek" unicode="&#x12f;" horiz-adv-x="558" vert-adv-y="2457" 
d="M95 0l180 1024h188l-180 -1024q-108 -61 -162 -110q-65 -59 -65 -121q0 -65 108 -65q66 0 137 21l5 -100q-97 -31 -198 -31q-103 0 -163 36q-61 37 -61 112q0 114 129 190q52 31 147 68h-65zM418 1418q59 0 94 -35q31 -32 31 -82q0 -60 -41 -91q-34 -27 -86 -27
q-62 0 -97 35q-31 31 -31 85q0 57 41 89q33 26 89 26z" />
    <glyph glyph-name="Idotaccent" unicode="&#x130;" horiz-adv-x="597" vert-adv-y="2457" 
d="M112 0l253 1434h192l-252 -1434h-193zM501 1819q60 0 96 -36q31 -32 31 -83q0 -60 -41 -92q-35 -27 -88 -27q-62 0 -98 36q-31 31 -31 85q0 57 41 90q34 27 90 27z" />
    <glyph glyph-name="dotlessi" unicode="&#x131;" horiz-adv-x="556" vert-adv-y="2457" 
d="M94 0l180 1024h189l-181 -1024h-188z" />
    <glyph glyph-name="Jcircumflex" unicode="&#x134;" horiz-adv-x="970" vert-adv-y="2457" 
d="M750 1434h192l-162 -920q-29 -165 -60 -249q-109 -288 -451 -288q-232 0 -362 108l66 177q64 -54 92 -73q77 -49 190 -49q169 0 243 103q56 77 91 277zM839 1727l-216 -164h-193l312 282h218l212 -282h-176z" />
    <glyph glyph-name="jcircumflex" unicode="&#x135;" horiz-adv-x="577" vert-adv-y="2457" 
d="M294 1024h188l-147 -837q-37 -207 -74 -300q-113 -280 -455 -296l27 153q68 7 104 21q109 45 163 219q26 87 50 222zM426 1328l-216 -164h-193l312 282h217l213 -282h-176z" />
    <glyph glyph-name="Kcommaaccent" unicode="&#x136;" horiz-adv-x="1274" vert-adv-y="2457" 
d="M104 0l253 1434h192l-111 -632l712 632h246l-768 -661l560 -773h-226l-532 758l-133 -758h-193zM385 -404l115 279h197l-173 -279h-139z" />
    <glyph glyph-name="kcommaaccent" unicode="&#x137;" horiz-adv-x="1164" vert-adv-y="2457" 
d="M92 0l253 1434h188l-143 -807l530 397h262l-596 -431l460 -593h-226l-437 584l-103 -584h-188zM299 -404l115 279h197l-173 -279h-139z" />
    <glyph glyph-name="kgreenlandic" unicode="&#x138;" horiz-adv-x="1122" vert-adv-y="2457" 
d="M92 0l180 1024h189l-78 -443l556 443h245l-612 -468l482 -556h-226l-453 542l-95 -542h-188z" />
    <glyph glyph-name="Lacute" unicode="&#x139;" horiz-adv-x="1065" vert-adv-y="2457" 
d="M105 0l253 1434h192l-223 -1270h642l-29 -164h-835zM406 1563l210 282h253l-314 -282h-149z" />
    <glyph glyph-name="lacute" unicode="&#x13a;" horiz-adv-x="556" vert-adv-y="2457" 
d="M94 0l253 1434h188l-253 -1434h-188zM404 1563l210 280h252l-313 -280h-149z" />
    <glyph glyph-name="Lcommaaccent" unicode="&#x13b;" horiz-adv-x="1065" vert-adv-y="2457" 
d="M105 0l253 1434h192l-223 -1270h642l-29 -164h-835zM319 -404l115 279h197l-173 -279h-139z" />
    <glyph glyph-name="lcommaaccent" unicode="&#x13c;" horiz-adv-x="556" vert-adv-y="2457" 
d="M93 0l253 1434h188l-253 -1434h-188zM-41 -404l115 279h197l-173 -279h-139z" />
    <glyph glyph-name="Lcaron" unicode="&#x13d;" horiz-adv-x="1065" vert-adv-y="2457" 
d="M105 0l253 1434h192l-223 -1270h642l-29 -164h-835zM651 945l148 489h206l-218 -489h-136z" />
    <glyph glyph-name="lcaron" unicode="&#x13e;" horiz-adv-x="825" vert-adv-y="2457" 
d="M94 0l253 1434h188l-253 -1434h-188zM640 945l148 489h206l-218 -489h-136z" />
    <glyph glyph-name="Ldot" unicode="&#x13f;" horiz-adv-x="1065" vert-adv-y="2457" 
d="M105 0l253 1434h192l-223 -1270h642l-29 -164h-835zM845 787q58 0 100 -44q36 -37 36 -89q0 -61 -46 -100q-40 -34 -93 -34q-61 0 -103 44q-36 37 -36 91q0 58 47 98q40 34 95 34z" />
    <glyph glyph-name="ldot" unicode="&#x140;" horiz-adv-x="753" vert-adv-y="2457" 
d="M94 0l253 1434h188l-253 -1434h-188zM677 752q58 0 100 -44q36 -37 36 -89q0 -61 -46 -100q-40 -34 -93 -34q-61 0 -103 44q-36 37 -36 91q0 58 47 98q40 34 95 34z" />
    <glyph glyph-name="Lslash" unicode="&#x141;" horiz-adv-x="1075" vert-adv-y="2457" 
d="M114 0l78 439l-217 -126l31 181l218 126l143 814h193l-124 -702l489 285l-32 -181l-489 -285l-68 -387h643l-30 -164h-835z" />
    <glyph glyph-name="lslash" unicode="&#x142;" horiz-adv-x="668" vert-adv-y="2457" 
d="M150 0l108 615l-235 -130l31 173l235 130l114 646h188l-95 -539l235 130l-32 -174l-234 -130l-127 -721h-188z" />
    <glyph glyph-name="Nacute" unicode="&#x143;" horiz-adv-x="1500" vert-adv-y="2457" 
d="M105 0l253 1434h178l555 -1105l194 1105h183l-252 -1434h-158l-570 1133l-199 -1133h-184zM825 1563l210 282h253l-314 -282h-149z" />
    <glyph glyph-name="nacute" unicode="&#x144;" horiz-adv-x="1266" vert-adv-y="2457" 
d="M92 0l180 1024h153l-8 -135q65 50 151 90q143 68 280 68q148 0 223 -69q63 -58 63 -158q0 -65 -21 -185l-112 -635h-188l112 636q13 75 13 124q0 129 -152 129q-113 0 -250 -70q-72 -37 -127 -82l-129 -737h-188zM638 1166l210 280h252l-313 -280h-149z" />
    <glyph glyph-name="Ncommaaccent" unicode="&#x145;" horiz-adv-x="1500" vert-adv-y="2457" 
d="M105 0l253 1434h178l555 -1105l194 1105h183l-252 -1434h-158l-570 1133l-199 -1133h-184zM443 -404l115 279h197l-173 -279h-139z" />
    <glyph glyph-name="ncommaaccent" unicode="&#x146;" horiz-adv-x="1265" vert-adv-y="2457" 
d="M92 0l180 1024h153l-8 -135q65 50 151 90q143 68 280 68q148 0 223 -69q63 -58 63 -158q0 -65 -21 -185l-112 -635h-188l112 636q13 75 13 124q0 129 -152 129q-113 0 -250 -70q-72 -37 -127 -82l-129 -737h-188zM341 -404l115 279h197l-173 -279h-139z" />
    <glyph glyph-name="Ncaron" unicode="&#x147;" horiz-adv-x="1500" vert-adv-y="2457" 
d="M105 0l253 1434h178l555 -1105l194 1105h183l-252 -1434h-158l-570 1133l-199 -1133h-184zM956 1681l197 164h188l-284 -282h-218l-240 282h180z" />
    <glyph glyph-name="ncaron" unicode="&#x148;" horiz-adv-x="1265" vert-adv-y="2457" 
d="M92 0l180 1024h153l-8 -135q65 50 151 90q143 68 280 68q148 0 223 -69q63 -58 63 -158q0 -65 -21 -185l-112 -635h-188l112 636q13 75 13 124q0 129 -152 129q-113 0 -250 -70q-72 -37 -127 -82l-129 -737h-188zM724 1282l198 164h188l-284 -282h-218l-240 282h180z" />
    <glyph glyph-name="napostrophe" unicode="&#x149;" horiz-adv-x="1339" vert-adv-y="2457" 
d="M165 0l180 1024h153l-8 -135q65 50 151 90q143 68 280 68q148 0 223 -69q63 -58 63 -158q0 -65 -21 -185l-112 -635h-188l112 636q13 75 13 124q0 129 -152 129q-113 0 -250 -70q-72 -37 -127 -82l-129 -737h-188zM70 945l148 489h206l-218 -489h-136z" />
    <glyph glyph-name="Eng" unicode="&#x14a;" horiz-adv-x="1500" vert-adv-y="2457" 
d="M105 0l253 1434h178l557 -1094l192 1094h183l-216 -1230q-37 -209 -77 -307q-117 -286 -455 -306l27 153q70 7 106 21q98 40 152 184q15 41 30 97l-549 1077l-197 -1123h-184z" />
    <glyph glyph-name="eng" unicode="&#x14b;" horiz-adv-x="1265" vert-adv-y="2457" 
d="M92 0l180 1024h153l-8 -135q65 50 151 90q143 68 280 68q148 0 223 -69q63 -58 63 -158q0 -65 -21 -185l-76 -434q-38 -212 -75 -306q-115 -289 -457 -304l28 153q68 7 103 21q109 45 163 219q27 88 51 222l75 430q15 87 15 124q0 129 -154 129q-113 0 -250 -70
q-72 -37 -127 -82l-129 -737h-188z" />
    <glyph glyph-name="Omacron" unicode="&#x14c;" horiz-adv-x="1512" vert-adv-y="2457" 
d="M897 1457q178 0 316 -71q247 -129 247 -487q0 -177 -54 -358q-87 -287 -277 -432q-173 -132 -432 -132q-264 0 -408 121q-85 72 -126 190q-40 115 -40 244q0 173 55 355q171 570 719 570zM883 1295q-314 0 -454 -286q-51 -103 -81 -254q-26 -126 -26 -240
q0 -376 386 -376q307 0 446 281q52 104 83 262q24 123 24 233q0 184 -93 278q-51 52 -126 76q-81 26 -159 26zM630 1629l26 144h593l-25 -144h-594z" />
    <glyph glyph-name="omacron" unicode="&#x14d;" horiz-adv-x="1208" vert-adv-y="2457" 
d="M670 1047q213 0 333 -105q120 -104 120 -309q0 -161 -60 -317q-130 -339 -516 -339q-204 0 -324 89q-139 102 -139 326q0 161 60 316q131 339 526 339zM658 891q-202 0 -289 -143q-91 -151 -91 -352q0 -136 67 -198q69 -65 209 -65q197 0 284 143q91 150 91 353
q0 262 -271 262zM415 1231l26 144h593l-25 -144h-594z" />
    <glyph glyph-name="Obreve" unicode="&#x14e;" horiz-adv-x="1512" vert-adv-y="2457" 
d="M897 1457q178 0 316 -71q247 -129 247 -487q0 -177 -54 -358q-87 -287 -277 -432q-173 -132 -432 -132q-264 0 -408 121q-85 72 -126 190q-40 115 -40 244q0 173 55 355q171 570 719 570zM883 1295q-314 0 -454 -286q-51 -103 -81 -254q-26 -126 -26 -240
q0 -376 386 -376q307 0 446 281q52 104 83 262q24 123 24 233q0 184 -93 278q-51 52 -126 76q-81 26 -159 26zM640 1845h131q-1 -27 -1 -37q0 -61 35 -87q43 -31 134 -31q125 0 176 58q28 32 45 97h137q-18 -121 -68 -185q-87 -112 -295 -112q-302 0 -302 212q0 35 8 85z
" />
    <glyph glyph-name="obreve" unicode="&#x14f;" horiz-adv-x="1208" vert-adv-y="2457" 
d="M670 1047q213 0 333 -105q120 -104 120 -309q0 -161 -60 -317q-130 -339 -516 -339q-204 0 -324 89q-139 102 -139 326q0 161 60 316q131 339 526 339zM658 891q-202 0 -289 -143q-91 -151 -91 -352q0 -136 67 -198q69 -65 209 -65q197 0 284 143q91 150 91 353
q0 262 -271 262zM411 1446h131q-1 -29 -1 -36q0 -61 35 -86q43 -32 133 -32q126 0 177 58q27 31 45 96h137q-18 -120 -68 -185q-87 -111 -295 -111q-302 0 -302 212q0 34 8 84z" />
    <glyph glyph-name="Ohungarumlaut" unicode="&#x150;" horiz-adv-x="1512" vert-adv-y="2457" 
d="M897 1457q178 0 316 -71q247 -129 247 -487q0 -177 -54 -358q-87 -287 -277 -432q-173 -132 -432 -132q-264 0 -408 121q-85 72 -126 190q-40 115 -40 244q0 173 55 355q171 570 719 570zM883 1295q-314 0 -454 -286q-51 -103 -81 -254q-26 -126 -26 -240
q0 -376 386 -376q307 0 446 281q52 104 83 262q24 123 24 233q0 184 -93 278q-51 52 -126 76q-81 26 -159 26zM702 1563l184 282h226l-268 -282h-142zM1036 1563l184 282h226l-269 -282h-141z" />
    <glyph glyph-name="ohungarumlaut" unicode="&#x151;" horiz-adv-x="1208" vert-adv-y="2457" 
d="M670 1047q213 0 333 -105q120 -104 120 -309q0 -161 -60 -317q-130 -339 -516 -339q-204 0 -324 89q-139 102 -139 326q0 161 60 316q131 339 526 339zM658 891q-202 0 -289 -143q-91 -151 -91 -352q0 -136 67 -198q69 -65 209 -65q197 0 284 143q91 150 91 353
q0 262 -271 262zM468 1164l184 282h226l-268 -282h-142zM802 1164l184 282h226l-269 -282h-141z" />
    <glyph glyph-name="OE" unicode="&#x152;" horiz-adv-x="1969" vert-adv-y="2457" 
d="M1782 0h-930q-239 0 -327 12q-163 22 -251 99q-150 131 -150 404q0 216 73 420q121 339 380 445q108 45 286 52q47 2 206 2h954l-30 -164h-722l-77 -441h646l-30 -164h-645l-88 -501h735zM1079 1273h-94q-157 0 -234 -16q-149 -30 -240 -138q-100 -118 -144 -286
q-44 -167 -44 -315q0 -137 62 -232q60 -92 195 -114q66 -11 210 -11h94z" />
    <glyph glyph-name="oe" unicode="&#x153;" horiz-adv-x="1894" vert-adv-y="2457" 
d="M945 193q-57 -80 -115 -125q-116 -91 -297 -91q-199 0 -314 89q-135 104 -135 326q0 162 59 316q129 339 506 339q307 0 383 -235q157 236 446 236q171 0 275 -69q98 -66 98 -200q0 -112 -56 -192q-54 -77 -198 -112q-122 -29 -480 -42l-43 -2q-5 -40 -5 -69
q0 -235 302 -235q157 0 335 89l4 -163q-177 -76 -364 -76q-300 0 -401 216zM644 892q-193 0 -278 -144q-88 -150 -88 -352q0 -136 64 -198q66 -65 199 -65q190 0 274 143q88 151 88 354q0 262 -259 262zM1098 578q47 0 200 10q250 16 321 63q55 37 55 115q0 132 -208 132
t-303 -158q-40 -67 -65 -162z" />
    <glyph glyph-name="Racute" unicode="&#x154;" horiz-adv-x="1348" vert-adv-y="2457" 
d="M398 568l-100 -568h-193l253 1434h418q288 0 403 -72q134 -85 134 -276q0 -130 -55 -239q-72 -146 -212 -199q-51 -19 -141 -39l282 -609h-210l-252 568h-327zM427 732h278q228 0 316 90q49 50 75 131q18 59 18 117q0 117 -91 164q-68 36 -224 36h-278zM706 1563l210 282
h253l-314 -282h-149z" />
    <glyph glyph-name="racute" unicode="&#x155;" horiz-adv-x="858" vert-adv-y="2457" 
d="M92 0l180 1024h157l-12 -160q56 58 90 87q113 96 246 96q102 0 188 -53l-68 -176q-74 63 -160 63q-171 0 -317 -220l-116 -661h-188zM528 1166l210 280h252l-313 -280h-149z" />
    <glyph glyph-name="Rcommaaccent" unicode="&#x156;" horiz-adv-x="1348" vert-adv-y="2457" 
d="M398 568l-100 -568h-193l253 1434h418q288 0 403 -72q134 -85 134 -276q0 -130 -55 -239q-72 -146 -212 -199q-51 -19 -141 -39l282 -609h-210l-252 568h-327zM427 732h278q228 0 316 90q49 50 75 131q18 59 18 117q0 117 -91 164q-68 36 -224 36h-278zM387 -404l115 279
h197l-173 -279h-139z" />
    <glyph glyph-name="rcommaaccent" unicode="&#x157;" horiz-adv-x="858" vert-adv-y="2457" 
d="M92 0l180 1024h157l-12 -160q56 58 90 87q113 96 246 96q102 0 188 -53l-68 -176q-74 63 -160 63q-171 0 -317 -220l-116 -661h-188zM-32 -404l115 279h197l-173 -279h-139z" />
    <glyph glyph-name="Rcaron" unicode="&#x158;" horiz-adv-x="1348" vert-adv-y="2457" 
d="M398 568l-100 -568h-193l253 1434h418q288 0 403 -72q134 -85 134 -276q0 -130 -55 -239q-72 -146 -212 -199q-51 -19 -141 -39l282 -609h-210l-252 568h-327zM427 732h278q228 0 316 90q49 50 75 131q18 59 18 117q0 117 -91 164q-68 36 -224 36h-278zM836 1681l197 164
h188l-284 -282h-218l-240 282h180z" />
    <glyph glyph-name="rcaron" unicode="&#x159;" horiz-adv-x="858" vert-adv-y="2457" 
d="M92 0l180 1024h157l-12 -160q56 58 90 87q113 96 246 96q102 0 188 -53l-68 -176q-74 63 -160 63q-171 0 -317 -220l-116 -661h-188zM628 1282l198 164h188l-284 -282h-218l-240 282h180z" />
    <glyph glyph-name="Sacute" unicode="&#x15a;" horiz-adv-x="1178" vert-adv-y="2457" 
d="M4 85l65 180q169 -126 402 -126q230 0 331 106q72 75 72 167q0 84 -62 132q-39 30 -87 51q-32 15 -115 50q-205 88 -290 157q-106 85 -106 239q0 187 142 305q133 111 367 111q170 0 308 -58q35 -15 103 -50l-66 -172q-60 44 -104 66q-110 53 -249 53q-151 0 -231 -66
q-76 -63 -76 -164q0 -84 71 -133q43 -29 234 -112q135 -59 184 -89q171 -106 171 -287q0 -104 -47 -202q-128 -266 -553 -266q-292 0 -464 108zM646 1563l210 282h253l-314 -282h-149z" />
    <glyph glyph-name="sacute" unicode="&#x15b;" horiz-adv-x="958" vert-adv-y="2457" 
d="M5 54l60 165q126 -97 314 -97q124 0 195 48q64 43 64 121q0 55 -46 88q-30 21 -158 81q-141 65 -203 124q-70 66 -70 169q0 132 101 215q96 79 269 79q188 0 340 -78l-59 -159q-118 92 -277 92q-90 0 -140 -37q-48 -35 -48 -93q0 -50 45 -86q40 -31 159 -85
q143 -66 201 -117q72 -63 72 -169q0 -154 -112 -247q-110 -91 -328 -91q-229 0 -379 77zM433 1166l210 280h252l-313 -280h-149z" />
    <glyph glyph-name="Scircumflex" unicode="&#x15c;" horiz-adv-x="1178" vert-adv-y="2457" 
d="M4 85l65 180q169 -126 402 -126q230 0 331 106q72 75 72 167q0 84 -62 132q-39 30 -87 51q-32 15 -115 50q-205 88 -290 157q-106 85 -106 239q0 187 142 305q133 111 367 111q170 0 308 -58q35 -15 103 -50l-66 -172q-60 44 -104 66q-110 53 -249 53q-151 0 -231 -66
q-76 -63 -76 -164q0 -84 71 -133q43 -29 234 -112q135 -59 184 -89q171 -106 171 -287q0 -104 -47 -202q-128 -266 -553 -266q-292 0 -464 108zM775 1727l-216 -164h-193l312 282h218l212 -282h-176z" />
    <glyph glyph-name="scircumflex" unicode="&#x15d;" horiz-adv-x="958" vert-adv-y="2457" 
d="M5 54l60 165q126 -97 314 -97q124 0 195 48q64 43 64 121q0 55 -46 88q-30 21 -158 81q-141 65 -203 124q-70 66 -70 169q0 132 101 215q96 79 269 79q188 0 340 -78l-59 -159q-118 92 -277 92q-90 0 -140 -37q-48 -35 -48 -93q0 -50 45 -86q40 -31 159 -85
q143 -66 201 -117q72 -63 72 -169q0 -154 -112 -247q-110 -91 -328 -91q-229 0 -379 77zM593 1328l-216 -164h-193l312 282h217l213 -282h-176z" />
    <glyph glyph-name="Scedilla" unicode="&#x15e;" horiz-adv-x="1178" vert-adv-y="2457" 
d="M4 85l65 180q170 -125 402 -125q230 0 331 106q72 75 72 167q0 84 -62 132q-39 30 -87 51q-31 14 -115 50q-205 87 -290 156q-106 86 -106 240q0 186 142 304q133 111 367 111q170 0 308 -58q35 -15 103 -50l-66 -172q-59 44 -104 66q-111 53 -249 53q-151 0 -231 -66
q-76 -62 -76 -164q0 -84 71 -133q43 -28 234 -112q135 -59 184 -89q171 -106 171 -287q0 -140 -77 -254q-126 -188 -435 -210l-60 -75q78 -5 126 -19q86 -27 86 -103q0 -93 -82 -144q-71 -45 -196 -45q-126 0 -213 39l53 94q75 -27 149 -27q62 0 96 24q27 20 27 50
q0 32 -52 43q-49 10 -148 11l-9 40l88 109q-263 11 -417 107z" />
    <glyph glyph-name="scedilla" unicode="&#x15f;" horiz-adv-x="958" vert-adv-y="2457" 
d="M5 54l60 165q126 -97 314 -97q124 0 195 48q64 43 64 121q0 55 -46 88q-30 21 -158 81q-141 65 -203 124q-70 66 -70 169q0 132 101 215q96 79 269 79q188 0 340 -78l-59 -159q-118 92 -277 92q-90 0 -140 -37q-48 -35 -48 -93q0 -50 45 -86q40 -31 159 -85
q143 -66 201 -117q72 -63 72 -169q0 -109 -61 -192q-98 -135 -340 -145l-58 -72q79 -5 126 -20q87 -27 87 -103q0 -93 -82 -144q-72 -45 -196 -45q-127 0 -214 40l54 94q74 -28 149 -28q63 0 96 24q27 20 27 50q0 33 -52 44q-49 10 -148 11l-10 40l91 111q-176 16 -288 74z
" />
    <glyph glyph-name="Scaron" unicode="&#x160;" horiz-adv-x="1178" vert-adv-y="2457" 
d="M4 85l65 180q169 -126 402 -126q230 0 331 106q72 75 72 167q0 84 -62 132q-39 30 -87 51q-32 15 -115 50q-205 88 -290 157q-106 85 -106 239q0 187 142 305q133 111 367 111q170 0 308 -58q35 -15 103 -50l-66 -172q-60 44 -104 66q-110 53 -249 53q-151 0 -231 -66
q-76 -63 -76 -164q0 -84 71 -133q43 -29 234 -112q135 -59 184 -89q171 -106 171 -287q0 -104 -47 -202q-128 -266 -553 -266q-292 0 -464 108zM777 1681l197 164h188l-284 -282h-218l-240 282h180z" />
    <glyph glyph-name="scaron" unicode="&#x161;" horiz-adv-x="958" vert-adv-y="2457" 
d="M5 54l60 165q126 -97 314 -97q124 0 195 48q64 43 64 121q0 55 -46 88q-30 21 -158 81q-141 65 -203 124q-70 66 -70 169q0 132 101 215q96 79 269 79q188 0 340 -78l-59 -159q-118 92 -277 92q-90 0 -140 -37q-48 -35 -48 -93q0 -50 45 -86q40 -31 159 -85
q143 -66 201 -117q72 -63 72 -169q0 -154 -112 -247q-110 -91 -328 -91q-229 0 -379 77zM580 1282l198 164h188l-284 -282h-218l-240 282h180z" />
    <glyph glyph-name="Tcommaaccent" unicode="&#x162;" horiz-adv-x="1140" vert-adv-y="2457" 
d="M384 0l224 1270h-455l29 164h1102l-29 -164h-455l-223 -1270h-193zM254 -404l115 279h197l-173 -279h-139z" />
    <glyph glyph-name="tcommaaccent" unicode="&#x163;" horiz-adv-x="803" vert-adv-y="2457" 
d="M288 868h-182l28 156h187l68 284h165l-50 -284h322l-28 -156h-322l-87 -498q-20 -114 -20 -158t24 -62q26 -20 85 -20q80 0 161 37l5 -155q-116 -35 -236 -35q-121 0 -178 42q-55 40 -55 130q0 72 22 195zM94 -404l115 279h197l-173 -279h-139z" />
    <glyph glyph-name="Tcaron" unicode="&#x164;" horiz-adv-x="1140" vert-adv-y="2457" 
d="M384 0l224 1270h-455l29 164h1102l-29 -164h-455l-223 -1270h-193zM772 1681l197 164h188l-284 -282h-218l-240 282h180z" />
    <glyph glyph-name="tcaron" unicode="&#x165;" horiz-adv-x="916" vert-adv-y="2457" 
d="M300 868h-182l28 156h187l68 284h165l-50 -284h322l-28 -156h-322l-87 -498q-20 -114 -20 -158t24 -62q26 -20 85 -20q80 0 161 37l5 -155q-116 -35 -236 -35q-121 0 -178 42q-55 40 -55 130q0 72 22 195zM732 1153l148 489h206l-218 -489h-136z" />
    <glyph glyph-name="Tbar" unicode="&#x166;" horiz-adv-x="1140" vert-adv-y="2457" 
d="M384 0l119 673h-291l28 156h291l77 441h-455l29 164h1102l-29 -164h-455l-77 -441h291l-28 -156h-291l-118 -673h-193z" />
    <glyph glyph-name="tbar" unicode="&#x167;" horiz-adv-x="803" vert-adv-y="2457" 
d="M299 868h-182l28 156h187l68 284h165l-50 -284h322l-28 -156h-322l-37 -215h272l-22 -128h-273l-29 -167q-19 -109 -19 -148q0 -43 24 -60q29 -20 87 -20q78 0 160 37l5 -155q-116 -35 -237 -35t-178 42q-55 40 -55 130q0 65 19 177l35 199h-160l23 128h160z" />
    <glyph glyph-name="Utilde" unicode="&#x168;" horiz-adv-x="1441" vert-adv-y="2457" 
d="M345 1434h193l-150 -847q-24 -138 -24 -225q0 -223 290 -223q241 0 335 147q51 81 90 301l149 847h193l-160 -905q-24 -137 -44 -198q-65 -195 -212 -277q-137 -77 -357 -77q-480 0 -480 362q0 88 27 240zM1182 1838h128q-33 -109 -68 -167q-74 -122 -192 -122
q-73 0 -125 48q-21 19 -68 79q-25 31 -59 31q-75 0 -123 -141h-128q37 114 80 178q74 110 188 110q87 0 159 -91q37 -46 48 -55q19 -14 43 -14q71 0 117 144z" />
    <glyph glyph-name="utilde" unicode="&#x169;" horiz-adv-x="1219" vert-adv-y="2457" 
d="M797 119q-170 -142 -368 -142q-148 0 -228 68q-66 56 -66 170q0 74 25 216l105 593h188l-110 -621q-15 -87 -15 -140q0 -128 159 -128q180 0 318 126l134 763h188l-180 -1024h-156zM1002 1441h128q-33 -109 -68 -168q-73 -123 -192 -123q-93 0 -165 92q-35 45 -45 53
q-17 15 -42 15q-75 0 -123 -143h-128q36 114 80 180q73 110 188 110q55 0 96 -28q30 -21 64 -64q36 -46 47 -55q19 -15 43 -15q47 0 80 57q18 30 37 89z" />
    <glyph glyph-name="Umacron" unicode="&#x16a;" horiz-adv-x="1441" vert-adv-y="2457" 
d="M345 1434h193l-150 -847q-24 -138 -24 -225q0 -223 290 -223q241 0 335 147q51 81 90 301l149 847h193l-160 -905q-24 -137 -44 -198q-65 -195 -212 -277q-137 -77 -357 -77q-480 0 -480 362q0 88 27 240zM600 1629l26 144h593l-25 -144h-594z" />
    <glyph glyph-name="umacron" unicode="&#x16b;" horiz-adv-x="1219" vert-adv-y="2457" 
d="M797 119q-170 -142 -368 -142q-148 0 -228 68q-66 56 -66 170q0 74 25 216l105 593h188l-110 -621q-15 -87 -15 -140q0 -128 159 -128q180 0 318 126l134 763h188l-180 -1024h-156zM421 1231l26 144h593l-25 -144h-594z" />
    <glyph glyph-name="Ubreve" unicode="&#x16c;" horiz-adv-x="1441" vert-adv-y="2457" 
d="M345 1434h193l-150 -847q-24 -138 -24 -225q0 -223 290 -223q241 0 335 147q51 81 90 301l149 847h193l-160 -905q-24 -137 -44 -198q-65 -195 -212 -277q-137 -77 -357 -77q-480 0 -480 362q0 88 27 240zM605 1845h131q-1 -27 -1 -37q0 -61 35 -87q43 -31 134 -31
q125 0 176 58q28 32 45 97h137q-18 -121 -68 -185q-87 -112 -295 -112q-302 0 -302 212q0 35 8 85z" />
    <glyph glyph-name="ubreve" unicode="&#x16d;" horiz-adv-x="1219" vert-adv-y="2457" 
d="M797 119q-170 -142 -368 -142q-148 0 -228 68q-66 56 -66 170q0 74 25 216l105 593h188l-110 -621q-15 -87 -15 -140q0 -128 159 -128q180 0 318 126l134 763h188l-180 -1024h-156zM416 1446h131q-1 -29 -1 -36q0 -61 35 -86q43 -32 133 -32q126 0 177 58q27 31 45 96
h137q-18 -120 -68 -185q-87 -111 -295 -111q-302 0 -302 212q0 34 8 84z" />
    <glyph glyph-name="Uring" unicode="&#x16e;" horiz-adv-x="1441" vert-adv-y="2457" 
d="M345 1434h193l-150 -847q-24 -138 -24 -225q0 -223 290 -223q241 0 335 147q51 81 90 301l149 847h193l-160 -905q-24 -137 -44 -198q-65 -195 -212 -277q-137 -77 -357 -77q-480 0 -480 362q0 88 27 240zM929 1955q98 0 160 -61q56 -55 56 -147q0 -91 -56 -147
q-61 -61 -163 -61t-162 61q-57 56 -57 146q0 93 57 148q62 61 165 61zM928 1860q-56 0 -85 -35q-24 -30 -24 -78t24 -78q28 -35 83 -35t83 35q24 30 24 78q0 49 -24 78q-29 35 -81 35z" />
    <glyph glyph-name="uring" unicode="&#x16f;" horiz-adv-x="1219" vert-adv-y="2457" 
d="M797 119q-170 -142 -368 -142q-148 0 -228 68q-66 56 -66 170q0 74 25 216l105 593h188l-110 -621q-15 -87 -15 -140q0 -128 159 -128q180 0 318 126l134 763h188l-180 -1024h-156zM744 1558q98 0 159 -61q56 -56 56 -149q0 -90 -56 -147q-61 -61 -162 -61
q-102 0 -163 61q-56 57 -56 147q0 94 56 149q63 61 166 61zM742 1463q-56 0 -84 -35q-24 -31 -24 -79t24 -78q28 -36 82 -36q55 0 83 36q24 29 24 78q0 50 -24 79q-29 35 -81 35z" />
    <glyph glyph-name="Uhungarumlaut" unicode="&#x170;" horiz-adv-x="1441" vert-adv-y="2457" 
d="M345 1434h193l-150 -847q-24 -138 -24 -225q0 -223 290 -223q241 0 335 147q51 81 90 301l149 847h193l-160 -905q-24 -137 -44 -198q-65 -195 -212 -277q-137 -77 -357 -77q-480 0 -480 362q0 88 27 240zM647 1563l184 282h226l-268 -282h-142zM981 1563l184 282h226
l-269 -282h-141z" />
    <glyph glyph-name="uhungarumlaut" unicode="&#x171;" horiz-adv-x="1219" vert-adv-y="2457" 
d="M797 119q-170 -142 -368 -142q-148 0 -228 68q-66 56 -66 170q0 74 25 216l105 593h188l-110 -621q-15 -87 -15 -140q0 -128 159 -128q180 0 318 126l134 763h188l-180 -1024h-156zM474 1164l184 282h226l-268 -282h-142zM808 1164l184 282h226l-269 -282h-141z" />
    <glyph glyph-name="Uogonek" unicode="&#x172;" horiz-adv-x="1441" vert-adv-y="2457" 
d="M345 1434h193l-150 -847q-24 -138 -24 -224q0 -223 290 -223q241 0 335 147q51 80 90 300l149 847h193l-160 -905q-30 -172 -67 -259q-80 -187 -268 -251q-50 -18 -116 -29q-89 -51 -144 -100q-65 -57 -65 -120q0 -65 108 -65q66 0 137 21l5 -101q-97 -30 -198 -30
q-224 0 -224 148q0 138 219 234q-480 3 -480 363q0 87 27 239z" />
    <glyph glyph-name="uogonek" unicode="&#x173;" horiz-adv-x="1219" vert-adv-y="2457" 
d="M797 119q-170 -142 -368 -142q-148 0 -228 68q-66 56 -66 170q0 74 25 216l105 593h188l-110 -621q-15 -87 -15 -140q0 -128 159 -128q180 0 318 126l134 763h188l-180 -1024q-107 -60 -162 -110q-65 -59 -65 -121q0 -65 108 -65q66 0 137 21l5 -100q-97 -31 -198 -31
q-103 0 -163 36q-61 37 -61 112q0 114 129 190q50 30 147 68h-33z" />
    <glyph glyph-name="Wcircumflex" unicode="&#x174;" horiz-adv-x="1911" vert-adv-y="2457" 
d="M353 0l-177 1434h203l119 -1175l539 1175h155l132 -1180l526 1180h208l-682 -1434h-178l-127 1160l-533 -1160h-185zM1159 1727l-216 -164h-193l312 282h218l212 -282h-176z" />
    <glyph glyph-name="wcircumflex" unicode="&#x175;" horiz-adv-x="1700" vert-adv-y="2457" 
d="M322 0l-200 1024h191l134 -808l413 808h157l125 -809l416 809h200l-566 -1024h-170l-122 808l-410 -808h-168zM969 1328l-216 -164h-193l312 282h217l213 -282h-176z" />
    <glyph glyph-name="Ycircumflex" unicode="&#x176;" horiz-adv-x="1156" vert-adv-y="2457" 
d="M393 0l90 512l-339 922h211l254 -733l509 733h220l-662 -922l-91 -512h-192zM777 1727l-216 -164h-193l312 282h218l212 -282h-176z" />
    <glyph glyph-name="ycircumflex" unicode="&#x177;" horiz-adv-x="1075" vert-adv-y="2457" 
d="M358 -4l-253 1028h195l180 -828l462 828h205l-845 -1434h-207zM673 1328l-216 -164h-193l312 282h217l213 -282h-176z" />
    <glyph glyph-name="Ydieresis" unicode="&#x178;" horiz-adv-x="1156" vert-adv-y="2457" 
d="M393 0l90 512l-339 922h211l254 -733l509 733h220l-662 -922l-91 -512h-192zM553 1818q56 0 90 -35q29 -31 29 -81q0 -59 -39 -90q-33 -27 -83 -27q-59 0 -93 35q-29 31 -29 82q0 58 39 90q32 26 86 26zM982 1818q57 0 91 -35q29 -31 29 -81q0 -59 -39 -90
q-33 -27 -83 -27q-59 0 -93 35q-29 31 -29 82q0 58 39 90q32 26 85 26z" />
    <glyph glyph-name="Zacute" unicode="&#x179;" horiz-adv-x="1173" vert-adv-y="2457" 
d="M-81 0l1027 1270h-711l29 164h1029l-1025 -1270h773l-29 -164h-1093zM692 1563l210 282h253l-314 -282h-149z" />
    <glyph glyph-name="zacute" unicode="&#x17a;" horiz-adv-x="1015" vert-adv-y="2457" 
d="M-51 0l764 868h-525l27 156h835l-758 -868h580l-28 -156h-895zM550 1166l210 280h252l-313 -280h-149z" />
    <glyph glyph-name="Zdotaccent" unicode="&#x17b;" horiz-adv-x="1173" vert-adv-y="2457" 
d="M-81 0l1027 1270h-711l29 164h1029l-1025 -1270h773l-29 -164h-1093zM816 1819q60 0 96 -36q31 -32 31 -83q0 -60 -41 -92q-35 -27 -88 -27q-62 0 -98 36q-31 31 -31 85q0 57 41 90q34 27 90 27z" />
    <glyph glyph-name="zdotaccent" unicode="&#x17c;" horiz-adv-x="1015" vert-adv-y="2457" 
d="M-51 0l764 868h-525l27 156h835l-758 -868h580l-28 -156h-895zM671 1418q59 0 94 -35q31 -31 31 -82q0 -60 -41 -91q-33 -27 -86 -27q-61 0 -96 35q-31 32 -31 84q0 57 41 90q33 26 88 26z" />
    <glyph glyph-name="Zcaron" unicode="&#x17d;" horiz-adv-x="1173" vert-adv-y="2457" 
d="M-81 0l1027 1270h-711l29 164h1029l-1025 -1270h773l-29 -164h-1093zM822 1681l197 164h188l-284 -282h-218l-240 282h180z" />
    <glyph glyph-name="zcaron" unicode="&#x17e;" horiz-adv-x="1015" vert-adv-y="2457" 
d="M-51 0l764 868h-525l27 156h835l-758 -868h580l-28 -156h-895zM669 1282l198 164h188l-284 -282h-218l-240 282h180z" />
    <glyph glyph-name="florin" unicode="&#x192;" vert-adv-y="2457" 
d="M428 808l53 298q30 173 109 256q94 101 273 101q115 0 244 -50l-62 -151q-87 48 -161 48q-101 0 -154 -57q-44 -47 -66 -168l-48 -277h368l-27 -156h-369l-81 -465q-36 -206 -74 -300q-113 -281 -455 -297l27 153q68 8 104 22q109 44 163 218q27 89 50 223l78 446h-260
l28 156h260z" />
    <glyph glyph-name="uni01CD" unicode="&#x1cd;" horiz-adv-x="1372" vert-adv-y="2457" 
d="M1002 387h-678l-223 -387h-214l854 1434h196l355 -1434h-203zM966 543l-153 696l-398 -696h551zM854 1681l197 164h188l-284 -282h-218l-240 282h180z" />
    <glyph glyph-name="uni01CE" unicode="&#x1ce;" horiz-adv-x="1163" vert-adv-y="2457" 
d="M743 112q-49 -48 -77 -68q-99 -67 -248 -67q-356 0 -356 386q0 151 46 291q67 202 210 305q123 88 287 88q124 0 211 -38q29 -13 82 -48l24 63h149l-180 -1024h-151zM847 818q-94 73 -217 73q-200 0 -301 -194q-73 -141 -73 -320q0 -126 47 -184q50 -60 154 -60
q130 0 226 82q68 59 88 170zM716 1282l198 164h188l-284 -282h-218l-240 282h180z" />
    <glyph glyph-name="uni01D3" unicode="&#x1d3;" horiz-adv-x="1441" vert-adv-y="2457" 
d="M345 1434h193l-150 -847q-24 -138 -24 -225q0 -223 290 -223q241 0 335 147q51 81 90 301l149 847h193l-160 -905q-24 -137 -44 -198q-65 -195 -212 -277q-137 -77 -357 -77q-480 0 -480 362q0 88 27 240zM906 1681l197 164h188l-284 -282h-218l-240 282h180z" />
    <glyph glyph-name="uni01D4" unicode="&#x1d4;" horiz-adv-x="1219" vert-adv-y="2457" 
d="M797 119q-170 -142 -368 -142q-148 0 -228 68q-66 56 -66 170q0 74 25 216l105 593h188l-110 -621q-15 -87 -15 -140q0 -128 159 -128q180 0 318 126l134 763h188l-180 -1024h-156zM720 1282l198 164h188l-284 -282h-218l-240 282h180z" />
    <glyph glyph-name="Gcaron" unicode="&#x1e6;" horiz-adv-x="1405" vert-adv-y="2457" 
d="M773 575l27 150h492l-113 -638q-211 -110 -463 -110q-286 0 -430 126q-88 76 -128 200q-35 107 -35 224q0 209 77 417q101 270 310 402q176 111 420 111q238 0 441 -113l-64 -172q-64 47 -110 69q-113 54 -265 54q-323 0 -482 -265q-62 -104 -97 -241q-31 -123 -31 -244
q0 -211 101 -311q95 -95 291 -95q149 0 293 64l65 372h-299zM923 1681l197 164h188l-284 -282h-218l-240 282h180z" />
    <glyph glyph-name="gcaron" unicode="&#x1e7;" horiz-adv-x="1218" vert-adv-y="2457" 
d="M18 -368l62 155q147 -75 318 -75q210 0 293 120q48 69 68 180l16 90q-135 -125 -330 -125q-181 0 -275 95q-92 93 -92 274q0 141 46 287q131 414 518 414q176 0 311 -86l24 63h149l-163 -930q-27 -153 -54 -229q-57 -159 -198 -232q-126 -66 -297 -66q-125 0 -281 33
q-62 13 -115 32zM902 818q-111 73 -249 73q-131 0 -213 -73q-89 -80 -136 -245q-32 -110 -32 -210q0 -232 221 -232q134 0 242 94q75 66 93 173zM732 1282l198 164h188l-284 -282h-218l-240 282h180z" />
    <glyph glyph-name="uni01F4" unicode="&#x1f4;" horiz-adv-x="1405" vert-adv-y="2457" 
d="M773 575l27 150h492l-113 -638q-211 -110 -463 -110q-286 0 -430 126q-88 76 -128 200q-35 107 -35 224q0 209 77 417q101 270 310 402q176 111 420 111q238 0 441 -113l-64 -172q-64 47 -110 69q-113 54 -265 54q-323 0 -482 -265q-62 -104 -97 -241q-31 -123 -31 -244
q0 -211 101 -311q95 -95 291 -95q149 0 293 64l65 372h-299zM799 1563l210 282h253l-314 -282h-149z" />
    <glyph glyph-name="uni01F5" unicode="&#x1f5;" horiz-adv-x="1218" vert-adv-y="2457" 
d="M18 -368l62 155q147 -75 318 -75q210 0 293 120q48 69 68 180l16 90q-135 -125 -330 -125q-181 0 -275 95q-92 93 -92 274q0 141 46 287q131 414 518 414q176 0 311 -86l24 63h149l-163 -930q-27 -153 -54 -229q-57 -159 -198 -232q-126 -66 -297 -66q-125 0 -281 33
q-62 13 -115 32zM902 818q-111 73 -249 73q-131 0 -213 -73q-89 -80 -136 -245q-32 -110 -32 -210q0 -232 221 -232q134 0 242 94q75 66 93 173zM636 1166l210 280h252l-313 -280h-149z" />
    <glyph glyph-name="Scommaaccent" unicode="&#x218;" horiz-adv-x="1178" vert-adv-y="2457" 
d="M4 85l65 180q169 -126 402 -126q230 0 331 106q72 75 72 167q0 84 -62 132q-39 30 -87 51q-32 15 -115 50q-205 88 -290 157q-106 85 -106 239q0 187 142 305q133 111 367 111q170 0 308 -58q35 -15 103 -50l-66 -172q-60 44 -104 66q-110 53 -249 53q-151 0 -231 -66
q-76 -63 -76 -164q0 -84 71 -133q43 -29 234 -112q135 -59 184 -89q171 -106 171 -287q0 -104 -47 -202q-128 -266 -553 -266q-292 0 -464 108zM302 -404l115 279h197l-173 -279h-139z" />
    <glyph glyph-name="scommaaccent" unicode="&#x219;" horiz-adv-x="958" vert-adv-y="2457" 
d="M5 54l60 165q126 -97 314 -97q124 0 195 48q64 43 64 121q0 55 -46 88q-30 21 -158 81q-141 65 -203 124q-70 66 -70 169q0 132 101 215q96 79 269 79q188 0 340 -78l-59 -159q-118 92 -277 92q-90 0 -140 -37q-48 -35 -48 -93q0 -50 45 -86q40 -31 159 -85
q143 -66 201 -117q72 -63 72 -169q0 -154 -112 -247q-110 -91 -328 -91q-229 0 -379 77zM191 -404l115 279h197l-173 -279h-139z" />
    <glyph glyph-name="uni021A" unicode="&#x21a;" horiz-adv-x="1140" vert-adv-y="2457" 
d="M384 0l224 1270h-455l29 164h1102l-29 -164h-455l-223 -1270h-193zM254 -404l115 279h197l-173 -279h-139z" />
    <glyph glyph-name="uni021B" unicode="&#x21b;" horiz-adv-x="803" vert-adv-y="2457" 
d="M288 868h-182l28 156h187l68 284h165l-50 -284h322l-28 -156h-322l-87 -498q-20 -114 -20 -158t24 -62q26 -20 85 -20q80 0 161 37l5 -155q-116 -35 -236 -35q-121 0 -178 42q-55 40 -55 130q0 72 22 195zM94 -404l115 279h197l-173 -279h-139z" />
    <glyph glyph-name="afii57929" unicode="&#x2bc;" horiz-adv-x="419" vert-adv-y="2457" 
d="M161 945l148 489h206l-218 -489h-136z" />
    <glyph glyph-name="circumflex" unicode="&#x2c6;" horiz-adv-x="1024" vert-adv-y="2457" 
d="M661 1328l-216 -164h-193l312 282h217l213 -282h-176z" />
    <glyph glyph-name="caron" unicode="&#x2c7;" horiz-adv-x="1024" vert-adv-y="2457" 
d="M662 1282l198 164h188l-284 -282h-218l-240 282h180z" />
    <glyph glyph-name="uni02C9" unicode="&#x2c9;" horiz-adv-x="1024" vert-adv-y="2457" 
d="M342 1231l26 144h593l-25 -144h-594z" />
    <glyph glyph-name="breve" unicode="&#x2d8;" horiz-adv-x="1024" vert-adv-y="2457" 
d="M348 1446h131q-1 -29 -1 -36q0 -61 35 -86q43 -32 133 -32q126 0 177 58q27 31 45 96h137q-18 -120 -68 -185q-87 -111 -295 -111q-302 0 -302 212q0 34 8 84z" />
    <glyph glyph-name="dotaccent" unicode="&#x2d9;" horiz-adv-x="1024" vert-adv-y="2457" 
d="M653 1418q59 0 94 -35q31 -31 31 -82q0 -60 -41 -91q-33 -27 -86 -27q-61 0 -96 35q-31 32 -31 84q0 57 41 90q33 26 88 26z" />
    <glyph glyph-name="ring" unicode="&#x2da;" horiz-adv-x="1024" vert-adv-y="2457" 
d="M663 1558q99 0 160 -61q56 -56 56 -149q0 -91 -56 -147q-61 -61 -163 -61t-162 61q-57 57 -57 147q0 94 57 149q62 61 165 61zM662 1463q-57 0 -85 -35q-24 -31 -24 -79t24 -78q28 -36 83 -36q54 0 83 36q24 29 24 78q0 50 -24 79q-30 35 -81 35z" />
    <glyph glyph-name="ogonek" unicode="&#x2db;" horiz-adv-x="1024" vert-adv-y="2457" 
d="M447 0h123q-108 -60 -162 -110q-65 -59 -65 -121q0 -65 108 -65q66 0 137 21l5 -100q-97 -31 -198 -31q-224 0 -224 149q0 91 91 161q61 46 185 96z" />
    <glyph glyph-name="tilde" unicode="&#x2dc;" horiz-adv-x="1024" vert-adv-y="2457" 
d="M905 1441h128q-33 -109 -68 -168q-73 -123 -192 -123q-93 0 -165 92q-35 45 -45 53q-17 15 -42 15q-75 0 -123 -143h-128q36 114 80 180q73 110 188 110q55 0 96 -28q30 -21 64 -64q36 -46 47 -55q19 -15 43 -15q47 0 80 57q18 30 37 89z" />
    <glyph glyph-name="hungarumlaut" unicode="&#x2dd;" horiz-adv-x="1024" vert-adv-y="2457" 
d="M388 1164l184 282h226l-268 -282h-142zM722 1164l184 282h226l-269 -282h-141z" />
    <glyph glyph-name="erotimatico" unicode="&#x37e;" horiz-adv-x="590" vert-adv-y="2457" 
d="M53 -279l156 504h206l-227 -504h-135zM413 1046q58 0 100 -44q36 -37 36 -90q0 -60 -46 -99q-40 -34 -93 -34q-61 0 -103 44q-36 37 -36 91q0 58 47 98q40 34 95 34z" />
    <glyph glyph-name="uni0387" unicode="&#x387;" horiz-adv-x="590" vert-adv-y="2457" 
d="M317 752q58 0 100 -44q36 -37 36 -89q0 -61 -46 -100q-40 -34 -93 -34q-61 0 -103 44q-36 37 -36 91q0 58 47 98q40 34 95 34z" />
    <glyph glyph-name="uni0400" unicode="&#x400;" horiz-adv-x="1233" vert-adv-y="2457" 
d="M105 0l253 1434h929l-29 -164h-737l-77 -441h660l-29 -164h-661l-87 -501h749l-29 -164h-942zM958 1563h-142l-221 282h237z" />
    <glyph glyph-name="afii10023" unicode="&#x401;" horiz-adv-x="1233" vert-adv-y="2457" 
d="M105 0l253 1434h929l-29 -164h-737l-77 -441h660l-29 -164h-661l-87 -501h749l-29 -164h-942zM639 1818q56 0 90 -35q29 -31 29 -81q0 -59 -39 -90q-33 -27 -83 -27q-59 0 -93 35q-29 31 -29 82q0 58 39 90q32 26 86 26zM1068 1818q57 0 91 -35q29 -31 29 -81
q0 -59 -39 -90q-33 -27 -83 -27q-59 0 -93 35q-29 31 -29 82q0 58 39 90q32 26 85 26z" />
    <glyph glyph-name="afii10051" unicode="&#x402;" horiz-adv-x="1592" vert-adv-y="2457" 
d="M277 0l223 1270h-355l29 164h1087l-29 -164h-539l-80 -457q208 136 440 136q180 0 281 -74q95 -71 95 -218q0 -81 -26 -229l-43 -243q-35 -201 -75 -299q-112 -277 -458 -295l27 153q68 7 104 21q109 45 163 219q27 88 49 212l43 250q17 95 17 160q0 93 -53 134
q-61 46 -180 46q-232 0 -418 -160l-110 -626h-192z" />
    <glyph glyph-name="afii10052" unicode="&#x403;" horiz-adv-x="1148" vert-adv-y="2457" 
d="M105 0l253 1434h902l-29 -164h-710l-223 -1270h-193zM710 1563l210 282h253l-314 -282h-149z" />
    <glyph glyph-name="afii10053" unicode="&#x404;" horiz-adv-x="1254" vert-adv-y="2457" 
d="M334 667q-12 -77 -12 -135q0 -393 402 -393q148 0 271 53q53 22 127 69l1 -180q-195 -104 -421 -104q-286 0 -439 151q-140 138 -140 395q0 197 65 393q98 297 319 434q172 107 408 107q230 0 414 -107l-65 -175q-56 45 -102 68q-104 52 -246 52q-408 0 -545 -464h697
l-29 -164h-705z" />
    <glyph glyph-name="afii10054" unicode="&#x405;" horiz-adv-x="1178" vert-adv-y="2457" 
d="M4 85l65 180q169 -126 402 -126q230 0 331 106q72 75 72 167q0 84 -62 132q-39 30 -87 51q-32 15 -115 50q-205 88 -290 157q-106 85 -106 239q0 187 142 305q133 111 367 111q170 0 308 -58q35 -15 103 -50l-66 -172q-60 44 -104 66q-110 53 -249 53q-151 0 -231 -66
q-76 -63 -76 -164q0 -84 71 -133q43 -29 234 -112q135 -59 184 -89q171 -106 171 -287q0 -104 -47 -202q-128 -266 -553 -266q-292 0 -464 108z" />
    <glyph glyph-name="afii10055" unicode="&#x406;" horiz-adv-x="597" vert-adv-y="2457" 
d="M112 0l253 1434h192l-252 -1434h-193z" />
    <glyph glyph-name="afii10056" unicode="&#x407;" horiz-adv-x="597" vert-adv-y="2457" 
d="M104 0l253 1434h192l-252 -1434h-193zM275 1818q56 0 90 -35q29 -31 29 -81q0 -59 -39 -90q-33 -27 -83 -27q-59 0 -93 35q-29 31 -29 82q0 58 39 90q32 26 86 26zM704 1818q57 0 91 -35q29 -31 29 -81q0 -59 -39 -90q-33 -27 -83 -27q-59 0 -93 35q-29 31 -29 82
q0 58 39 90q32 26 85 26z" />
    <glyph glyph-name="afii10057" unicode="&#x408;" horiz-adv-x="970" vert-adv-y="2457" 
d="M750 1434h192l-162 -920q-29 -165 -60 -249q-109 -288 -451 -288q-232 0 -362 108l66 177q64 -54 92 -73q77 -49 190 -49q169 0 243 103q56 77 91 277z" />
    <glyph glyph-name="afii10058" unicode="&#x409;" horiz-adv-x="2059" vert-adv-y="2457" 
d="M866 0l223 1270h-477l-16 -90q-126 -684 -261 -948q-72 -140 -168 -193q-72 -39 -191 -39h-100l29 164h44q91 0 144 45q98 86 188 416q75 273 129 576l41 233h860l-101 -573h218q297 0 418 -74q137 -83 137 -278q0 -142 -64 -264q-85 -159 -259 -208q-132 -37 -333 -37
h-461zM1088 164h231q177 0 270 32q96 33 148 120q47 79 47 173q0 119 -96 168q-78 40 -276 40h-231z" />
    <glyph glyph-name="afii10059" unicode="&#x40a;" horiz-adv-x="2150" vert-adv-y="2457" 
d="M957 0l119 677h-659l-119 -677h-193l253 1434h192l-104 -593h660l104 593h192l-102 -582h218q296 0 417 -73q137 -83 137 -277q0 -141 -64 -260q-84 -157 -257 -206q-131 -36 -332 -36h-462zM1179 164h231q176 0 270 32q95 31 147 117q46 77 46 169q0 118 -96 167
q-78 39 -275 39h-231z" />
    <glyph glyph-name="afii10060" unicode="&#x40b;" horiz-adv-x="1592" vert-adv-y="2457" 
d="M1327 0h-192l78 446q17 95 17 160q0 93 -53 134q-61 46 -180 46q-232 0 -418 -160l-110 -626h-192l223 1270h-355l29 164h1087l-29 -164h-539l-80 -457q208 136 440 136q180 0 281 -74q95 -71 95 -218q0 -81 -26 -229z" />
    <glyph glyph-name="afii10061" unicode="&#x40c;" horiz-adv-x="1274" vert-adv-y="2457" 
d="M104 0l253 1434h192l-111 -632l712 632h246l-768 -661l560 -773h-226l-532 758l-133 -758h-193zM741 1563l210 282h253l-314 -282h-149z" />
    <glyph glyph-name="uni040D" unicode="&#x40d;" horiz-adv-x="1479" vert-adv-y="2457" 
d="M105 0l253 1434h183l-198 -1127l932 1127h172l-252 -1434h-183l198 1127l-933 -1127h-172zM1026 1563h-142l-221 282h237z" />
    <glyph glyph-name="afii10062" unicode="&#x40e;" horiz-adv-x="1172" vert-adv-y="2457" 
d="M464 459l-359 975h210l278 -803l529 803h221l-992 -1434h-222zM434 1845h131q-1 -27 -1 -37q0 -61 35 -87q43 -31 134 -31q125 0 176 58q28 32 45 97h137q-18 -121 -68 -185q-87 -112 -295 -112q-302 0 -302 212q0 35 8 85z" />
    <glyph glyph-name="afii10145" unicode="&#x40f;" horiz-adv-x="1431" vert-adv-y="2457" 
d="M105 0l253 1434h192l-223 -1270h657l223 1270h193l-253 -1434h-420l-90 -297h-127l15 297h-420z" />
    <glyph glyph-name="afii10017" unicode="&#x410;" horiz-adv-x="1372" vert-adv-y="2457" 
d="M1002 387h-678l-223 -387h-214l854 1434h196l355 -1434h-203zM966 543l-153 696l-398 -696h551z" />
    <glyph glyph-name="afii10018" unicode="&#x411;" horiz-adv-x="1319" vert-adv-y="2457" 
d="M104 0l253 1434h915l-29 -164h-723l-71 -409h222q300 0 419 -76q130 -83 130 -270q0 -141 -61 -262q-84 -165 -261 -216q-131 -37 -332 -37h-462zM326 164h231q176 0 270 32q97 34 148 122q46 80 46 174q0 118 -95 166q-79 39 -275 39h-232z" />
    <glyph glyph-name="afii10019" unicode="&#x412;" horiz-adv-x="1339" vert-adv-y="2457" 
d="M105 0l253 1434h474q245 0 352 -62q120 -69 120 -239q0 -179 -122 -293q-56 -53 -162 -85q98 -30 141 -75q69 -71 69 -207q0 -142 -70 -266q-68 -120 -203 -166q-120 -41 -314 -41h-538zM444 832h251q143 0 213 16q118 27 171 138q29 62 29 125q0 95 -80 132
q-59 27 -214 27h-293zM327 164h278q231 0 318 65q108 82 108 246q0 126 -102 168q-71 29 -269 29h-244z" />
    <glyph glyph-name="afii10020" unicode="&#x413;" horiz-adv-x="1148" vert-adv-y="2457" 
d="M105 0l253 1434h902l-29 -164h-710l-223 -1270h-193z" />
    <glyph glyph-name="afii10021" unicode="&#x414;" horiz-adv-x="1507" vert-adv-y="2457" 
d="M1153 0h-1092l-97 -297h-129l82 460h144q86 83 140 166q109 165 199 461q60 198 98 412l41 232h895l-223 -1270h144l-81 -461h-130zM1018 164l194 1106h-511l-18 -102q-24 -138 -92 -375q-80 -281 -185 -458q-49 -84 -124 -171h736z" />
    <glyph glyph-name="afii10022" unicode="&#x415;" horiz-adv-x="1233" vert-adv-y="2457" 
d="M105 0l253 1434h929l-29 -164h-737l-77 -441h660l-29 -164h-661l-87 -501h749l-29 -164h-942z" />
    <glyph glyph-name="afii10024" unicode="&#x416;" horiz-adv-x="1880" vert-adv-y="2457" 
d="M759 0l132 746l-712 -746h-260l796 789l-487 645h225l446 -643l113 643h181l-113 -643l657 643h248l-726 -669l514 -765h-233l-468 746l-131 -746h-182z" />
    <glyph glyph-name="afii10025" unicode="&#x417;" horiz-adv-x="1187" vert-adv-y="2457" 
d="M-29 76l65 177q73 -47 120 -66q122 -52 292 -52q250 0 355 117q83 92 83 217q0 137 -123 178q-75 24 -200 24h-299l29 162h246q191 0 288 72q60 45 91 111q24 50 24 104q0 179 -285 179q-152 0 -287 -55q-54 -22 -138 -69l-2 177q225 105 465 105q210 0 327 -80
q117 -79 117 -235q0 -164 -116 -277q-59 -57 -159 -94q221 -54 221 -283q0 -110 -43 -211q-128 -300 -588 -300q-273 0 -483 99z" />
    <glyph glyph-name="afii10026" unicode="&#x418;" horiz-adv-x="1479" vert-adv-y="2457" 
d="M105 0l253 1434h183l-198 -1127l932 1127h172l-252 -1434h-183l198 1127l-933 -1127h-172z" />
    <glyph glyph-name="afii10027" unicode="&#x419;" horiz-adv-x="1479" vert-adv-y="2457" 
d="M105 0l253 1434h183l-198 -1127l932 1127h172l-252 -1434h-183l198 1127l-933 -1127h-172zM630 1845h131q-1 -27 -1 -37q0 -61 35 -87q43 -31 134 -31q125 0 176 58q28 32 45 97h137q-18 -121 -68 -185q-87 -112 -295 -112q-302 0 -302 212q0 35 8 85z" />
    <glyph glyph-name="afii10028" unicode="&#x41a;" horiz-adv-x="1274" vert-adv-y="2457" 
d="M104 0l253 1434h192l-111 -632l712 632h246l-768 -661l560 -773h-226l-532 758l-133 -758h-193z" />
    <glyph glyph-name="afii10029" unicode="&#x41b;" horiz-adv-x="1388" vert-adv-y="2457" 
d="M-124 0l29 164h44q91 0 144 45q98 86 188 416q75 274 129 577l41 232h905l-253 -1434h-192l223 1270h-522l-16 -90q-126 -685 -261 -948q-72 -140 -168 -193q-72 -39 -191 -39h-100z" />
    <glyph glyph-name="afii10030" unicode="&#x41c;" horiz-adv-x="1765" vert-adv-y="2457" 
d="M105 0l253 1434h175l356 -854l655 854h190l-253 -1434h-190l194 1103l-633 -810h-15l-349 810l-193 -1103h-190z" />
    <glyph glyph-name="afii10031" unicode="&#x41d;" horiz-adv-x="1488" vert-adv-y="2457" 
d="M105 0l253 1434h192l-106 -605h714l106 605h193l-253 -1434h-193l117 665h-714l-116 -665h-193z" />
    <glyph glyph-name="afii10032" unicode="&#x41e;" horiz-adv-x="1512" vert-adv-y="2457" 
d="M897 1457q178 0 316 -71q247 -129 247 -487q0 -177 -54 -358q-87 -287 -277 -432q-173 -132 -432 -132q-264 0 -408 121q-85 72 -126 190q-40 115 -40 244q0 173 55 355q171 570 719 570zM883 1295q-314 0 -454 -286q-51 -103 -81 -254q-26 -126 -26 -240
q0 -376 386 -376q307 0 446 281q52 104 83 262q24 123 24 233q0 184 -93 278q-51 52 -126 76q-81 26 -159 26z" />
    <glyph glyph-name="afii10033" unicode="&#x41f;" horiz-adv-x="1469" vert-adv-y="2457" 
d="M105 0l253 1434h1079l-253 -1434h-192l223 1270h-694l-223 -1270h-193z" />
    <glyph glyph-name="afii10034" unicode="&#x420;" horiz-adv-x="1272" vert-adv-y="2457" 
d="M105 0l253 1434h405q287 0 404 -82q130 -91 130 -292q0 -154 -70 -283q-84 -156 -250 -214q-129 -44 -321 -44h-267l-91 -519h-193zM418 683h239q163 0 250 34q98 38 146 137q45 91 45 193q0 128 -88 180q-72 43 -250 43h-239z" />
    <glyph glyph-name="afii10035" unicode="&#x421;" horiz-adv-x="1238" vert-adv-y="2457" 
d="M1106 261v-183q-195 -101 -414 -101q-260 0 -404 120q-79 66 -118 168q-47 122 -47 261q0 193 66 388q101 298 315 435q169 108 400 108q227 0 408 -111l-64 -171q-56 45 -100 68q-102 52 -241 52q-310 0 -463 -270q-62 -109 -95 -254q-27 -118 -27 -231q0 -401 394 -401
q145 0 266 53q53 23 124 69z" />
    <glyph glyph-name="afii10036" unicode="&#x422;" horiz-adv-x="1140" vert-adv-y="2457" 
d="M384 0l224 1270h-455l29 164h1102l-29 -164h-455l-223 -1270h-193z" />
    <glyph glyph-name="afii10037" unicode="&#x423;" horiz-adv-x="1172" vert-adv-y="2457" 
d="M464 459l-359 975h210l278 -803l529 803h221l-992 -1434h-222z" />
    <glyph glyph-name="afii10038" unicode="&#x424;" horiz-adv-x="1760" vert-adv-y="2457" 
d="M727 123q-217 13 -351 81q-236 120 -236 414q0 213 113 385q145 221 441 282q106 22 243 28l31 178h177l-31 -180q219 -14 352 -82q234 -118 234 -408q0 -209 -107 -380q-143 -228 -446 -292q-108 -22 -243 -28l-32 -178h-177zM753 268l158 898q-96 -7 -168 -22
q-228 -49 -329 -235q-75 -138 -75 -300q0 -219 187 -296q75 -31 227 -45zM930 268q98 8 167 23q228 47 329 234q75 138 75 302q0 218 -191 297q-66 27 -222 42z" />
    <glyph glyph-name="afii10039" unicode="&#x425;" horiz-adv-x="1295" vert-adv-y="2457" 
d="M571 763l-323 671h218l255 -540l446 540h228l-591 -686l357 -748h-218l-287 608l-528 -608h-228z" />
    <glyph glyph-name="afii10040" unicode="&#x426;" horiz-adv-x="1466" vert-adv-y="2457" 
d="M105 0l253 1434h192l-223 -1270h657l223 1270h193l-224 -1271h146l-82 -460h-129l9 297h-1015z" />
    <glyph glyph-name="afii10041" unicode="&#x427;" horiz-adv-x="1393" vert-adv-y="2457" 
d="M915 0l92 521q-201 -129 -420 -129q-178 0 -276 71t-98 216q0 90 34 281l84 474h192l-93 -531q-17 -94 -17 -163q0 -90 48 -134q57 -51 179 -51q228 0 399 146l129 733h192l-252 -1434h-193z" />
    <glyph glyph-name="afii10042" unicode="&#x428;" horiz-adv-x="2099" vert-adv-y="2457" 
d="M105 0l253 1434h192l-223 -1270h564l223 1270h193l-223 -1270h567l223 1270h193l-253 -1434h-1709z" />
    <glyph glyph-name="afii10043" unicode="&#x429;" horiz-adv-x="2133" vert-adv-y="2457" 
d="M105 0l253 1434h192l-223 -1270h564l223 1270h193l-223 -1270h567l223 1270h193l-224 -1271h146l-81 -460h-129l8 297h-1682z" />
    <glyph glyph-name="afii10044" unicode="&#x42a;" horiz-adv-x="1538" vert-adv-y="2457" 
d="M344 0l223 1270h-425l29 164h618l-100 -573h218q296 0 417 -74q137 -84 137 -278q0 -143 -64 -264q-85 -160 -259 -208q-131 -37 -332 -37h-462zM566 164h231q177 0 271 32q95 33 147 120q47 79 47 173q0 120 -96 168q-78 40 -275 40h-232z" />
    <glyph glyph-name="afii10045" unicode="&#x42b;" horiz-adv-x="1833" vert-adv-y="2457" 
d="M104 0l253 1434h192l-100 -573h218q296 0 417 -74q136 -84 136 -278q0 -142 -64 -264q-85 -159 -258 -208q-132 -37 -332 -37h-462zM326 164h231q176 0 270 32q95 33 147 120q47 79 47 173q0 120 -95 168q-78 40 -275 40h-232zM1355 0l253 1434h192l-252 -1434h-193z" />
    <glyph glyph-name="afii10046" unicode="&#x42c;" horiz-adv-x="1298" vert-adv-y="2457" 
d="M104 0l253 1434h192l-100 -573h218q296 0 417 -74q136 -84 136 -278q0 -142 -64 -264q-85 -159 -258 -208q-132 -37 -332 -37h-462zM326 164h231q176 0 270 32q95 33 147 120q47 79 47 173q0 120 -95 168q-78 40 -275 40h-232z" />
    <glyph glyph-name="afii10047" unicode="&#x42d;" horiz-adv-x="1254" vert-adv-y="2457" 
d="M-20 84l65 177q59 -47 104 -69q106 -53 258 -53q318 0 468 258q59 100 98 267h-703l29 164h698q6 48 6 83q0 156 -70 255q-92 129 -309 129q-147 0 -271 -52q-52 -22 -129 -68l-2 178q208 104 420 104q274 0 417 -147q144 -148 144 -413q0 -184 -55 -364
q-169 -556 -734 -556q-246 0 -434 107z" />
    <glyph glyph-name="afii10048" unicode="&#x42e;" horiz-adv-x="2116" vert-adv-y="2457" 
d="M105 0l253 1434h192l-106 -607h363q56 213 140 337q199 293 565 293q182 0 314 -71q239 -129 239 -487q0 -177 -53 -358q-84 -287 -268 -432q-168 -132 -420 -132q-257 0 -394 121q-82 73 -122 190q-39 112 -39 239q0 57 9 136h-364l-116 -663h-193zM1507 1295
q-302 0 -437 -287q-47 -101 -77 -253q-25 -128 -25 -239q0 -377 367 -377q295 0 429 281q49 104 79 262q23 123 23 228q0 189 -88 283q-49 52 -120 76q-77 26 -151 26z" />
    <glyph glyph-name="afii10049" unicode="&#x42f;" horiz-adv-x="1348" vert-adv-y="2457" 
d="M971 568h-320l-445 -568h-225l497 609q-131 41 -178 88q-88 89 -88 257q0 137 62 249q83 147 245 194q128 37 338 37h459l-253 -1434h-192zM1000 732l94 538h-278q-154 0 -239 -33q-83 -32 -125 -112q-41 -77 -41 -173q0 -130 87 -180q72 -40 224 -40h278z" />
    <glyph glyph-name="afii10065" unicode="&#x430;" horiz-adv-x="1162" vert-adv-y="2457" 
d="M743 112q-49 -48 -77 -68q-99 -67 -248 -67q-356 0 -356 386q0 151 46 291q67 202 210 305q123 88 287 88q124 0 211 -38q29 -13 82 -48l24 63h149l-180 -1024h-151zM847 818q-94 73 -217 73q-200 0 -301 -194q-73 -141 -73 -320q0 -126 47 -184q50 -60 154 -60
q130 0 226 82q68 59 88 170z" />
    <glyph glyph-name="afii10066" unicode="&#x431;" horiz-adv-x="1192" vert-adv-y="2457" 
d="M389 896q55 38 93 59q121 66 259 66q368 0 368 -374q0 -134 -42 -267q-63 -202 -188 -300q-130 -103 -347 -103q-226 0 -328 110q-48 52 -71 139q-21 76 -21 155q0 179 67 426q107 396 296 521q106 69 268 91q109 15 283 15h91l-32 -152h-68q-222 0 -340 -39
q-155 -52 -227 -192q-28 -55 -61 -155zM351 715q-49 -194 -49 -334q0 -123 52 -184q55 -64 185 -64q138 0 219 71q82 72 127 228q30 105 30 204q0 110 -45 164q-55 65 -180 65q-128 0 -243 -76q-33 -21 -71 -52q-25 -21 -25 -22z" />
    <glyph glyph-name="afii10067" unicode="&#x432;" horiz-adv-x="1183" vert-adv-y="2457" 
d="M921 547q158 -43 158 -207q0 -93 -40 -173q-56 -115 -195 -160q-94 -31 -259 -31q-180 0 -278 39q-223 89 -223 374q0 163 62 319q72 179 224 265q130 74 334 74q417 0 417 -240q0 -111 -70 -184q-41 -44 -130 -76zM311 610h291q171 0 234 28q92 41 92 136
q0 117 -234 117q-199 0 -301 -123q-50 -59 -82 -158zM282 467q-5 -40 -5 -77q0 -138 69 -201q63 -57 225 -57q191 0 256 63q57 55 57 141q0 84 -79 111q-56 20 -205 20h-318z" />
    <glyph glyph-name="afii10068" unicode="&#x433;" horiz-adv-x="934" vert-adv-y="2457" 
d="M233 810l-2 162q161 75 333 75q146 0 225 -61q80 -62 80 -177q0 -128 -92 -214q-64 -61 -292 -146q-130 -49 -156 -61q-112 -53 -112 -147q0 -119 208 -119q189 0 348 97v-165q-161 -77 -373 -77q-366 0 -366 247q0 139 93 225q43 41 131 81q45 20 162 63q177 65 228 115
q39 37 39 90q0 49 -41 77q-41 27 -110 27q-156 0 -303 -92z" />
    <glyph glyph-name="afii10069" unicode="&#x434;" horiz-adv-x="1208" vert-adv-y="2457" 
d="M931 944q-1 11 -2 38q-3 74 -51 149q-54 84 -180 114q-121 30 -310 37l29 152q323 -15 465 -84q247 -119 247 -597q0 -270 -79 -456q-73 -174 -235 -259q-115 -61 -281 -61q-215 0 -334 107q-117 104 -117 294q0 142 47 279q67 199 219 299q122 80 286 80q180 0 296 -92z
M669 880q-229 0 -323 -194q-69 -140 -69 -299q0 -133 64 -192q67 -62 197 -62q228 0 323 189q68 138 68 296q0 134 -56 194q-64 68 -204 68z" />
    <glyph glyph-name="afii10070" unicode="&#x435;" horiz-adv-x="1097" vert-adv-y="2457" 
d="M276 431q-4 -44 -4 -70q0 -234 301 -234q106 0 211 36q48 17 124 53l4 -163q-166 -76 -369 -76q-461 0 -461 396q0 135 44 271q64 195 204 302q135 102 344 102q179 0 281 -69q98 -66 98 -200q0 -112 -56 -192q-54 -77 -198 -112q-121 -29 -480 -42zM300 578q48 0 201 10
q249 16 320 63q55 37 55 115q0 132 -208 132q-207 0 -303 -158q-40 -67 -65 -162z" />
    <glyph glyph-name="afii10072" unicode="&#x436;" horiz-adv-x="1877" vert-adv-y="2457" 
d="M749 0l82 467h-173q-35 -181 -111 -298q-125 -192 -338 -192q-101 0 -188 34q-27 10 -81 37l64 172q81 -87 182 -87q151 0 237 185q67 145 67 322q0 252 -181 252q-90 0 -179 -72l-3 165q104 62 226 62q152 0 234 -97q89 -107 89 -298q0 -15 -1 -41h182l72 413h184
l-72 -413h176q38 153 109 253q129 183 339 183q112 0 214 -62l-64 -165q-58 72 -142 72q-148 0 -234 -185q-67 -145 -67 -319q0 -255 184 -255q101 0 215 87l2 -172q-124 -71 -258 -71q-158 0 -238 96q-91 108 -91 304q0 38 6 90h-177l-82 -467h-184z" />
    <glyph glyph-name="afii10073" unicode="&#x437;" horiz-adv-x="1059" vert-adv-y="2457" 
d="M-4 62l60 156q166 -85 361 -85q322 0 322 202q0 80 -69 109q-54 22 -154 22h-303l25 142h248q144 0 205 38q78 49 78 129q0 117 -220 117q-175 0 -352 -78l-5 157q178 76 394 76q376 0 376 -249q0 -175 -171 -245q143 -43 143 -204q0 -162 -122 -267q-120 -105 -381 -105
q-246 0 -435 85z" />
    <glyph glyph-name="afii10074" unicode="&#x438;" horiz-adv-x="1219" vert-adv-y="2457" 
d="M797 119q-170 -142 -368 -142q-148 0 -228 68q-66 56 -66 170q0 74 25 216l105 593h188l-110 -621q-15 -87 -15 -140q0 -128 159 -128q180 0 318 126l134 763h188l-180 -1024h-156z" />
    <glyph glyph-name="afii10075" unicode="&#x439;" horiz-adv-x="1219" vert-adv-y="2457" 
d="M797 119q-170 -142 -368 -142q-148 0 -228 68q-66 56 -66 170q0 74 25 216l105 593h188l-110 -621q-15 -87 -15 -140q0 -128 159 -128q180 0 318 126l134 763h188l-180 -1024h-156zM426 1446h131q-1 -29 -1 -36q0 -61 35 -86q43 -32 133 -32q126 0 177 58q27 31 45 96
h137q-18 -120 -68 -185q-87 -111 -295 -111q-302 0 -302 212q0 34 8 84z" />
    <glyph glyph-name="afii10076" unicode="&#x43a;" horiz-adv-x="1122" vert-adv-y="2457" 
d="M92 0l180 1024h189l-78 -443l556 443h245l-612 -468l482 -556h-226l-453 542l-95 -542h-188z" />
    <glyph glyph-name="afii10077" unicode="&#x43b;" horiz-adv-x="1195" vert-adv-y="2457" 
d="M-102 0l27 151h38q86 0 130 35q80 64 141 271q43 147 88 402l29 165h752l-180 -1024h-188l152 868h-389l-14 -79q-75 -426 -176 -608q-100 -181 -329 -181h-81z" />
    <glyph glyph-name="afii10078" unicode="&#x43c;" horiz-adv-x="1457" vert-adv-y="2457" 
d="M92 0l180 1024h156l276 -602l488 602h173l-180 -1024h-178l129 733l-453 -552h-26l-259 552l-129 -733h-177z" />
    <glyph glyph-name="afii10079" unicode="&#x43d;" horiz-adv-x="1257" vert-adv-y="2457" 
d="M92 0l180 1024h189l-72 -408h517l71 408h188l-180 -1024h-188l81 460h-517l-81 -460h-188z" />
    <glyph glyph-name="afii10080" unicode="&#x43e;" horiz-adv-x="1208" vert-adv-y="2457" 
d="M670 1047q213 0 333 -105q120 -104 120 -309q0 -161 -60 -317q-130 -339 -516 -339q-204 0 -324 89q-139 102 -139 326q0 161 60 316q131 339 526 339zM658 891q-202 0 -289 -143q-91 -151 -91 -352q0 -136 67 -198q69 -65 209 -65q197 0 284 143q91 150 91 353
q0 262 -271 262z" />
    <glyph glyph-name="afii10081" unicode="&#x43f;" horiz-adv-x="1265" vert-adv-y="2457" 
d="M92 0l180 1024h153l-8 -135q65 50 151 90q143 68 280 68q148 0 223 -69q63 -58 63 -158q0 -65 -21 -185l-112 -635h-188l112 636q13 75 13 124q0 129 -152 129q-113 0 -250 -70q-72 -37 -127 -82l-129 -737h-188z" />
    <glyph glyph-name="afii10082" unicode="&#x440;" horiz-adv-x="1216" vert-adv-y="2457" 
d="M299 108l-91 -518h-188l253 1434h146l-3 -111q69 50 123 77q113 57 237 57q361 0 361 -388q0 -126 -40 -264q-63 -215 -185 -313q-132 -105 -311 -105q-136 0 -223 55q-38 24 -79 76zM414 762l-56 -318q-13 -77 -13 -113q0 -80 65 -138q66 -60 172 -60q124 0 205 74
q77 70 123 233q33 113 33 216q0 114 -42 169q-51 66 -166 66q-104 0 -212 -58q-45 -25 -109 -71z" />
    <glyph glyph-name="afii10083" unicode="&#x441;" horiz-adv-x="995" vert-adv-y="2457" 
d="M837 220l2 -172q-158 -71 -333 -71q-210 0 -317 109q-105 106 -105 295q0 139 49 280q73 212 236 312q121 74 285 74q172 0 331 -90l-63 -162q-114 96 -260 96q-200 0 -305 -179q-79 -134 -79 -304q0 -275 269 -275q100 0 192 38q38 15 98 49z" />
    <glyph glyph-name="afii10084" unicode="&#x442;" horiz-adv-x="1866" vert-adv-y="2457" 
d="M92 0l180 1024h153l-8 -135q61 49 142 91q131 67 260 67q151 0 214 -80q22 -27 37 -82q202 162 407 162q136 0 202 -69q55 -58 55 -153q0 -71 -21 -190l-112 -635h-188l112 636q13 74 13 132q0 121 -123 121q-105 0 -231 -72q-65 -37 -114 -81l-130 -736h-188l112 633
q15 87 15 136q0 120 -125 120q-103 0 -229 -70q-64 -36 -116 -82l-129 -737h-188z" />
    <glyph glyph-name="afii10085" unicode="&#x443;" horiz-adv-x="1075" vert-adv-y="2457" 
d="M358 -4l-253 1028h195l180 -828l462 828h205l-845 -1434h-207z" />
    <glyph glyph-name="afii10086" unicode="&#x444;" horiz-adv-x="1736" vert-adv-y="2457" 
d="M619 -410l94 537q-49 -56 -85 -82q-93 -68 -218 -68q-110 0 -192 51q-137 84 -137 329q0 146 45 298q115 393 440 393q122 0 203 -50q30 -18 86 -66l89 502h171l-88 -502q71 48 105 67q89 49 201 49q324 0 324 -381q0 -136 -43 -284q-116 -406 -438 -406q-139 0 -223 67
q-32 26 -68 83l-95 -537h-171zM829 783q-40 39 -70 61q-67 48 -159 48q-170 0 -253 -179q-33 -71 -53 -168q-19 -90 -19 -170q0 -122 42 -181q44 -61 146 -61q135 0 232 108q48 54 67 161zM999 777l-64 -365q-9 -53 -9 -84q0 -76 50 -129q61 -66 164 -66q109 0 178 71
q68 71 111 226q34 124 34 230q0 118 -41 174q-42 58 -140 58q-129 0 -283 -115z" />
    <glyph glyph-name="afii10087" unicode="&#x445;" horiz-adv-x="1119" vert-adv-y="2457" 
d="M450 537l-299 487h223l217 -371l335 371h231l-479 -488l328 -536h-223l-246 422l-384 -422h-233z" />
    <glyph glyph-name="afii10088" unicode="&#x446;" horiz-adv-x="1245" vert-adv-y="2457" 
d="M797 119q-171 -142 -368 -142q-149 0 -228 68q-66 57 -66 170q0 74 25 217l105 592h188l-110 -621q-15 -87 -15 -139q0 -128 159 -128q181 0 318 125l134 763h188l-152 -865h159l-81 -456h-123l8 297h-147z" />
    <glyph glyph-name="afii10089" unicode="&#x447;" horiz-adv-x="1210" vert-adv-y="2457" 
d="M750 0l73 417q-69 -42 -112 -58q-92 -35 -214 -35q-335 0 -335 255q0 80 23 209l41 236h188l-51 -289q-13 -76 -13 -111q0 -75 45 -107q50 -37 157 -37q167 0 301 102l78 442h188l-181 -1024h-188z" />
    <glyph glyph-name="afii10090" unicode="&#x448;" horiz-adv-x="1836" vert-adv-y="2457" 
d="M265 1024h188l-112 -636q-13 -74 -13 -133q0 -120 116 -120q99 0 222 67q64 35 114 77l131 745h188l-112 -633q-15 -87 -15 -136q0 -120 137 -120q91 0 207 64q58 32 109 77l131 748h188l-180 -1024h-153l6 123q-57 -46 -133 -84q-123 -62 -243 -62q-213 0 -258 156
q-203 -156 -400 -156q-130 0 -196 69q-55 58 -55 153q0 70 21 190z" />
    <glyph glyph-name="afii10091" unicode="&#x449;" horiz-adv-x="1862" vert-adv-y="2457" 
d="M265 1024h188l-112 -636q-13 -73 -13 -132q0 -120 116 -120q98 0 222 67q64 35 114 76l131 745h188l-112 -633q-15 -87 -15 -135q0 -120 137 -120q90 0 207 64q58 32 109 76l131 748h188l-152 -865h159l-81 -456h-122l7 297h-144l6 124q-183 -147 -376 -147
q-213 0 -258 157q-202 -157 -400 -157q-131 0 -196 69q-55 58 -55 153q0 71 21 190z" />
    <glyph glyph-name="afii10092" unicode="&#x44a;" horiz-adv-x="1285" vert-adv-y="2457" 
d="M257 0l153 868h-340l28 156h528l-71 -404q68 34 93 43q89 35 198 35q177 0 268 -83q82 -75 82 -216q0 -167 -101 -286q-116 -136 -340 -136q-170 0 -259 67q-31 23 -64 75l-38 -119h-137zM529 471l-17 -96q-10 -55 -10 -85q0 -71 60 -119q61 -47 166 -47q150 0 219 95
q54 73 54 167q0 165 -200 165q-130 0 -272 -80z" />
    <glyph glyph-name="afii10093" unicode="&#x44b;" horiz-adv-x="1602" vert-adv-y="2457" 
d="M92 0l180 1024h189l-71 -404q70 36 92 44q89 35 199 35q177 0 267 -83q83 -76 83 -216q0 -168 -101 -286q-117 -137 -340 -137q-170 0 -259 67q-31 23 -65 75l-38 -119h-136zM363 471l-17 -96q-9 -53 -9 -84q0 -72 60 -119q61 -48 165 -48q150 0 219 95q54 74 54 168
q0 165 -200 165q-129 0 -272 -81zM1142 0l180 1024h188l-180 -1024h-188z" />
    <glyph glyph-name="afii10094" unicode="&#x44c;" horiz-adv-x="1119" vert-adv-y="2457" 
d="M92 0l180 1024h189l-71 -404q70 36 92 44q89 35 199 35q177 0 267 -83q83 -76 83 -216q0 -168 -101 -286q-117 -137 -340 -137q-170 0 -259 67q-31 23 -65 75l-38 -119h-136zM363 471l-17 -96q-9 -53 -9 -84q0 -72 60 -119q61 -48 165 -48q150 0 219 95q54 74 54 168
q0 165 -200 165q-129 0 -272 -81z" />
    <glyph glyph-name="afii10095" unicode="&#x44d;" horiz-adv-x="1009" vert-adv-y="2457" 
d="M-7 55l60 159q130 -81 275 -81q204 0 306 160q36 58 70 173h-525l26 142h521q1 20 1 35q0 100 -54 169q-62 80 -202 80q-152 0 -298 -86l-6 157q63 30 102 45q108 39 228 39q211 0 322 -117q103 -109 103 -303q0 -137 -45 -270q-70 -206 -231 -306q-120 -74 -296 -74
q-203 0 -357 78z" />
    <glyph glyph-name="afii10096" unicode="&#x44e;" horiz-adv-x="1722" vert-adv-y="2457" 
d="M92 0l180 1024h189l-72 -408h277q116 431 547 431q206 0 315 -105q110 -107 110 -307q0 -164 -60 -319q-69 -180 -215 -265q-126 -74 -298 -74q-192 0 -302 89q-127 104 -127 324q0 29 3 70h-278l-81 -460h-188zM1203 891q-197 0 -283 -144q-90 -151 -90 -354
q0 -132 58 -196q59 -65 188 -65q192 0 278 143q90 150 90 355q0 261 -241 261z" />
    <glyph glyph-name="afii10097" unicode="&#x44f;" horiz-adv-x="1235" vert-adv-y="2457" 
d="M844 394h-282l-340 -394h-225l408 427q-104 28 -152 71q-76 68 -76 189q0 100 49 182q61 103 184 133q94 22 243 22h490l-180 -1024h-188zM871 544l58 330h-276q-158 0 -216 -41q-66 -47 -66 -147q0 -85 71 -118q49 -24 174 -24h255z" />
    <glyph glyph-name="uni0450" unicode="&#x450;" horiz-adv-x="1138" vert-adv-y="2457" 
d="M276 431q-4 -44 -4 -70q0 -234 301 -234q106 0 211 36q48 17 124 53l4 -163q-166 -76 -369 -76q-461 0 -461 396q0 135 44 271q64 195 204 302q135 102 344 102q179 0 281 -69q98 -66 98 -200q0 -112 -56 -192q-54 -77 -198 -112q-121 -29 -480 -42zM300 578q48 0 201 10
q249 16 320 63q55 37 55 115q0 132 -208 132q-207 0 -303 -158q-40 -67 -65 -162zM839 1166h-142l-221 280h237z" />
    <glyph glyph-name="afii10071" unicode="&#x451;" horiz-adv-x="1130" vert-adv-y="2457" 
d="M276 431q-4 -44 -4 -70q0 -234 301 -234q106 0 211 36q48 17 124 53l4 -163q-166 -76 -369 -76q-461 0 -461 396q0 135 44 271q64 195 204 302q135 102 344 102q179 0 281 -69q98 -66 98 -200q0 -112 -56 -192q-54 -77 -198 -112q-121 -29 -480 -42zM300 578q48 0 201 10
q249 16 320 63q55 37 55 115q0 132 -208 132q-207 0 -303 -158q-40 -67 -65 -162zM507 1419q56 0 89 -35q29 -30 29 -80q0 -58 -38 -89q-33 -26 -82 -26q-59 0 -92 35q-29 30 -29 81q0 57 38 88q32 26 85 26zM894 1419q56 0 89 -35q29 -30 29 -80q0 -58 -38 -89
q-33 -26 -82 -26q-59 0 -92 35q-29 30 -29 81q0 57 38 88q32 26 85 26z" />
    <glyph glyph-name="afii10099" unicode="&#x452;" horiz-adv-x="1268" vert-adv-y="2457" 
d="M92 0l207 1174h-160l22 128h161l23 132h188l-23 -132h325l-22 -128h-326l-47 -267q208 140 408 140q147 0 223 -69q63 -58 63 -159q0 -64 -21 -184l-73 -417q-37 -211 -79 -314q-80 -196 -260 -273q-78 -33 -195 -40l27 153q68 7 104 21q109 45 162 219q27 88 49 212
l77 440q13 73 13 124q0 129 -152 129q-113 0 -250 -70q-66 -34 -126 -82l-130 -737h-188z" />
    <glyph glyph-name="afii10100" unicode="&#x453;" horiz-adv-x="934" vert-adv-y="2457" 
d="M233 810l-2 162q161 75 333 75q146 0 225 -61q80 -62 80 -177q0 -128 -92 -214q-64 -61 -292 -146q-130 -49 -156 -61q-112 -53 -112 -147q0 -119 208 -119q189 0 348 97v-165q-161 -77 -373 -77q-366 0 -366 247q0 139 93 225q43 41 131 81q45 20 162 63q177 65 228 115
q39 37 39 90q0 49 -41 77q-41 27 -110 27q-156 0 -303 -92zM508 1166l210 280h252l-313 -280h-149z" />
    <glyph glyph-name="afii10101" unicode="&#x454;" horiz-adv-x="1009" vert-adv-y="2457" 
d="M850 214l5 -161q-159 -76 -336 -76q-200 0 -309 94q-126 109 -126 316q0 146 56 290q78 203 237 297q124 73 291 73q128 0 234 -40q39 -15 98 -47l-61 -154q-44 32 -77 48q-79 38 -183 38q-261 0 -362 -284h521l-26 -142h-524q-8 -51 -8 -86q0 -113 67 -179
q67 -68 206 -68q143 0 297 81z" />
    <glyph glyph-name="afii10102" unicode="&#x455;" horiz-adv-x="958" vert-adv-y="2457" 
d="M5 54l60 165q126 -97 314 -97q124 0 195 48q64 43 64 121q0 55 -46 88q-30 21 -158 81q-141 65 -203 124q-70 66 -70 169q0 132 101 215q96 79 269 79q188 0 340 -78l-59 -159q-118 92 -277 92q-90 0 -140 -37q-48 -35 -48 -93q0 -50 45 -86q40 -31 159 -85
q143 -66 201 -117q72 -63 72 -169q0 -154 -112 -247q-110 -91 -328 -91q-229 0 -379 77z" />
    <glyph glyph-name="afii10103" unicode="&#x456;" horiz-adv-x="558" vert-adv-y="2457" 
d="M95 0l180 1024h188l-180 -1024h-188zM419 1418q58 0 93 -35q31 -31 31 -82q0 -60 -41 -91q-33 -27 -86 -27q-61 0 -96 35q-31 31 -31 85q0 57 41 89q33 26 89 26z" />
    <glyph glyph-name="afii10104" unicode="&#x457;" horiz-adv-x="556" vert-adv-y="2457" 
d="M84 0l180 1024h189l-181 -1024h-188zM217 1419q56 0 89 -35q29 -30 29 -80q0 -58 -38 -89q-33 -26 -82 -26q-59 0 -92 35q-29 30 -29 81q0 57 38 88q32 26 85 26zM604 1419q56 0 89 -35q29 -30 29 -80q0 -58 -38 -89q-33 -26 -82 -26q-59 0 -92 35q-29 30 -29 81
q0 57 38 88q32 26 85 26z" />
    <glyph glyph-name="afii10105" unicode="&#x458;" horiz-adv-x="577" vert-adv-y="2457" 
d="M294 1024h188l-147 -837q-37 -207 -74 -300q-113 -280 -455 -296l27 153q68 7 104 21q109 45 163 219q26 87 50 222zM437 1418q59 0 94 -35q31 -31 31 -82q0 -60 -41 -91q-33 -27 -86 -27q-61 0 -96 35q-31 31 -31 85q0 57 41 89q33 26 88 26z" />
    <glyph glyph-name="afii10106" unicode="&#x459;" horiz-adv-x="1722" vert-adv-y="2457" 
d="M696 0l152 868h-350l-14 -79q-75 -426 -176 -608q-100 -181 -329 -181h-81l27 151h38q86 0 130 35q80 64 141 271q43 147 88 402l29 165h713l-71 -404q69 34 93 43q88 35 198 35q177 0 268 -83q82 -76 82 -215q0 -167 -101 -287q-117 -136 -340 -136q-170 0 -259 67
q-31 23 -64 75l-38 -119h-136zM967 471l-17 -96q-10 -55 -10 -85q0 -71 60 -118q61 -48 165 -48q150 0 219 94q54 73 54 169q0 164 -200 164q-129 0 -271 -80z" />
    <glyph glyph-name="afii10107" unicode="&#x45a;" horiz-adv-x="1767" vert-adv-y="2457" 
d="M741 0l81 460h-461l-81 -460h-188l180 1024h189l-72 -408h460l72 408h188l-71 -404q70 35 93 43q88 35 198 35q177 0 268 -83q82 -76 82 -216q0 -167 -101 -286q-116 -136 -340 -136q-170 0 -259 67q-31 23 -64 74l-38 -118h-136zM1012 471l-17 -96q-10 -55 -10 -86
q0 -71 60 -118q61 -47 166 -47q150 0 219 94q54 74 54 168q0 164 -200 164q-131 0 -272 -79z" />
    <glyph glyph-name="afii10108" unicode="&#x45b;" horiz-adv-x="1268" vert-adv-y="2457" 
d="M92 0l207 1174h-160l22 128h161l23 132h188l-23 -132h325l-22 -128h-326l-47 -267q208 140 408 140q147 0 223 -69q63 -58 63 -158q0 -66 -21 -185l-112 -635h-188l112 636q13 73 13 124q0 129 -152 129q-113 0 -250 -70q-66 -34 -126 -82l-130 -737h-188z" />
    <glyph glyph-name="afii10109" unicode="&#x45c;" horiz-adv-x="1122" vert-adv-y="2457" 
d="M92 0l180 1024h189l-78 -443l556 443h245l-612 -468l482 -556h-226l-453 542l-95 -542h-188zM607 1166l210 280h252l-313 -280h-149z" />
    <glyph glyph-name="uni045D" unicode="&#x45d;" horiz-adv-x="1219" vert-adv-y="2457" 
d="M797 119q-170 -142 -368 -142q-148 0 -228 68q-66 56 -66 170q0 74 25 216l105 593h188l-110 -621q-15 -87 -15 -140q0 -128 159 -128q180 0 318 126l134 763h188l-180 -1024h-156zM842 1166h-142l-221 280h237z" />
    <glyph glyph-name="afii10110" unicode="&#x45e;" horiz-adv-x="1075" vert-adv-y="2457" 
d="M358 -4l-253 1028h195l180 -828l462 828h205l-845 -1434h-207zM343 1446h131q-1 -29 -1 -36q0 -61 35 -86q43 -32 133 -32q126 0 177 58q27 31 45 96h137q-18 -120 -68 -185q-87 -111 -295 -111q-302 0 -302 212q0 34 8 84z" />
    <glyph glyph-name="afii10193" unicode="&#x45f;" horiz-adv-x="1219" vert-adv-y="2457" 
d="M798 95q-87 -76 -214 -111l-77 -281h-115l3 276q-104 10 -159 41q-101 57 -101 195q0 74 25 216l105 593h188l-110 -621q-15 -87 -15 -140q0 -128 159 -128q180 0 318 126l134 763h188l-180 -1024h-156z" />
    <glyph glyph-name="uni0462" unicode="&#x462;" horiz-adv-x="1470" vert-adv-y="2457" 
d="M277 0l223 1270h-355l29 164h1086l-29 -164h-538l-71 -409h218q296 0 417 -74q136 -83 136 -278q0 -143 -64 -264q-85 -159 -258 -208q-132 -37 -332 -37h-462zM499 164h231q176 0 270 32q95 33 147 120q47 79 47 173q0 120 -95 168q-78 40 -275 40h-232z" />
    <glyph glyph-name="uni0463" unicode="&#x463;" horiz-adv-x="1216" vert-adv-y="2457" 
d="M92 0l207 1174h-160l22 128h161l23 132h188l-23 -132h325l-22 -128h-326l-42 -236q62 40 109 62q103 47 219 47q364 0 364 -390q0 -135 -41 -272q-61 -206 -178 -305q-121 -103 -310 -103q-168 0 -269 67q-34 22 -73 75l-38 -119h-136zM416 774l-67 -383q-9 -52 -9 -81
q0 -74 71 -126q70 -51 177 -51q124 0 203 72q75 69 121 232q31 109 31 206q0 129 -50 187q-52 61 -167 61q-154 0 -310 -117z" />
    <glyph glyph-name="afii10050" unicode="&#x490;" horiz-adv-x="1148" vert-adv-y="2457" 
d="M105 0l253 1434h721l111 350h132l-91 -514h-710l-223 -1270h-193z" />
    <glyph glyph-name="afii10098" unicode="&#x491;" horiz-adv-x="934" vert-adv-y="2457" 
d="M233 810l-2 162q130 60 270 73l218 284h252l-313 -291q211 -36 211 -229q0 -127 -92 -214q-64 -61 -292 -146q-130 -49 -156 -61q-112 -53 -112 -147q0 -119 208 -119q187 0 348 97v-165q-161 -77 -373 -77q-366 0 -366 247q0 139 93 225q43 41 131 81q45 20 162 63
q177 65 228 115q39 37 39 90q0 49 -41 77q-41 27 -110 27q-155 0 -303 -92z" />
    <glyph glyph-name="uni0492" unicode="&#x492;" horiz-adv-x="1116" vert-adv-y="2457" 
d="M105 0l79 451h-172l26 147h173l147 836h870l-29 -164h-678l-118 -672h332l-26 -147h-332l-80 -451h-192z" />
    <glyph glyph-name="uni0493" unicode="&#x493;" horiz-adv-x="934" vert-adv-y="2457" 
d="M203 648l96 95l140 -142q128 47 181 84q67 47 67 111q0 51 -41 79q-41 27 -110 27q-156 0 -303 -92l-2 162q161 75 333 75q146 0 225 -61q80 -62 80 -177q0 -84 -42 -154q-50 -80 -169 -136q-40 -18 -99 -42l106 -107l-96 -95l-147 149q-100 -37 -133 -57
q-72 -42 -72 -128q0 -117 208 -117q189 0 348 97v-165q-161 -77 -373 -77q-166 0 -263 56q-103 61 -103 189q0 158 109 241q62 48 160 84z" />
    <glyph glyph-name="uni0496" unicode="&#x496;" horiz-adv-x="1887" vert-adv-y="2457" 
d="M759 0l132 746l-712 -746h-260l796 789l-487 645h225l446 -643l113 643h181l-113 -643l657 643h248l-726 -669l414 -602h160l-81 -460h-129l-2 297h-81l-468 746l-131 -746h-182z" />
    <glyph glyph-name="uni0497" unicode="&#x497;" horiz-adv-x="1877" vert-adv-y="2457" 
d="M1191 467h-176l-82 -467h-184l82 467h-173q-34 -180 -111 -298q-125 -192 -338 -192q-101 0 -188 34q-27 10 -81 37l64 172q81 -87 182 -87q151 0 237 185q67 145 67 322q0 252 -181 252q-90 0 -179 -72l-3 165q104 62 226 62q155 0 234 -97q89 -110 89 -299
q0 -18 -1 -40h182l72 413h184l-72 -413h175q40 158 112 257q130 179 337 179q112 0 214 -62l-64 -165q-58 72 -142 72q-148 0 -234 -185q-67 -145 -67 -321q0 -253 199 -253q103 0 198 44l4 -38l-9 -135l-53 -301h-123l7 280q-42 -3 -72 -3q-128 0 -205 58q-66 49 -101 147
q-31 86 -31 192q0 32 5 90z" />
    <glyph glyph-name="uni049A" unicode="&#x49a;" horiz-adv-x="1274" vert-adv-y="2457" 
d="M104 0l253 1434h192l-111 -632l712 632h246l-768 -661l452 -610h145l-82 -460h-129l8 297h-60l-532 758l-133 -758h-193z" />
    <glyph glyph-name="uni049B" unicode="&#x49b;" horiz-adv-x="1122" vert-adv-y="2457" 
d="M92 0l180 1024h189l-78 -442l556 442h245l-612 -468l356 -397h164l-81 -456h-123l7 297h-67l-453 543l-95 -543h-188z" />
    <glyph glyph-name="uni049C" unicode="&#x49c;" horiz-adv-x="1382" vert-adv-y="2457" 
d="M104 0l253 1434h192l-107 -611h132l47 263h116l-43 -243l570 591h239l-689 -689l469 -745h-219l-403 661l-40 -231h-116l43 244h-133l-118 -674h-193z" />
    <glyph glyph-name="uni049D" unicode="&#x49d;" horiz-adv-x="1203" vert-adv-y="2457" 
d="M92 0l180 1024h189l-75 -422h102l37 206h102l-36 -202l435 418h240l-534 -491l404 -533h-224l-345 470l-46 -259h-102l45 253h-102l-82 -464h-188z" />
    <glyph glyph-name="uni04A2" unicode="&#x4a2;" horiz-adv-x="1550" vert-adv-y="2457" 
d="M105 0l253 1434h192l-106 -605h714l106 605h193l-224 -1271h173l-81 -460h-130l9 297h-193l117 665h-714l-116 -665h-193z" />
    <glyph glyph-name="uni04A3" unicode="&#x4a3;" horiz-adv-x="1283" vert-adv-y="2457" 
d="M92 0l180 1024h189l-72 -408h517l71 408h188l-152 -865h159l-81 -456h-122l7 297h-179l81 460h-517l-81 -460h-188z" />
    <glyph glyph-name="uni04AE" unicode="&#x4ae;" horiz-adv-x="1156" vert-adv-y="2457" 
d="M393 0l90 512l-339 922h211l254 -733l509 733h220l-662 -922l-91 -512h-192z" />
    <glyph glyph-name="uni04AF" unicode="&#x4af;" horiz-adv-x="1077" vert-adv-y="2457" 
d="M276 -410l72 410l-242 1024h196l171 -836l468 836h209l-614 -1024l-72 -410h-188z" />
    <glyph glyph-name="uni04B0" unicode="&#x4b0;" horiz-adv-x="1157" vert-adv-y="2457" 
d="M393 0l71 403h-253l26 147h231l-324 884h212l254 -732l509 732h219l-634 -884h230l-26 -147h-252l-71 -403h-192z" />
    <glyph glyph-name="uni04B1" unicode="&#x4b1;" horiz-adv-x="1077" vert-adv-y="2457" 
d="M271 -410l54 307h-215l26 145h197l-232 982h196l171 -837l468 837h210l-588 -982h207l-25 -145h-227l-54 -307h-188z" />
    <glyph glyph-name="uni04B2" unicode="&#x4b2;" horiz-adv-x="1295" vert-adv-y="2457" 
d="M571 763l-323 671h218l255 -540l446 540h228l-591 -685l280 -586h156l-81 -460h-129l8 297h-95l-287 608l-528 -608h-228z" />
    <glyph glyph-name="uni04B3" unicode="&#x4b3;" horiz-adv-x="1119" vert-adv-y="2457" 
d="M450 537l-299 487h223l217 -370l335 370h231l-479 -488l225 -377h166l-81 -456h-122l7 297h-90l-246 422l-384 -422h-233z" />
    <glyph glyph-name="uni04B6" unicode="&#x4b6;" horiz-adv-x="1454" vert-adv-y="2457" 
d="M915 0l92 522q-201 -129 -420 -129q-178 0 -276 71t-98 216q0 89 34 280l84 474h192l-93 -531q-17 -93 -17 -162q0 -91 48 -135q57 -51 179 -51q228 0 399 146l129 733h192l-223 -1271h173l-82 -460h-129l8 297h-192z" />
    <glyph glyph-name="uni04B7" unicode="&#x4b7;" horiz-adv-x="1236" vert-adv-y="2457" 
d="M750 0l73 417q-69 -41 -112 -58q-92 -35 -214 -35q-335 0 -335 255q0 80 23 209l41 236h188l-51 -289q-13 -75 -13 -111q0 -76 45 -108q50 -37 157 -37q166 0 301 103l78 442h188l-153 -865h160l-81 -456h-123l7 297h-179z" />
    <glyph glyph-name="uni04B8" unicode="&#x4b8;" horiz-adv-x="1408" vert-adv-y="2457" 
d="M931 0l92 521q-147 -91 -310 -119l-44 -249h-116l42 239h-20q-175 0 -269 74q-93 72 -93 213q0 91 34 285l83 470h193l-94 -531q-16 -93 -16 -162q0 -124 95 -164q39 -17 116 -23l48 271h116l-47 -263q181 29 314 139l129 733h192l-253 -1434h-192z" />
    <glyph glyph-name="uni04B9" unicode="&#x4b9;" horiz-adv-x="1259" vert-adv-y="2457" 
d="M800 0l73 417q-91 -51 -145 -67q-48 -13 -100 -19l-39 -219h-108l37 212q-154 4 -223 35q-133 59 -133 218q0 81 23 211l41 236h188l-50 -287q-14 -78 -14 -113q0 -99 85 -128q40 -14 111 -16l43 241h108l-42 -236q137 14 247 97l78 442h188l-181 -1024h-187z" />
    <glyph glyph-name="uni04BA" unicode="&#x4ba;" horiz-adv-x="1420" vert-adv-y="2457" 
d="M105 0l253 1434h192l-109 -621q208 137 441 137q179 0 280 -75q95 -70 95 -217q0 -82 -26 -230l-76 -428h-192l78 446q17 94 17 160q0 93 -54 134q-60 47 -179 47q-231 0 -417 -161l-110 -626h-193z" />
    <glyph glyph-name="uni04BB" unicode="&#x4bb;" horiz-adv-x="1265" vert-adv-y="2457" 
d="M92 0l253 1434h188l-93 -527q208 140 408 140q147 0 223 -69q63 -58 63 -159q0 -65 -21 -184l-112 -635h-188l112 636q13 73 13 124q0 129 -152 129q-113 0 -250 -70q-66 -34 -126 -82l-130 -737h-188z" />
    <glyph glyph-name="uni04C0" unicode="&#x4c0;" horiz-adv-x="597" vert-adv-y="2457" 
d="M112 0l253 1434h192l-252 -1434h-193z" />
    <glyph glyph-name="uni04CF" unicode="&#x4cf;" horiz-adv-x="597" vert-adv-y="2457" 
d="M112 0l253 1434h192l-252 -1434h-193z" />
    <glyph glyph-name="uni04D8" unicode="&#x4d8;" horiz-adv-x="1512" vert-adv-y="2457" 
d="M1226 669h-1096q38 278 160 468q204 320 599 320q199 0 338 -81q227 -132 227 -481q0 -178 -56 -357q-92 -296 -310 -443q-177 -118 -444 -118q-199 0 -383 55q-74 22 -139 57l63 176q209 -126 469 -126q334 0 481 267q53 95 91 263zM1250 825q4 54 4 88q0 169 -73 260
q-97 122 -301 122q-290 0 -434 -246q-47 -80 -86 -224h890z" />
    <glyph glyph-name="afii10846" unicode="&#x4d9;" horiz-adv-x="1130" vert-adv-y="2457" 
d="M831 467h-740q19 109 32 162q99 418 496 418q214 0 319 -113q104 -113 104 -311q0 -140 -42 -268q-124 -378 -560 -378q-139 0 -262 35q-21 6 -123 41l62 163q20 -10 29 -15q95 -50 144 -62q65 -17 139 -17q231 0 334 159q41 63 68 186zM854 610v36q-1 103 -42 165
q-52 80 -191 80q-267 0 -326 -281h559z" />
    <glyph glyph-name="uni04E8" unicode="&#x4e8;" horiz-adv-x="1512" vert-adv-y="2457" 
d="M912 1457q177 0 309 -71q239 -129 239 -486q0 -179 -56 -359q-89 -288 -285 -432q-179 -132 -437 -132q-261 0 -398 121q-83 73 -122 190q-39 115 -39 242q0 176 56 357q89 290 285 435q181 135 448 135zM1234 669h-901q-11 -86 -11 -149q0 -201 99 -295q91 -86 273 -86
q313 0 457 281q46 91 83 249zM365 825h892q4 45 4 80q0 390 -369 390q-182 0 -315 -103q-141 -110 -212 -367z" />
    <glyph glyph-name="uni04E9" unicode="&#x4e9;" horiz-adv-x="1208" vert-adv-y="2457" 
d="M685 1047q208 0 323 -105t115 -307q0 -163 -62 -319q-71 -179 -222 -265q-130 -74 -307 -74q-201 0 -315 89q-133 104 -133 324q0 163 62 318q135 339 539 339zM308 610h624v13q-1 117 -39 174q-63 94 -227 94q-204 0 -294 -140q-38 -58 -64 -141zM914 467h-635
q-5 -42 -5 -77q0 -135 65 -196q67 -62 202 -62q204 0 294 137q52 80 79 198z" />
    <glyph glyph-name="Wdieresis" unicode="&#x1e84;" horiz-adv-x="1911" vert-adv-y="2457" 
d="M353 0l-177 1434h203l119 -1175l539 1175h155l132 -1180l526 1180h208l-682 -1434h-178l-127 1160l-533 -1160h-185zM936 1818q56 0 90 -35q29 -31 29 -81q0 -59 -39 -90q-33 -27 -83 -27q-59 0 -93 35q-29 31 -29 82q0 58 39 90q32 26 86 26zM1365 1818q57 0 91 -35
q29 -31 29 -81q0 -59 -39 -90q-33 -27 -83 -27q-59 0 -93 35q-29 31 -29 82q0 58 39 90q32 26 85 26z" />
    <glyph glyph-name="wdieresis" unicode="&#x1e85;" horiz-adv-x="1700" vert-adv-y="2457" 
d="M322 0l-200 1024h191l134 -808l413 808h157l125 -809l416 809h200l-566 -1024h-170l-122 808l-410 -808h-168zM767 1419q56 0 89 -35q29 -30 29 -80q0 -58 -38 -89q-33 -26 -82 -26q-59 0 -92 35q-29 30 -29 81q0 57 38 88q32 26 85 26zM1154 1419q56 0 89 -35
q29 -30 29 -80q0 -58 -38 -89q-33 -26 -82 -26q-59 0 -92 35q-29 30 -29 81q0 57 38 88q32 26 85 26z" />
    <glyph glyph-name="uni2011" unicode="&#x2011;" horiz-adv-x="753" vert-adv-y="2457" 
d="M91 540l30 166h581l-30 -166h-581z" />
    <glyph glyph-name="figuredash" unicode="&#x2012;" vert-adv-y="2457" 
d="M125 540l30 166h938l-30 -166h-938z" />
    <glyph glyph-name="endash" unicode="&#x2013;" vert-adv-y="2457" 
d="M125 540l30 166h938l-30 -166h-938z" />
    <glyph glyph-name="emdash" unicode="&#x2014;" horiz-adv-x="1024" vert-adv-y="2457" 
d="M-82 540l30 166h1197l-30 -166h-1197z" />
    <glyph glyph-name="afii00208" unicode="&#x2015;" horiz-adv-x="1024" vert-adv-y="2457" 
d="M-82 540l30 166h1197l-30 -166h-1197z" />
    <glyph glyph-name="quoteleft" unicode="&#x2018;" horiz-adv-x="419" vert-adv-y="2457" 
d="M497 1434l-148 -489h-206l218 489h136z" />
    <glyph glyph-name="quoteright" unicode="&#x2019;" horiz-adv-x="419" vert-adv-y="2457" 
d="M161 945l148 489h206l-218 -489h-136z" />
    <glyph glyph-name="quotesinglbase" unicode="&#x201a;" horiz-adv-x="419" vert-adv-y="2457" 
d="M-52 -265l148 490h206l-218 -490h-136z" />
    <glyph glyph-name="quotedblleft" unicode="&#x201c;" horiz-adv-x="721" vert-adv-y="2457" 
d="M799 1434l-148 -489h-206l218 489h136zM497 1434l-148 -489h-206l218 489h136z" />
    <glyph glyph-name="quotedblright" unicode="&#x201d;" horiz-adv-x="721" vert-adv-y="2457" 
d="M161 945l148 489h206l-218 -489h-136zM463 945l148 489h206l-218 -489h-136z" />
    <glyph glyph-name="quotedblbase" unicode="&#x201e;" horiz-adv-x="721" vert-adv-y="2457" 
d="M-52 -265l148 490h206l-218 -490h-136zM250 -265l149 490h206l-219 -490h-136z" />
    <glyph glyph-name="dagger" unicode="&#x2020;" vert-adv-y="2457" 
d="M552 817h-353l28 154h353l81 463h182l-81 -463h353l-27 -154h-354l-213 -1213h-183z" />
    <glyph glyph-name="daggerdbl" unicode="&#x2021;" vert-adv-y="2457" 
d="M552 817h-352l28 154h352l81 463h182l-81 -463h352l-27 -154h-353l-90 -516h352l-27 -154h-353l-95 -543h-183l96 543h-352l28 154h352z" />
    <glyph glyph-name="bullet" unicode="&#x2022;" vert-adv-y="2457" 
d="M636 1030q125 0 211 -93q74 -81 74 -195q0 -133 -95 -217q-82 -73 -195 -73q-131 0 -217 94q-74 81 -74 198q0 128 95 213q82 73 201 73z" />
    <glyph glyph-name="ellipsis" unicode="&#x2026;" horiz-adv-x="1769" vert-adv-y="2457" 
d="M227 244q58 0 100 -44q36 -37 36 -89q0 -61 -46 -100q-40 -34 -93 -34q-61 0 -103 44q-36 37 -36 91q0 58 47 98q40 34 95 34zM817 244q58 0 100 -44q36 -37 36 -89q0 -61 -46 -100q-40 -34 -93 -34q-61 0 -103 44q-36 37 -36 91q0 58 47 98q40 34 95 34zM1407 244
q58 0 100 -44q36 -37 36 -89q0 -61 -46 -100q-40 -34 -93 -34q-61 0 -103 44q-36 37 -36 91q0 58 47 98q40 34 95 34z" />
    <glyph glyph-name="perthousand" unicode="&#x2030;" horiz-adv-x="2542" vert-adv-y="2457" 
d="M577 1457q135 0 208 -79q72 -79 72 -208q0 -94 -30 -197q-84 -286 -359 -286q-140 0 -214 72q-75 74 -75 214q0 95 30 196q85 288 368 288zM563 1334q-119 0 -174 -130q-46 -109 -46 -237q0 -157 133 -157q116 0 171 129q46 109 46 238q0 157 -130 157zM434 0l821 1434
h159l-821 -1434h-159zM1388 747q135 0 209 -79q72 -79 72 -205q0 -97 -30 -200q-85 -286 -361 -286q-140 0 -213 72q-76 74 -76 214q0 95 30 196q86 288 369 288zM1374 624q-120 0 -174 -130q-47 -110 -47 -237q0 -157 133 -157q117 0 172 130q47 109 47 237q0 157 -131 157
zM2155 747q135 0 208 -79q72 -78 72 -205q0 -97 -30 -200q-84 -286 -360 -286q-140 0 -213 72q-75 74 -75 214q0 95 30 196q85 288 368 288zM2141 624q-119 0 -174 -130q-46 -109 -46 -237q0 -157 132 -157q117 0 172 130q46 108 46 239q0 155 -130 155z" />
    <glyph glyph-name="guilsinglleft" unicode="&#x2039;" horiz-adv-x="559" vert-adv-y="2457" 
d="M306 609l165 -308l-93 -59l-301 360l7 39l428 360l69 -80z" />
    <glyph glyph-name="guilsinglright" unicode="&#x203a;" horiz-adv-x="559" vert-adv-y="2457" 
d="M292 634l-165 308l93 59l301 -360l-8 -39l-427 -360l-69 80z" />
    <glyph glyph-name="uni203E" unicode="&#x203e;" horiz-adv-x="1024" vert-adv-y="2457" 
d="M121 1721l23 130h1208l-23 -130h-1208z" />
    <glyph glyph-name="fraction" unicode="&#x2044;" horiz-adv-x="258" vert-adv-y="2457" 
d="M-413 0l998 1434h157l-998 -1434h-157z" />
    <glyph glyph-name="zerosuperior" unicode="&#x2070;" horiz-adv-x="807" vert-adv-y="2457" 
d="M592 1650q286 0 286 -289q0 -107 -35 -252q-47 -197 -130 -276q-94 -89 -251 -89q-291 0 -291 287q0 107 34 250q46 196 127 277q94 92 260 92zM581 1530q-143 0 -201 -190q-21 -70 -38 -180q-12 -76 -12 -133q0 -163 139 -163q141 0 199 190q21 70 38 180q12 76 12 131
q0 165 -137 165z" />
    <glyph glyph-name="foursuperior" unicode="&#x2074;" horiz-adv-x="807" vert-adv-y="2457" 
d="M551 979h-424l17 97l519 561h152l-95 -542h143l-21 -116h-143l-38 -220h-148zM572 1095l62 352l-319 -352h257z" />
    <glyph glyph-name="fivesuperior" unicode="&#x2075;" horiz-adv-x="807" vert-adv-y="2457" 
d="M153 809l51 127q106 -75 217 -75q137 0 191 95q35 62 35 130q0 119 -129 119q-74 0 -176 -62l-91 20l102 474h503l-21 -117h-361l-51 -225q63 27 140 27q243 0 243 -222q0 -80 -29 -154q-80 -202 -345 -202q-160 0 -279 65z" />
    <glyph glyph-name="sixsuperior" unicode="&#x2076;" horiz-adv-x="807" vert-adv-y="2457" 
d="M480 1325q47 13 90 13q122 0 188 -61q68 -62 68 -176q0 -132 -72 -231q-90 -126 -285 -126q-154 0 -224 70q-64 63 -64 174q0 197 175 398l218 251h181zM537 1221q-110 0 -160 -87q-37 -63 -37 -140q0 -133 131 -133q108 0 159 93q37 66 37 138q0 129 -130 129z" />
    <glyph glyph-name="sevensuperior" unicode="&#x2077;" horiz-adv-x="807" vert-adv-y="2457" 
d="M685 1519h-381l21 118h581l-523 -878h-169z" />
    <glyph glyph-name="eightsuperior" unicode="&#x2078;" horiz-adv-x="807" vert-adv-y="2457" 
d="M339 1231q-79 61 -79 154q0 113 77 185q86 80 250 80q278 0 278 -207q0 -104 -64 -167q-31 -30 -81 -56q47 -30 68 -54q46 -54 46 -133q0 -138 -93 -214q-93 -75 -278 -75q-317 0 -317 218q0 123 80 199q36 34 113 70zM587 1532q-96 0 -142 -61q-30 -40 -30 -91
q0 -44 28 -71q32 -32 97 -32q95 0 141 65q29 41 29 92q0 41 -27 67q-33 31 -96 31zM521 1157q-117 0 -172 -62q-44 -50 -44 -118q0 -116 161 -116q117 0 171 62q41 48 41 116q0 118 -157 118z" />
    <glyph glyph-name="ninesuperior" unicode="&#x2079;" horiz-adv-x="807" vert-adv-y="2457" 
d="M569 1071q-47 -14 -90 -14q-121 0 -188 61q-68 62 -68 176q0 133 72 231q91 126 285 126q154 0 224 -70q64 -63 64 -174q0 -197 -175 -398l-218 -250h-181zM578 1534q-107 0 -159 -93q-37 -66 -37 -138q0 -129 130 -129q109 0 160 88q37 63 37 139q0 133 -131 133z" />
    <glyph glyph-name="zeroinferior" unicode="&#x2080;" horiz-adv-x="807" vert-adv-y="2457" 
d="M422 686q286 0 286 -289q0 -106 -35 -251q-47 -196 -130 -275q-94 -90 -251 -90q-291 0 -291 287q0 105 34 250q46 195 128 276q93 92 259 92zM412 566q-100 0 -155 -84q-45 -68 -74 -227q-22 -116 -22 -191q0 -163 139 -163q98 0 153 84q44 67 74 227q22 117 22 189
q0 165 -137 165z" />
    <glyph glyph-name="oneinferior" unicode="&#x2081;" horiz-adv-x="807" vert-adv-y="2457" 
d="M242 -205l130 741l-219 -67l22 124l259 87h115l-156 -885h-151z" />
    <glyph glyph-name="twoinferior" unicode="&#x2082;" horiz-adv-x="807" vert-adv-y="2457" 
d="M-37 -205l20 113l328 294q190 169 190 263q0 101 -137 101q-96 0 -225 -79l-5 131q124 68 253 68q133 0 207 -52q71 -51 71 -153q0 -100 -70 -194q-45 -61 -178 -174l-234 -201h397l-21 -117h-596z" />
    <glyph glyph-name="threeinferior" unicode="&#x2083;" horiz-adv-x="807" vert-adv-y="2457" 
d="M-45 -155l51 128q105 -75 222 -75q133 0 194 81q40 53 40 118q0 73 -51 106q-47 29 -159 29h-92l306 323h-342l21 118h594l-321 -340q94 -17 134 -51q69 -57 69 -168q0 -155 -98 -244t-285 -89q-161 0 -283 64z" />
    <glyph glyph-name="fourinferior" unicode="&#x2084;" horiz-adv-x="807" vert-adv-y="2457" 
d="M381 16h-424l17 97l519 560h152l-95 -541h143l-21 -116h-143l-38 -221h-148zM402 132l62 351l-319 -351h257z" />
    <glyph glyph-name="fiveinferior" unicode="&#x2085;" horiz-adv-x="807" vert-adv-y="2457" 
d="M-17 -155l51 127q105 -75 216 -75q137 0 192 95q35 62 35 131q0 118 -129 118q-75 0 -176 -62l-91 20l102 474h503l-21 -117h-361l-51 -225q63 27 140 27q243 0 243 -221q0 -81 -29 -155q-79 -202 -345 -202q-160 0 -279 65z" />
    <glyph glyph-name="sixinferior" unicode="&#x2086;" horiz-adv-x="807" vert-adv-y="2457" 
d="M311 361q46 13 90 13q121 0 188 -61q68 -62 68 -176q0 -133 -72 -231q-91 -126 -286 -126q-154 0 -224 70q-64 63 -64 173q0 197 175 399l218 251h181zM367 257q-109 0 -160 -87q-36 -64 -36 -140q0 -133 130 -133q107 0 160 93q36 65 36 138q0 129 -130 129z" />
    <glyph glyph-name="seveninferior" unicode="&#x2087;" horiz-adv-x="807" vert-adv-y="2457" 
d="M516 555h-381l21 118h581l-523 -878h-169z" />
    <glyph glyph-name="eightinferior" unicode="&#x2088;" horiz-adv-x="807" vert-adv-y="2457" 
d="M169 267q-79 62 -79 154q0 113 77 185q86 80 250 80q278 0 278 -207q0 -104 -64 -166q-31 -30 -81 -57q47 -30 68 -53q46 -54 46 -134q0 -137 -93 -213q-93 -75 -277 -75q-318 0 -318 218q0 123 80 199q36 34 113 69zM417 569q-96 0 -142 -61q-30 -40 -30 -92
q0 -43 28 -71q32 -32 96 -32q96 0 142 65q29 41 29 93q0 41 -27 67q-33 31 -96 31zM351 193q-117 0 -172 -62q-44 -50 -44 -119q0 -114 160 -114q118 0 172 62q41 48 41 116q0 117 -157 117z" />
    <glyph glyph-name="nineinferior" unicode="&#x2089;" horiz-adv-x="807" vert-adv-y="2457" 
d="M399 107q-48 -13 -91 -13q-120 0 -187 61q-68 62 -68 176q0 133 71 231q92 126 286 126q154 0 224 -70q64 -63 64 -173q0 -198 -175 -399l-217 -251h-182zM407 571q-107 0 -159 -93q-36 -66 -36 -138q0 -129 129 -129q110 0 160 87q37 63 37 140q0 133 -131 133z" />
    <glyph glyph-name="Euro" unicode="&#x20ac;" vert-adv-y="2457" 
d="M1 489l66 119h129q4 65 19 147h-168l67 119h129q55 192 146 316q196 267 537 267q210 0 376 -112l-84 -155q-123 105 -292 105q-342 0 -476 -421h596l-66 -119h-562q-16 -73 -21 -147h505l-66 -119h-435q16 -135 40 -184q79 -166 306 -166q181 0 341 123l1 -183
q-178 -102 -374 -102q-323 0 -446 214q-54 94 -69 234q-2 24 -5 64h-194z" />
    <glyph glyph-name="afii61352" unicode="&#x2116;" horiz-adv-x="2595" vert-adv-y="2457" 
d="M105 0l253 1434h178l555 -1105l194 1105h183l-252 -1434h-158l-570 1133l-199 -1133h-184zM2098 1233q186 0 287 -101q95 -96 95 -257q0 -118 -41 -240q-60 -183 -204 -273q-115 -72 -278 -72q-188 0 -287 89q-105 96 -105 273q0 117 43 241q118 340 490 340zM2085 1086
q-179 0 -264 -155q-66 -120 -66 -270q0 -224 212 -224q175 0 259 155q66 120 66 271q0 223 -207 223zM1451 0l26 149h868l-26 -149h-868z" />
    <glyph glyph-name="trademark" unicode="&#x2122;" horiz-adv-x="1826" vert-adv-y="2457" 
d="M800 567l153 867h149l211 -537l400 537h160l-153 -867h-142l112 637l-366 -492h-76l-194 492l-111 -637h-143zM278 567l132 743h-266l21 124h678l-21 -124h-266l-131 -743h-147z" />
    <glyph glyph-name="uni2126" unicode="&#x2126;" horiz-adv-x="1512" vert-adv-y="2457" 
d="M117 0v153h328q-130 94 -194 172q-143 175 -143 428q0 262 134 457q176 254 518 254q341 0 516 -254q134 -195 134 -456q0 -268 -162 -451q-57 -64 -174 -150h327v-153h-547v158q123 67 208 160q74 82 109 172q42 107 42 261q0 208 -86 354q-118 201 -367 201
q-251 0 -369 -201q-86 -147 -86 -357q0 -195 74 -323q92 -161 286 -267v-158h-548z" />
    <glyph glyph-name="partialdiff" unicode="&#x2202;" vert-adv-y="2457" 
d="M871 919q-36 155 -84 214q-83 100 -269 140q-63 14 -147 24l64 155q282 -31 417 -140q120 -96 174 -286q40 -137 40 -298q0 -188 -53 -353q-67 -205 -219 -311q-123 -87 -293 -87q-175 0 -270 83q-53 47 -81 118q-36 90 -36 191q0 128 45 257q67 190 211 292
q117 82 270 82q146 0 231 -81zM663 849q-199 0 -294 -191q-67 -134 -67 -279q0 -251 216 -251q190 0 284 195q70 146 70 294q0 232 -209 232z" />
    <glyph glyph-name="Delta" unicode="&#x2206;" horiz-adv-x="1264" vert-adv-y="2457" 
d="M1241 0h-1405l850 1434h211zM1004 160l-242 1084l-621 -1084h863z" />
    <glyph glyph-name="product" unicode="&#x220f;" horiz-adv-x="1596" vert-adv-y="2457" 
d="M1312 1425h-707l-343 -1947h-191l372 2107h1089l-371 -2107h-191z" />
    <glyph glyph-name="summation" unicode="&#x2211;" vert-adv-y="2457" 
d="M1342 1585l-29 -160h-882l373 -823l-692 -964h910l-29 -160h-1115l35 197l674 934l-365 797l33 179h1087z" />
    <glyph glyph-name="minus" unicode="&#x2212;" vert-adv-y="2457" 
d="M142 652l27 151h945l-27 -151h-945z" />
    <glyph glyph-name="radical" unicode="&#x221a;" vert-adv-y="2457" 
d="M321 0l-82 611h-170l29 162h293l60 -582l723 1580h545l-29 -164h-403l-750 -1607h-216z" />
    <glyph glyph-name="infinity" unicode="&#x221e;" horiz-adv-x="1769" vert-adv-y="2457" 
d="M923 600q-57 -78 -111 -121q-100 -81 -238 -81q-159 0 -251 97q-88 92 -88 235q0 144 88 236q92 97 251 97q146 0 253 -94q45 -40 96 -109q58 79 111 122q101 81 238 81q159 0 251 -97q88 -92 88 -236q0 -143 -88 -235q-92 -97 -251 -97q-147 0 -253 94q-45 40 -96 108z
M848 730l-12 18q-52 74 -97 113q-74 66 -159 66t-139 -54q-54 -53 -54 -143q0 -89 55 -143q53 -53 137 -53q91 0 165 68q32 29 91 110zM998 730l13 -18q59 -81 95 -113q76 -65 160 -65q85 0 138 53q55 55 55 144t-54 142q-54 54 -139 54q-87 0 -162 -67q-40 -36 -94 -112z
" />
    <glyph glyph-name="integral" unicode="&#x222b;" vert-adv-y="2457" 
d="M251 -516l37 157q41 -20 85 -20q96 0 121 79q9 30 11 207v1222q0 176 10 245q17 119 90 181q67 58 187 58q66 0 148 -21l-37 -155q-45 18 -88 18q-76 0 -109 -56q-21 -38 -21 -171v-1278q0 -198 -6 -243q-31 -244 -271 -244q-78 0 -157 21z" />
    <glyph glyph-name="approxequal" unicode="&#x2248;" vert-adv-y="2457" 
d="M320 752l-131 25q42 117 89 181q86 117 216 117q78 0 139 -41q22 -14 78 -64q75 -68 133 -68q66 0 114 72q19 28 43 86l127 -31q-45 -113 -86 -168q-91 -119 -218 -119q-72 0 -134 40q-29 19 -79 64q-47 43 -73 55q-30 14 -61 14q-64 0 -112 -70q-18 -26 -45 -93z
M257 395l-131 25q41 117 89 182q85 116 216 116q77 0 139 -40q22 -15 77 -65q75 -67 133 -67q67 0 115 71q18 27 43 86l127 -31q-46 -113 -87 -167q-90 -119 -217 -119q-72 0 -134 39q-29 19 -80 64q-47 43 -72 55q-30 14 -62 14q-63 0 -111 -70q-19 -28 -45 -93z" />
    <glyph glyph-name="notequal" unicode="&#x2260;" vert-adv-y="2457" 
d="M113 489l27 151h357l114 176h-440l27 151h514l154 235l116 -57l-116 -178h277l-28 -151h-350l-114 -176h434l-27 -151h-507l-163 -248l-117 57l125 191h-283z" />
    <glyph glyph-name="lessequal" unicode="&#x2264;" vert-adv-y="2457" 
d="M30 0l26 147h940l-26 -147h-940zM401 751l645 -324l-29 -161l-862 443l17 97l1018 441l-31 -171z" />
    <glyph glyph-name="greaterequal" unicode="&#x2265;" vert-adv-y="2457" 
d="M30 0l26 147h940l-26 -147h-940zM867 763l-646 324l29 160l862 -442l-17 -97l-1018 -442l31 172z" />
    <glyph glyph-name="dotmath" unicode="&#x22c5;" horiz-adv-x="590" vert-adv-y="2457" 
d="M317 752q58 0 100 -44q36 -37 36 -89q0 -61 -46 -100q-40 -34 -93 -34q-61 0 -103 44q-36 37 -36 91q0 58 47 98q40 34 95 34z" />
    <glyph glyph-name="lozenge" unicode="&#x25ca;" vert-adv-y="2457" 
d="M64 717l562 769l562 -769l-562 -769zM263 717l363 -512l362 512l-362 512z" />
    <glyph glyph-name="glyph155" horiz-adv-x="590" vert-adv-y="2457" 
 />
    <glyph glyph-name="glyph172" vert-adv-y="1180" 
 />
    <glyph glyph-name="glyph192" horiz-adv-x="590" vert-adv-y="2457" 
 />
    <glyph glyph-name="glyph193" horiz-adv-x="590" vert-adv-y="2457" 
 />
    <glyph glyph-name="glyph210" horiz-adv-x="590" vert-adv-y="2457" 
 />
    <glyph glyph-name="Caron" horiz-adv-x="1024" vert-adv-y="2457" 
d="M733 1681l197 164h188l-284 -282h-218l-240 282h180z" />
    <glyph glyph-name="five.numerator" horiz-adv-x="807" vert-adv-y="2457" 
d="M116 604l51 127q107 -75 217 -75q136 0 191 95q35 62 35 131q0 118 -129 118q-74 0 -176 -62l-91 20l102 474h503l-21 -117h-361l-51 -225q64 27 140 27q243 0 243 -221q0 -81 -29 -155q-79 -202 -345 -202q-160 0 -279 65z" />
    <glyph glyph-name="four.numerator" horiz-adv-x="807" vert-adv-y="2457" 
d="M515 774h-424l17 97l519 561h152l-95 -542h143l-21 -116h-143l-38 -220h-148zM536 890l62 352l-319 -352h257z" />
    <glyph glyph-name="Breve" horiz-adv-x="1024" vert-adv-y="2457" 
d="M419 1845h131q-1 -27 -1 -37q0 -61 35 -87q43 -31 134 -31q125 0 176 58q28 32 45 97h137q-18 -121 -68 -185q-87 -112 -295 -112q-302 0 -302 212q0 35 8 85z" />
    <glyph glyph-name="Tilde" horiz-adv-x="1024" vert-adv-y="2457" 
d="M975 1838h128q-33 -109 -68 -167q-74 -122 -192 -122q-73 0 -125 48q-21 19 -68 79q-25 31 -59 31q-75 0 -123 -141h-128q37 114 80 178q74 110 188 110q87 0 159 -91q37 -46 48 -55q19 -14 43 -14q71 0 117 144z" />
    <glyph glyph-name="Hungarumlaut" horiz-adv-x="1024" vert-adv-y="2457" 
d="M458 1563l184 282h226l-268 -282h-142zM792 1563l184 282h226l-269 -282h-141z" />
    <glyph glyph-name="Acute" horiz-adv-x="1024" vert-adv-y="2457" 
d="M598 1563l210 282h253l-314 -282h-149z" />
    <glyph glyph-name="three.numerator" horiz-adv-x="807" vert-adv-y="2457" 
d="M89 604l51 127q105 -74 222 -74q133 0 194 81q40 53 40 118q0 73 -51 105q-47 30 -159 30h-92l306 323h-342l21 118h594l-321 -340q94 -18 134 -51q69 -57 69 -168q0 -155 -98 -244t-286 -89q-162 0 -282 64z" />
    <glyph glyph-name="Cedilla" horiz-adv-x="1024" vert-adv-y="2457" 
d="M366 0h131l-75 -94q78 -5 126 -20q86 -26 86 -103q0 -92 -82 -144q-71 -45 -196 -45q-127 0 -213 40l53 94q74 -28 149 -28q63 0 96 24q27 20 27 50q0 33 -52 44q-49 10 -147 11l-10 40z" />
    <glyph glyph-name="two.numerator" horiz-adv-x="807" vert-adv-y="2457" 
d="M96 554l20 113l329 294q189 169 189 263q0 101 -137 101q-97 0 -225 -79l-5 131q125 68 254 68q132 0 206 -52q71 -51 71 -153q0 -100 -70 -194q-45 -61 -178 -175l-234 -200h397l-21 -117h-596z" />
    <glyph glyph-name="one.numerator" horiz-adv-x="807" vert-adv-y="2457" 
d="M376 554l130 741l-219 -67l22 124l259 87h115l-156 -885h-151z" />
    <glyph glyph-name="yen.fitted" horiz-adv-x="1187" vert-adv-y="2457" 
d="M401 0l50 285h-373l21 119h373l20 110l-16 44h-350l21 119h283l-278 757h211l254 -731l509 731h220l-542 -757h281l-21 -119h-349l-31 -44l-19 -110h371l-21 -119h-371l-51 -285h-192z" />
    <glyph glyph-name="Euro.fitted" horiz-adv-x="1216" vert-adv-y="2457" 
d="M33 489l66 119h129q4 65 19 147h-168l67 119h129q55 192 146 316q196 267 537 267q210 0 376 -112l-84 -155q-123 105 -292 105q-342 0 -476 -421h596l-66 -119h-562q-16 -73 -21 -147h505l-66 -119h-435q16 -135 40 -184q79 -166 306 -166q181 0 341 123l1 -183
q-178 -102 -374 -102q-218 0 -352 105q-125 98 -155 287q-8 50 -13 120h-194z" />
    <glyph glyph-name="florin.fitted" horiz-adv-x="1192" vert-adv-y="2457" 
d="M489 808l53 298q30 173 109 256q94 101 273 101q115 0 244 -50l-62 -151q-87 48 -161 48q-101 0 -154 -57q-44 -47 -66 -168l-48 -277h368l-27 -156h-369l-81 -465q-36 -206 -74 -300q-113 -281 -455 -297l27 153q68 8 104 22q109 44 163 218q27 89 50 223l78 446h-260
l28 156h260z" />
    <glyph glyph-name="cent.fitted" horiz-adv-x="1175" vert-adv-y="2457" 
d="M574 218q-369 40 -369 400q0 184 81 355q140 293 476 312l33 191h118l-34 -194q112 -11 242 -84l-63 -165q-95 81 -207 94l-132 -754q69 5 126 24q50 17 127 61l3 -168q-136 -64 -284 -74l-50 -285h-118zM602 378l131 747q-118 -17 -191 -93q-81 -84 -118 -212
q-25 -87 -25 -171q0 -237 203 -271z" />
    <glyph glyph-name="dollar.fitted" vert-adv-y="2457" 
d="M563 656q-146 63 -205 103q-146 98 -146 261q0 122 69 218q122 169 417 179l36 207h118l-37 -210q173 -18 326 -109l-64 -168q-122 105 -289 122l-80 -457q164 -71 223 -109q152 -99 152 -265q0 -132 -71 -239q-123 -184 -449 -208l-32 -177h-118l31 173q-137 2 -265 37
q-101 29 -172 75l64 176q92 -73 193 -103q91 -27 208 -28zM597 846l73 414q-95 -9 -159 -41q-59 -29 -87 -87q-22 -43 -22 -92q0 -91 94 -146q30 -17 101 -48zM674 612l-82 -469q123 17 195 63q61 39 90 106q18 41 18 85q0 99 -100 159q-23 14 -121 56z" />
    <glyph glyph-name="sterling.fitted" vert-adv-y="2457" 
d="M52 0l28 156h183l87 498h-183l27 153h185l39 223q20 114 49 177q116 250 430 250q211 0 371 -109l-62 -168q-122 119 -298 119q-157 0 -237 -109q-34 -47 -53 -107q-11 -37 -25 -117l-28 -159h284l-28 -153h-283l-88 -498h625l-28 -156h-995z" />
    <glyph glyph-name="zero.fitted" horiz-adv-x="1235" vert-adv-y="2457" 
d="M768 1457q141 0 243 -59q170 -99 170 -389q0 -178 -55 -419q-77 -334 -204 -468q-137 -145 -376 -145q-223 0 -327 122q-93 109 -93 327q0 153 50 398q70 338 203 482q140 151 389 151zM757 1299q-179 0 -274 -152q-72 -115 -125 -402q-38 -212 -38 -335q0 -275 234 -275
q174 0 270 152q71 113 122 389q41 219 41 348q0 275 -230 275z" />
    <glyph glyph-name="nine.fitted" horiz-adv-x="1156" vert-adv-y="2457" 
d="M756 558q-103 -55 -218 -55q-180 0 -274 91q-95 93 -95 274q0 209 109 376q139 213 435 213q421 0 421 -371q0 -322 -296 -686l-325 -400h-226zM703 1303q-186 0 -274 -161q-66 -121 -66 -264q0 -224 232 -224q192 0 280 156q65 116 65 265q0 228 -237 228z" />
    <glyph glyph-name="Ogonek" horiz-adv-x="1024" vert-adv-y="2457" 
d="M447 0h123q-108 -60 -162 -110q-65 -59 -65 -121q0 -65 108 -65q66 0 137 21l5 -100q-97 -31 -198 -31q-224 0 -224 149q0 91 91 161q61 46 185 96z" />
    <glyph glyph-name="Macron" horiz-adv-x="1024" vert-adv-y="2457" 
d="M412 1629l26 144h593l-25 -144h-594z" />
    <glyph glyph-name="commaaccent.sc" horiz-adv-x="1024" vert-adv-y="2457" 
d="M224 -404l115 279h197l-173 -279h-139z" />
    <glyph glyph-name="Comma.high" horiz-adv-x="269" vert-adv-y="2457" 
d="M84 945l148 489h206l-218 -489h-136z" />
    <glyph glyph-name="commaaccent" horiz-adv-x="1024" vert-adv-y="2457" 
d="M224 -404l115 279h197l-173 -279h-139z" />
    <glyph glyph-name="comma.high" horiz-adv-x="269" vert-adv-y="2457" 
d="M84 945l148 489h206l-218 -489h-136z" />
    <glyph glyph-name="eight.fitted" horiz-adv-x="1185" vert-adv-y="2457" 
d="M385 761q-65 43 -96 90q-47 71 -47 171q0 103 47 199q115 236 444 236q195 0 299 -77q111 -82 111 -241q0 -264 -257 -389q198 -90 198 -304q0 -216 -146 -345q-140 -124 -413 -124q-469 0 -469 336q0 192 124 322q75 79 205 126zM733 1303q-167 0 -245 -101
q-60 -77 -60 -186q0 -184 221 -184q171 0 250 114q55 81 55 181q0 88 -59 132t-162 44zM627 674q-209 0 -301 -113q-76 -94 -76 -229q0 -201 283 -201q197 0 287 106q75 89 75 228q0 209 -268 209z" />
    <glyph glyph-name="seven.fitted" horiz-adv-x="943" vert-adv-y="2457" 
d="M801 1276h-623l28 158h869l-807 -1434h-215z" />
    <glyph glyph-name="six.fitted" horiz-adv-x="1156" vert-adv-y="2457" 
d="M473 876q103 55 216 55q181 0 275 -91q95 -93 95 -274q0 -208 -109 -376q-138 -213 -433 -213q-421 0 -421 371q0 323 295 686l325 400h226zM639 780q-197 0 -284 -156q-65 -115 -65 -265q0 -228 239 -228q182 0 270 161q66 120 66 264q0 224 -226 224z" />
    <glyph glyph-name="commareversed" horiz-adv-x="1024" vert-adv-y="2457" 
d="M971 1446l-216 -280h-242l309 280h149z" />
    <glyph glyph-name="five.fitted" horiz-adv-x="1109" vert-adv-y="2457" 
d="M32 77l64 169q145 -114 335 -114q228 0 316 153q63 109 63 235q0 232 -225 232q-128 0 -286 -102l-109 25l162 759h739l-28 -156h-565l-96 -436q33 17 42 21q95 43 210 43q172 0 261 -95q91 -98 91 -276q0 -129 -45 -243q-123 -314 -517 -314q-238 0 -412 99z" />
    <glyph glyph-name="four.fitted" horiz-adv-x="1183" vert-adv-y="2457" 
d="M693 360h-666l25 139l818 935h193l-160 -911h224l-29 -163h-224l-63 -360h-181zM722 523l119 678l-576 -678h457z" />
    <glyph glyph-name="three.fitted" horiz-adv-x="1077" vert-adv-y="2457" 
d="M-28 77l64 169q140 -115 342 -115q217 0 318 128q74 95 74 230q0 158 -118 208q-81 35 -236 35h-97l495 544h-565l28 158h881l-520 -570q328 -40 328 -350q0 -231 -137 -378q-149 -159 -444 -159q-240 0 -413 100z" />
    <glyph glyph-name="two.fitted" horiz-adv-x="1077" vert-adv-y="2457" 
d="M-20 0l26 152l490 465q211 200 274 292q76 112 76 212q0 178 -233 178q-167 0 -349 -122l-4 179q74 35 127 54q130 47 263 47q188 0 292 -83q98 -78 98 -230q0 -168 -118 -328q-74 -101 -300 -306l-391 -354h660l-27 -156h-884z" />
    <glyph glyph-name="Ring" horiz-adv-x="1024" vert-adv-y="2457" 
d="M733 1955q99 0 160 -61q56 -56 56 -148q0 -90 -56 -146q-61 -61 -163 -61t-162 61q-57 56 -57 146q0 93 57 148q62 61 165 61zM732 1860q-57 0 -85 -35q-24 -30 -24 -78t24 -78q28 -35 83 -35q54 0 83 35q24 30 24 78q0 49 -24 78q-30 35 -81 35z" />
    <glyph glyph-name="seven.numerator" horiz-adv-x="807" vert-adv-y="2457" 
d="M649 1314h-381l21 118h581l-523 -878h-169z" />
    <glyph glyph-name="one.fitted" horiz-adv-x="785" vert-adv-y="2457" 
d="M243 0l220 1254l-345 -112l28 159l396 141h142l-254 -1442h-187z" />
    <glyph glyph-name="adotaccent" horiz-adv-x="1162" vert-adv-y="2457" 
d="M743 112q-49 -48 -77 -68q-99 -67 -248 -67q-356 0 -356 386q0 151 46 291q67 202 210 305q123 88 287 88q124 0 211 -38q29 -13 82 -48l24 63h149l-180 -1024h-151zM847 818q-94 73 -217 73q-200 0 -301 -194q-73 -141 -73 -320q0 -126 47 -184q50 -60 154 -60
q130 0 226 82q68 59 88 170zM731 1418q59 0 94 -35q31 -31 31 -82q0 -60 -41 -91q-34 -27 -86 -27q-61 0 -96 35q-31 32 -31 84q0 57 41 90q33 26 88 26z" />
    <glyph glyph-name="eight.numerator" horiz-adv-x="807" vert-adv-y="2457" 
d="M303 1026q-79 62 -79 154q0 113 77 185q86 80 249 80q279 0 279 -207q0 -103 -64 -166q-31 -31 -81 -57q47 -29 68 -53q46 -54 46 -133q0 -139 -93 -214t-277 -75q-318 0 -318 218q0 123 80 199q36 34 113 69zM551 1327q-96 0 -142 -61q-30 -40 -30 -91q0 -43 28 -71
q31 -32 97 -32q95 0 141 65q29 41 29 92q0 41 -27 67q-33 31 -96 31zM486 952q-117 0 -172 -62q-44 -49 -44 -118q0 -115 160 -115q117 0 171 62q41 47 41 116q0 117 -156 117z" />
    <glyph glyph-name="nine.numerator" horiz-adv-x="807" vert-adv-y="2457" 
d="M532 866q-47 -13 -90 -13q-121 0 -188 61q-68 62 -68 176q0 133 71 232q92 125 286 125q153 0 224 -70q64 -63 64 -173q0 -198 -175 -399l-218 -251h-181zM540 1330q-107 0 -159 -93q-36 -65 -36 -138q0 -129 130 -129q108 0 159 88q37 62 37 139q0 133 -131 133z" />
    <glyph glyph-name="zero.numerator" horiz-adv-x="807" vert-adv-y="2457" 
d="M556 1445q286 0 286 -289q0 -106 -35 -251q-48 -197 -130 -276q-94 -89 -251 -89q-291 0 -291 287q0 105 34 250q45 194 128 276q93 92 259 92zM545 1325q-99 0 -154 -84q-44 -67 -74 -227q-22 -117 -22 -191q0 -163 138 -163q141 0 199 190q21 66 38 179q12 75 12 131
q0 165 -137 165z" />
    <glyph glyph-name="afii10029.bgr" horiz-adv-x="1361" vert-adv-y="2457" 
d="M995 -297l6 332l32 128h173l-82 -460h-129z" />
    <glyph glyph-name="dotlessj" horiz-adv-x="577" vert-adv-y="2457" 
d="M294 1024h188l-147 -837q-37 -207 -74 -300q-113 -280 -455 -296l27 153q68 7 104 21q109 45 163 219q26 87 50 222z" />
    <glyph glyph-name="Dotaccent" horiz-adv-x="1024" vert-adv-y="2457" 
d="M724 1819q60 0 96 -36q31 -32 31 -83q0 -60 -41 -92q-35 -27 -88 -27q-62 0 -98 36q-31 31 -31 85q0 57 41 90q34 27 90 27z" />
    <glyph glyph-name="Adotaccent" horiz-adv-x="1372" vert-adv-y="2457" 
d="M1002 387h-678l-223 -387h-214l854 1434h196l355 -1434h-203zM966 543l-153 696l-398 -696h551zM876 1819q60 0 96 -36q31 -32 31 -83q0 -60 -41 -92q-35 -27 -88 -27q-62 0 -98 36q-31 31 -31 85q0 57 41 90q34 27 90 27z" />
    <glyph glyph-name="Dieresis" horiz-adv-x="1024" vert-adv-y="2457" 
d="M510 1818q56 0 90 -35q29 -31 29 -81q0 -59 -39 -90q-33 -27 -83 -27q-59 0 -93 35q-29 31 -29 82q0 58 39 90q32 26 86 26zM939 1818q57 0 91 -35q29 -31 29 -81q0 -59 -39 -90q-33 -27 -83 -27q-59 0 -93 35q-29 31 -29 82q0 58 39 90q32 26 85 26z" />
    <glyph glyph-name="one.denominator" horiz-adv-x="807" vert-adv-y="2457" 
d="M279 0l130 741l-219 -67l22 124l259 87h115l-156 -885h-151z" />
    <glyph glyph-name="two.denominator" horiz-adv-x="807" vert-adv-y="2457" 
d="M-1 0l20 113l329 294q189 169 189 263q0 101 -136 101q-96 0 -226 -79l-5 131q126 68 253 68q133 0 207 -53q71 -50 71 -153q0 -98 -70 -193q-44 -60 -178 -174l-234 -201h397l-21 -117h-596z" />
    <glyph glyph-name="three.denominator" horiz-adv-x="807" vert-adv-y="2457" 
d="M-9 50l51 127q105 -73 222 -73q133 0 194 81q40 52 40 118q0 72 -51 105q-46 29 -159 29h-92l307 323h-343l21 118h595l-322 -340q93 -17 134 -51q69 -56 69 -168q0 -155 -98 -244t-285 -89q-159 0 -283 64z" />
    <glyph glyph-name="four.denominator" horiz-adv-x="807" vert-adv-y="2457" 
d="M417 220h-424l17 97l519 561h152l-95 -542h143l-21 -116h-143l-38 -220h-148zM438 336l62 352l-319 -352h257z" />
    <glyph glyph-name="six.numerator" horiz-adv-x="807" vert-adv-y="2457" 
d="M444 1120q47 13 90 13q121 0 188 -61q68 -61 68 -176q0 -132 -72 -231q-90 -126 -285 -126q-154 0 -224 70q-64 63 -64 174q0 197 175 398l218 251h181zM501 1016q-109 0 -160 -87q-36 -63 -36 -140q0 -133 130 -133q107 0 159 93q36 65 36 137q0 130 -129 130z" />
    <glyph glyph-name="six.denominator" horiz-adv-x="807" vert-adv-y="2457" 
d="M346 566q47 13 91 13q120 0 187 -61q68 -62 68 -176q0 -132 -72 -231q-90 -125 -285 -125q-154 0 -224 69q-64 64 -64 174q0 197 175 398l218 251h181zM403 462q-110 0 -160 -87q-37 -63 -37 -139q0 -133 131 -133q107 0 159 93q37 66 37 137q0 129 -130 129z" />
    <glyph glyph-name="seven.denominator" horiz-adv-x="807" vert-adv-y="2457" 
d="M552 760h-381l21 118h581l-523 -878h-169z" />
    <glyph glyph-name="eight.denominator" horiz-adv-x="807" vert-adv-y="2457" 
d="M205 472q-79 62 -79 154q0 113 77 185q86 80 250 80q278 0 278 -207q0 -103 -64 -167q-31 -30 -81 -56q47 -30 68 -54q46 -53 46 -133q0 -138 -93 -213t-278 -75q-317 0 -317 218q0 123 80 199q36 34 113 69zM453 774q-97 0 -142 -61q-30 -40 -30 -92q0 -44 28 -71
q32 -32 96 -32q96 0 142 65q29 41 29 92q0 42 -27 68q-33 31 -96 31zM387 398q-117 0 -172 -62q-44 -50 -44 -118q0 -115 160 -115q118 0 172 62q41 47 41 115q0 118 -157 118z" />
    <glyph glyph-name="nine.denominator" horiz-adv-x="807" vert-adv-y="2457" 
d="M435 312q-47 -13 -91 -13q-119 0 -187 61t-68 176q0 132 72 231q90 126 285 126q154 0 224 -70q64 -63 64 -174q0 -197 -175 -398l-218 -251h-181zM444 776q-108 0 -160 -93q-36 -66 -36 -138q0 -129 130 -129q109 0 160 87q37 63 37 140q0 133 -131 133z" />
    <glyph glyph-name="zero.denominator" horiz-adv-x="807" vert-adv-y="2457" 
d="M459 891q286 0 286 -289q0 -106 -35 -251q-47 -196 -130 -276q-94 -89 -251 -89q-291 0 -291 287q0 106 34 250q46 195 128 276q93 92 259 92zM448 771q-143 0 -201 -190q-21 -68 -38 -180q-12 -77 -12 -132q0 -163 139 -163q141 0 199 190q21 67 38 179q12 75 12 131
q0 165 -137 165z" />
    <glyph glyph-name="five.denominator" horiz-adv-x="807" vert-adv-y="2457" 
d="M19 50l51 127q105 -74 216 -74q138 0 192 95q35 62 35 130q0 118 -129 118q-76 0 -176 -62l-91 20l102 474h503l-21 -117h-361l-51 -225q63 27 140 27q243 0 243 -221q0 -81 -29 -154q-80 -202 -345 -202q-161 0 -279 64z" />
    <glyph glyph-name="Grave" horiz-adv-x="1024" vert-adv-y="2457" 
d="M829 1563h-142l-221 282h237z" />
    <glyph glyph-name="Circumflex" horiz-adv-x="1024" vert-adv-y="2457" 
d="M731 1727l-216 -164h-193l312 282h218l212 -282h-176z" />
    </font>
</defs>
</svg>
